<mxfile host="65bd71144e">
    <diagram id="Fs1Oa40cRaND8-NfqR7d" name="pÃ¡gina de Inicio">
        <mxGraphModel dx="472" dy="118" grid="1" gridSize="10" guides="1" tooltips="1" connect="1" arrows="1" fold="1" page="1" pageScale="1" pageWidth="850" pageHeight="1100" math="0" shadow="0">
            <root>
                <mxCell id="0"/>
                <mxCell id="1" parent="0"/>
                <mxCell id="3" value="" style="rounded=0;whiteSpace=wrap;html=1;" parent="1" vertex="1">
                    <mxGeometry x="40" y="20" width="680" height="310" as="geometry"/>
                </mxCell>
                <mxCell id="4" value="" style="ellipse;whiteSpace=wrap;html=1;aspect=fixed;" parent="1" vertex="1">
                    <mxGeometry x="650" y="40" width="40" height="40" as="geometry"/>
                </mxCell>
                <mxCell id="5" value="Busca tu producto" style="rounded=1;whiteSpace=wrap;html=1;" parent="1" vertex="1">
                    <mxGeometry x="160" y="50" width="390" height="30" as="geometry"/>
                </mxCell>
                <mxCell id="6" value="Quieres vender?" style="rounded=1;whiteSpace=wrap;html=1;" parent="1" vertex="1">
                    <mxGeometry x="160" y="100" width="390" height="30" as="geometry"/>
                </mxCell>
                <mxCell id="11" value="Logo" style="whiteSpace=wrap;html=1;aspect=fixed;" parent="1" vertex="1">
                    <mxGeometry x="60" y="30" width="50" height="50" as="geometry"/>
                </mxCell>
                <mxCell id="14" value="" style="sketch=0;pointerEvents=1;shadow=0;dashed=0;html=1;strokeColor=none;fillColor=#505050;labelPosition=center;verticalLabelPosition=bottom;verticalAlign=top;outlineConnect=0;align=center;shape=mxgraph.office.concepts.search;" parent="1" vertex="1">
                    <mxGeometry x="520" y="57" width="20" height="23" as="geometry"/>
                </mxCell>
                <mxCell id="15" value="" style="sketch=0;pointerEvents=1;shadow=0;dashed=0;html=1;strokeColor=none;fillColor=#505050;labelPosition=center;verticalLabelPosition=bottom;verticalAlign=top;outlineConnect=0;align=center;shape=mxgraph.office.concepts.learn;" parent="1" vertex="1">
                    <mxGeometry x="656" y="46.5" width="28" height="27" as="geometry"/>
                </mxCell>
                <mxCell id="18" value="Ingresa" style="text;html=1;strokeColor=none;fillColor=none;align=center;verticalAlign=middle;whiteSpace=wrap;rounded=0;" parent="1" vertex="1">
                    <mxGeometry x="590" y="46.5" width="60" height="26.5" as="geometry"/>
                </mxCell>
                <mxCell id="19" value="Producto 1" style="whiteSpace=wrap;html=1;aspect=fixed;" parent="1" vertex="1">
                    <mxGeometry x="60" y="210" width="80" height="80" as="geometry"/>
                </mxCell>
                <mxCell id="20" value="Producto 1" style="whiteSpace=wrap;html=1;aspect=fixed;" parent="1" vertex="1">
                    <mxGeometry x="150" y="210" width="80" height="80" as="geometry"/>
                </mxCell>
                <mxCell id="21" value="Productos destacados" style="text;html=1;strokeColor=none;fillColor=none;align=center;verticalAlign=middle;whiteSpace=wrap;rounded=0;" parent="1" vertex="1">
                    <mxGeometry x="50" y="160" width="160" height="30" as="geometry"/>
                </mxCell>
                <mxCell id="22" value="Producto 1" style="whiteSpace=wrap;html=1;aspect=fixed;" parent="1" vertex="1">
                    <mxGeometry x="240" y="210" width="80" height="80" as="geometry"/>
                </mxCell>
                <mxCell id="23" value="Producto 1" style="whiteSpace=wrap;html=1;aspect=fixed;" parent="1" vertex="1">
                    <mxGeometry x="330" y="210" width="80" height="80" as="geometry"/>
                </mxCell>
                <mxCell id="24" value="Producto 1" style="whiteSpace=wrap;html=1;aspect=fixed;" parent="1" vertex="1">
                    <mxGeometry x="420" y="210" width="80" height="80" as="geometry"/>
                </mxCell>
                <mxCell id="25" value="Producto 1" style="whiteSpace=wrap;html=1;aspect=fixed;" parent="1" vertex="1">
                    <mxGeometry x="510" y="210" width="80" height="80" as="geometry"/>
                </mxCell>
                <mxCell id="26" value="Producto 1" style="whiteSpace=wrap;html=1;aspect=fixed;" parent="1" vertex="1">
                    <mxGeometry x="604" y="210" width="80" height="80" as="geometry"/>
                </mxCell>
            </root>
        </mxGraphModel>
    </diagram>
    <diagram id="X9ttyw_znQDBpDvolQXP" name="Login">
        <mxGraphModel dx="635" dy="246" grid="1" gridSize="10" guides="1" tooltips="1" connect="1" arrows="1" fold="1" page="1" pageScale="1" pageWidth="850" pageHeight="1100" math="0" shadow="0">
            <root>
                <mxCell id="sOTM7avh4ONZ-OYAUL4x-0"/>
                <mxCell id="sOTM7avh4ONZ-OYAUL4x-1" parent="sOTM7avh4ONZ-OYAUL4x-0"/>
            </root>
        </mxGraphModel>
    </diagram>
    <diagram id="rM4bTx0XB_kue50FKau7" name="Page-3">
        <mxGraphModel dx="1794" dy="1336" grid="1" gridSize="10" guides="1" tooltips="1" connect="1" arrows="1" fold="1" page="1" pageScale="1" pageWidth="850" pageHeight="1100" math="0" shadow="0">
            <root>
                <mxCell id="fttnm8-4a0CAx30jMsR7-0"/>
                <mxCell id="fttnm8-4a0CAx30jMsR7-1" parent="fttnm8-4a0CAx30jMsR7-0"/>
                <mxCell id="fttnm8-4a0CAx30jMsR7-2" value="" style="shape=image;verticalLabelPosition=bottom;labelBackgroundColor=#ffffff;verticalAlign=top;aspect=fixed;imageAspect=0;image=data:image/png,iVBORw0KGgoAAAANSUhEUgAABdkAAALECAYAAAD0PjlYAAAgAElEQVR4AeydB3wVVdr/8/7f///dfXfXXXWLbrN3ukgTEOk1JKT3npte6DGEXgRUQOxrL6vu6i66K+q6Ki5FQKoVG4JIS3LbzNy5Ncnv//mdmxMul0AggXWBM5/PMHNnzpzznGeeudx8zzO/EwEtGWpVPlAxoGJAxYCKARUDKgZUDKgYUDGgYkDFgIoBFQMqBlQMqBhQMaBiQMWAigEVA6ceAxHKaafuNOUz5TMVAyoGVAyoGFAxoGJAxYCKARUDKgZUDKgYUDGgYkDFgIoBFQMqBlQMqBhgDCjIrjL51ZsMKgZUDKgYUDGgYkDFgIoBFQMqBlQMqBhQMaBiQMWAigEVAyoGVAyoGFAx0M4YUJC9nY5To1RqlErFgIoBFQMqBlQMqBhQMaBiQMWAigEVAyoGVAyoGFAxoGJAxYCKARUDKgYUZFeQXY1QqRhQMaBiQMWAigEVAyoGVAyoGFAxoGJAxYCKARUDKgZUDKgYUDGgYkDFQDtjQEH2djpOjVCpESoVAyoGVAyoGFAxoGJAxYCKARUDKgZUDKgYUDGgYkDFgIoBFQMqBlQMqBhQkF1BdjVCpWJAxcB5GgNNzmQ0OpLQYFer8oGKARUDKgZUDKgYUDGgYqA9McDfUvxNpeCK8oGKARUDKgZUDKgYOL9jQEH28xSuqQf//H7w1f1X959/RAaMh9DUqEEtygPKA8oDygPKA8oDygPKA+31QCMave+KpAX1G1v9xlYxoGJAxYCKARUD528MKMiuILvKulAxoGLgPIwBb10iGhsUYG/vn9PqOuUB5QHlAeUB5QHlAeWBIx5oBH9bnctgpUlPBVdoYaszFeAaflx9Vj5RMaBiQMXAcWLg/IXQ5/L/k+ybguznIVw714Na9U99YasYaDsGjIPxR/4uVHvKA8oDygPKA8oDygPKA8oDHfKA+G11Dv9tqSC7GkhQAykqBlQMnK4YaPvvdcU0zk4fKch+Dv8QUg/l9/dQHvo6A6v+VIB586agrOIOpGZOxpjoaRg+duIx6/iYqcjKnSTKsTyv4/Xq/p25+6cfSIV1T/p57WNtf1yH/pBUFysPKA8oDygPKA8oDygPKA8c8YD4bXVO/215HLikMtmPk6l6HH+pzF7lLxUDKgbO6f8rzhzHORsYmYLsKrjPa9B4uh7SRkeKgOME6sPHTsf4aAvmTB+BJ+/rjLWr/gu7N0ZA+yQCTXuPXXmc51mO5XkdryeUZ33vvpEH1n+6bD3f63n68SJ0612NguLJ57VPnd8pyH7kz2K1pzygPKA8oDygPKA8oDzQMQ+I31bn9N+WChqrLF4VAyoGVAycnhg4v0H0ucykFGQ/p38IqQf3TD+833ycieXLqtB30CQU5w/Bq8/9QsB0WCMANK8NEYAnAtCbV2cEIFce4zmuoeWtQSj/p0evQnZmigD3zHJne2e6T+dy/cxgv7ZrjVgVZFeQvWN/SqurlQeUB5QHlAeUB5QHlAeOeOC8gewh+uutarSrLF2VpatiQMWAioE2YkCxunOVOynIriC7grbtiIFd27NElvltQ3OwYtH/BMG6hOQE5oTstRHAoVZWniNkJ2CXsD20LPd5XIL3hgjUfxEhstwHD68Q7SrY3r7/lEIhe8XEylZj/3x5a0Blsh/5o1jtKQ8oDygPKA8oDygPKA901APnK2Q/rlb7GYJsCuyrTOLTk0ms/Hi++fHf/V11Yv+2j2ecq2D6XOqXguztAKznUgCovpz6lxszygm7mbUuYDjhOoF4KChvDa4zox1BuRhKxBzcekRCpiWLnXA9/FrWK4G7NQLMbu97W5XQe+/o/du5qVRk4lPihrrxlFJhnZ66VCxaWA7qxXOdNaviuFn0vIZZ4VJb/t5lpcfVlOfgAM9Tgz4xdcpRuuh/eq4ABN9xSUGNera/4/2sY0D4pvdyhT1sj5I6bLu1NgnUX/7TXNEO+8b6qcN+y8A7RCZ7OGRnP2jXoOHTxZsDPP/Pv+cf035Hff6fcr2C7B39U1pdrzygPKA8oDygPKA8cCY8cPDgwTNR7Rmv85yH7FJ7PSyT/XSBq5OtR0F2BYdPDC+Vf/4T/SOfb7n9Pmxsq215ntszb9+pc6j/FI6g7DjxvVOQXUH2cxYinu6Hn4C4V798IQvTAr0J2JmZHg7G+VlmrDfDdWquV5VeJvTWR0fOgVypv56VfAOevj8I4AVwP142vITtDcHM9lHjZxwXaLfV/4cfLMYvLyvDb66Z0iKhcnWXGQJaE15f0am65fi1XWbgum41YAa/rJeTs7Icz3HltVwpx0KQHQ7I//ZyAW68OSjVIssR5vutKQKs8zpZhzjfZQZ+d0M1nn68oqVN1iHbk7Iv8hq2Ke0jTKeED/sXWi/BfL/BVeKYlIuhDTwu+yDq7TJD9J/tE/bLPp9LWwXZz/jf2qoB5QHlAeUB5QHlAeWBdnjgtEH2RhP1e3dj1+e7sHtvPczGdhhzCpcoyN4xMEWw1ailiLU1yCUBWIORCnmeW5/Ouas61ra6XvlPxcCZjQH5/MrtGfO3HAwM+05gu/zukCs45x3XkPLCNi0djVoSmpxn+nvlxKD2XOIO51tfFGRXkP2cBIin+0Hm5KNRsdNx78pVyMqZIUA7ZWKYjd6SzS4z2puhujh+KCj1Qog+aMRyzF26C9s+dMPuBLzeJrHlZx4fGf0SKD9DEL/9zWZwL6E662a9ziCI5/kFUy8QoH742InHAO22+k8Y/YOf5QeBddealkx0QmUJr7llZjdXCaqZ8S7rDgXTzPomtGfGuwTonFyU2eQsz/YkxOZ5npN13VFd0dImoT2z0lmPtIM2SXgu7SDwZ+Y5oTshOD+zXtbF9gjQpR3MTGedzGYP7Z/MZOc1LMuV2fWsl32hjbSZgw3nYka7guyn8FezKqo8oDygPKA8oDygPPBv80CHIbt5EJtfXonqEgsslpC1pBorX96Mg+aZ6co5D9nDoNXpgmQt0M1IQ8CZjICWhgY9HQ16JgJ6NgJ6LnxGLrS6OHhdCbDvs2DhpG5Y9/fx8GiZMN0xsHny0GQkBlc9GU16KMA6s/DwdPlB1XO23Kf0kEEd7sv1bLH/32unfL6Pt+1w3EtI7ooE9HjAlgdYpyJgj4ZPi4LPngH7vkIsnnwLNr6egQa9GB5nNuCMQ5MWXBv1ODQa49CkZQJ6FgJarBjs67BtJ/zODP2OUvuSMZ0LWwXZFWRvgabnQkCfiT4QsFMe5vDhz8UvcgLyux84iMyCtwXkHhcZI8A4M9GZrU4ZGQLwOdNHiOsIs1mWUL2thcB9Us12AeSZ4c7JVAnd5crPtIVAnmCeddKuTt1LTwm0U0aFdhFOU35F+i07f3ZLBjtBszxOkC2hN7PEmdUvgTcBtizHrcg271oj6nn1z5PEOUJvkYHetQZLl5QJ+E7tcwHfmyciZYY5s8plXSwn25C2EJSzrlCbWU8oZA/VXSdgl6Cf9XKSWgnaCfJlWQJ2An7ZNrdsg4Cd5zigwMz90PNn+76C7G09jeq88oDygPKA8oDygPLA9+GBjkB2v/1jvLSwRMD1klkr8fSqNdi8fTPWrHoaK2c1H1/4Ej62+0971xRkbx+8I3xjBjsBO1zpItOUx47Ay3Q0MbvUzIRRX4C5Ey/DrIpIZCRchX++ngCfVgK/I1OA+YBBOB9cJdQ7s6CsfX1WNp3tfmuGonpiK38fnu19O732y+fweNvT9SyI7whHHpqc+eI7wKPFwaWNR/13hZg/qSfml41GZuQPsfGd4TCs2fBqyfCLQb0UseX3RpOWDb89DTATxdsywe+h0+uPI/1VYP1s5ynHs19BdgXZW/mPQT3w8oEhTCbA1rT9rf4QJ3D/62qHAOME6XmFj4mVAPyJ5/fhgktn4IGH3zzqWtM0RUY8y85b+BL4OXwhPCdwZx2siyvBPtv6ek8gvHgLaCcAl7afaJtnsQiAHQ6WP962sAW+h8JpCcMJnOkTgnTucyWAp945M8BlFriE4zKznLCbZbkNtYvlJbwn9A49x322yzUUcBOqU4pGZs5LjXXWQzDPQRFRZ5cZokxonaxHQnYODjBDXdpKW0LLcp9wnXazzLmWza4g+zGPkTqgPKA8oDygPKA8oDzwH+CBdkN270GsWVkJi6USy17fBS1cHqZRw67Xl6HSYkHlyjU46D29nVWQvX0wSsK3gJYShOmutCBoN4rQaBShqXlr33cHqgo6iSz22rpCrFubj9So32Hja5MQcJbAoxfB5SqC05GP+npKXNKe0Kzj9tl3BIqp65UvZAz850J2+TyFb7+veyftkDItciuPd8QuWQfr9BlJcNWXweuohGkmwTSLcXjfnZg7rTPm11yOusP5+GBtPHLGdcG7ryXAb5aItcEsA1ePbTICZoEA7nLQj9uO2HfiaxVzC2cv58pnBdkVZD8GLJ4rwX06+kEN9k8+3d2uX+DUXKe8TOjywp/XCWgfk3gXJk17AtwS4vN4R5d163YKzfiT6TelUgiOOcloaHmCZmZvUzs9FNgTagtw3TWoyx4KxyVsl+dDt5SaYf1CB73LDCE9E9oeQTfLE3yHaq+HlgndJ9yXwF7Cb8q6CGmXrjVCFobAX9rA8qHXE9CzLK9l26H9CC/L66SfWF9rED607rNtX0H2jj5x6nrlgTPjgaamJgQCAXCrFuUB5QHlgfPRA+2F7ObHz6PaYkH1s9uPBezSkY0atj9bDYulGs9/fGyiiyzWnq2C7BJAntr2CChLFpCdwOyjLTdjcmlPTCkJrtOKe6Io4yosmXsDNOtkBNwl8NjLsGVtLLLjfoxJZQMwqeRasVYUXokVS4eedsgu7eRWwDep6Sx1nU8oDXFqPjkxnDvTdRH+BdsI7fORY5TjOdM2nHr9zGQOtTd8X9rf8a2Uhwm+YSHabZGMOflBnXD7OqoBHqwvuUVzPBxmh/vnWD+EQ9+j7wHtC7cxtA/H1ndsDIWW5zPUGsSm1BNtPV59ocfZxwABuysVH29NwZSCzpiSPwiTSq7H5MIByE25CksXdILNVga7MRpesxJbN8QiL6ovphd0EWt1YVdwffie6+DVLAjoSWh0pgXfruHAn35kDojQtju+H+5v9fls4ynHs1dBdgXZj4KQxwuU8/H4g/dmHQPJT+YHNzPTCc/DATsz1wnU/75661HV8DOPE7p3dFl812Og3W3dLwmPwyE7s8MJlI8H2QmnmclO4CwhN68h2JYrYTWzvrklnOfEpjLbXEJ3aZ+E7AT73JfH5ZbyMXJlXWyTK0E7bWCWO8/3uLVGyNEwk53tSshOm2Rd3DI7n31jHW2VZXnK08h+tgbhQ+s+2/Y7CtmdTifWrFlzzLpt2zbU1dUpQHgSD3NjYyO++OIL0Jena1GA9nR58vuphzHx7bffwmazfT8GqFaVB5QHlAf+AzzQLshOeP7EFFhKFuOtfSeWgvHvewuLSyyY8sQJYHw7/KAg+9FQ7lQhVIORDDgzhSb72vVxKK/si80bMrBlYxbWvZ+GTZsTYXekw+GIgenMh8+Ig8/Ixhcfx+LDdbH4dH0CPlwXj1f/NB6TS7oD9iJRXzCb/Qg4Plm7Gik94YpCkzdSyE80eVPR4BkPjz4WPj0DcCYA+jhAnwDYZeZ8x3xwsrad3nLHwj2CzoAzEX5HAnzOBDS44hEwosXaZMSHaN9///2VEFSAUbsFjZ5x8GijEDBi0OgKyhCxH7Jc+32XDhgTxCqAtTMXTUYs/M4oNDpyTgoKy7ZpC/1LSNxkpsJtjwQ8I9BojEeTIw2Ntlw0OTLESvkSrk32MgSc8Wj0jEGjZzwa3KPRoAXnLAiYE+C2p8GrJ8LtjIZXS0WDYYFpTUfAWQGvHosGVwbc9iTAlQm/PSnEH2H3nxI4eiL8zhj4bZRLLUSjMwN+Z6S4zmdNgV9LFGuDKxaNZgICWgYa7RY0OUqET3gvgnMkxApg3uQZJOA1Y6jJG4UGM0r0nz4g1BZg25V2JL60zBD7jo0xeS9DIfuWDdEoTr4Jm9YmY9u2GHzwQSS2f5AI3VkGQ8+FaSTD6YgW3x3ffFSEbWvSseVf8djyXjpeeTYJNcVd4XHmolFLEP3lAIC4P82QXbYp72HHt2F+V1zyKG5ztrGVUHsVZFfBfM4Ec2hgd3SfYJgTirYm5dLWb+5Nm74Qkivc7j9gE1nqfW+rEuD9ePXxOMsw+70jC2VtaHdb/W8vZCe8JmSnXrmAz11mtCmjQgj+y8uC+urhkF3KtfzmmimgHnyo3YTozDqn3rqE9sx4Z7uE67IsM+4lCKd0Dc9JyE79dlmOW4JyaTehPq+VZQnUQ8tSWkYCeUJ99jv0/Nm+fzog+4cffgi//8gfsgS8drsdH3zwATRN60gonxfXngnIzu+STz/99Kj7cl448xzoZENDA/bt2wdd18+B3qguKA8oDygPtN8D7YLs/oN4a2kJLDXPY1dbCermLjxfY0HJ0rdw8MjPmPYb3HylguzHwrBTAVENRuJRkH1G5c3wHLIgYM+Fy1UAmy0PDlsa/O5cmNRONjPgdSUBvgy4bbHw23OFbMymdYmYWHIVmhxFQmM5mMF7apC9UUsCob/IkjWy4XHmC0jncxXDcBbBMNLRqI0NglABFwkjj/RfArnQbVvnQ8ueyr6st7Vr5DluQ88ffTwM9unBCWQJqOHOhN+ZCp+eBp+eIiQ5eJ+4EsS3BiFD2wndP5ENofaE7svr5TH5mdvwY41GBhr1PLi1cfC78gB/MTRrrLDZ3QpkD63r5PaTERxgiBexwcEHly1G1A/jSMbz8eqS9nLLMpRHajBTYNrj0WQWiBjzGxY0GDkCiNO31An32dPE5J0eZwoCZiy8rjh4tTzo9VnQrWkCDHscRTDNKBjUIXckwaMnwnBGifkKPEYsfO4JArw3ufPhs2ehycgPSjMJOZTm+98M12UfWc7jSIPblgWfvRxmfb6A9E3uXDQ4J4k5EjgxsdtOu+LhcUUKW7ycwNhVBK+eA58rEz69CD7PWPg9MeKZ5STGnLCYQJsr+8LV57SgwUwSAzqc9Fj6MdRvcl+eEz6in/j2y79SMaegEzzWHLicCTDsWXDWVkN3TkDAmw2vniH8wAEJ9ouDDwE9X2x3rk9FdQkhe3ZwcKAZ8vP5l23INqUNHd+GPXeKS54zrEVBdhXM50wwn07ouepPBcdkop/KL29mp6dlrxBgnVntJysHw2sI2wnn27swm5265CfyR0cgOwF76GSjBOHMGJfwnSCdxzixqnaoStjBfcLscMgus9CZyc7znJiUkJz+Z3Y6jxPAMwOdk6hyn+UI4DkQQhCemBo8Jo+z38ycl+CdGeusk4CddfI4Vzl5qtRd5zFqyDNjnlB/+Njpoi0eZ3sn8ufZeO5MQHbGLEHhrl27UFtb294QPm+uU5D9vLnVJ9VRxgNXtSgPKA8oD5zvHlCQ/T8VvhwBmx0HTMfWFYTs2S2Z7DMmdofPmiZA+XvvDEV1aU/ct2ggavdOhMeVDZ+ZLGAitZiZCevXY9FoZGHrhnhML78BDc4iNDHbWMiI0KfHtnmiY7qei3+8GoelcwZi4azOWDxnMBbWDMKzT0Vh6/YsmALE54AAN2COOAY4Szgnt7ItCeu4lee4DT3+79wXbxCEMpFmyO5yxsGsT0CTUSBgbYNWLqAk4btfiweMNDS60sSW+9Lm0D6F7rP/8jPLSn+caCvrlGVCr5fn5JZZ0aY1Dghk4i9P98W6N0fAo6XDpUXDsB3xr6xLXhe+lW0cvSVglwMLyUEQbCTDdJTAtBWLbHRZXtYnP8utbJcZ0izT6MyCj3BaS8f7747B3bNvwt1zumLZ3N64e1ZfLJnRD/fMvQ4fbh0HkzDeHwPDnQDTPQXvvJmC+TU3YUblLXjm4dE48F0edD0Fbnc6TGcBvt6VgeVzB6KqsCv+8mw/mPaJIPwm4A7Yy/HiI1fDODQhONkw772RAhjMck8SmekwEuDUMnBofwUeXNYT1ZVXIjfxF0KO5YmVw/Dd12VwO6bAY+TDoyfDcCbg9b/eirtn98byBT2ErNOSmQNxz9wBWFIzFC88NRSasxCr/zoBy+YNwpJZfXDX7MG4e+btuKtmEO6eMQirXugGlz0DjLsmMzMYV3oaINeQ57c1H3/4bg7mlVwrsurhK8L6t8Zj3sTBuG/+7ajfnycge8AXC48eCZeV/cyGzxkjym/714gWyM5MdvEWQfPzKduSW3kfO779T/2eV3Z1lO0oyB76H4raP+dAYnsfEE4MSjDOiU07shxvwtQT1cnJUJn5zUz49iwE/K1NIhrqC8JuQunwiUilfAvPhU42SiDNY1ylbIrMQr+2GVrL89wy45wgn20ShsvJRgm0Q+3gPgcE2F8CdK6E2rLOUMBNiE/oLs53rREgn/VKQM9JXOVkrWLy0+YJS1vKSDubYbq0g/VKuRmWle2zH9wPHxiQ153t2zMB2WUm+44dO+B2u0X4UgqFkiih8JDZ78y2lm92EMzv2bMHGzduxNq1awWkd7lcLeHPawntKUVDiZrt27eLjHmpWe3xePD5559j/fr1YuW+13tkNrPDhw+L+iljwzpak2fhMV7HMqyf7ezcuVO0Iw2RdjscDtGnL7/8UvRL9pvleR3boL2hfWYdzO7/6KOPRJmPP/5Y2BEqF3MyvmI94f395ptvROY6+xkq4cPPXML9J/sl/ccybFvazzcRDhw4cIz9orJW/mE7u3fvFn3mtbwPlDyhrvh3330n7iuP8y0HuYTbJH0mbZL3g9fQLtmXcF+z3lBfh/smPBZ8Pp+4dzJWvvrqq6NiRdpH2z/55JOjbOY5OYjEOAlfZHxQ6oUDTYxl2m4YhshO5z3nMbbJ+uXSls0duTeyDbVVHlAeUB44mzzQLsiu5GKO+Y19+n+rnhwYbS98CugJAqgza3r9ujhMntwXdkcRvvqiEElxl+L113KxZFYvPHzPDfDYs4QEhqFnCgjp2j81KKWhW/DBe5mYUtgTAa0IAWeOyAam3Mmp2uVqTMKCWV2RMuF6LJl9K+6cMwALZt2MsoIbMaTvxVg8vTf2fFkKw5UFQ4tphvlBmEuwyizY0FXCVcI6CV5Dz7cc09KCWc4hWbTyXGtbAf+09JY6Q8tIMBjaJs/L47Qp4ApCNWami5hphuw+T5IAkO66fLz199545oHLAbMSPkeSkGEhYG8wg6Bd7Dfby4x31hnaN+6zTXmMGdrifjhTAbmGQFR5r2Rf+Pmo65vrC/Vpox4HV30UvHoWZpRejsfv7YGAJz+Y4W3PEhrbot/O4GSWsu7wrbA/7N7R7gZzgoilgJEOkQ1tz8Lrfx2Opx7uJrLDWQ9jWNYn+yq3tJVvSASc1LSn7ni2yExntvejK7ph5OCfY0HVYCye2QtL5/fA0tl9sWzR9dixbZyIMac7Ebq7HHcu7IJhvX6Oe+7sivvvHoqM2EuQHnUp9nxVLN6wOLw/G+njf4b1b0fh609KsfiOm/DcI93FoJBPL8D2NaPx0KLfCekXDo4EAXsKoAcHTgKuRBCyv/tWFsYO/AWKU7rgqT/0xtt/s+CJ+0ciK+5XiLz9Yqx/IwNuVwq8rtHw2AqxcHZPxI28HnfNGYZ7FnTF0rndsWxhN9w1tw9efK43NK8FSxbejKTIqzGvegTuXNBTrAvn34wF87rj5af6iPjy0z/mEX39E0F2+pZ67G53Krb8Kw815dfDdE3C159PRfLYq7DmjSTcM30UHlvaB14tGaYeB8Oeg0+35cKsSxODI41GDnasG4fpFd1gGjniHirIrkB7R/7/VJBdgfV/ww+ys+8hZXZ0dmaKkG/JLHgbc5fuwrYPg9Dw3/FHCgE/wfPJZMB7vU1Yt1EXNtLWrJy2wTCzuzkZqQTh8kuEAJ3gnTA8dOJTZoITYjO7W2aA8xpmfbMOyqpIyM5yoVrozFanP1nv8eD/zk2loLSLBOasj/ItBPnSNm7ZNuuihExoexwcIMwPL0vbBEBv1pnntaG2yfIE7SwrteNZP/tKvXlZ5lzbng7IHgp05T4BNaGiXE4GHO/fv19AcIJXQlTKZfAY97lSQoOwlICUCwH+119/LeAor9m7d68A2CwrPxNyEohyIaDdvHmz2PJ8awvt3LBhg2hLTjpptVqxZcuWFihPiEqJnM8++6xlEIF1EfISnsuBBQJ+lqHdtIkL+8S6WCePhQJots3lZHzFNjiIIethfwgjaAPrDZeL4bFw/3EAg/3gNVwIeQmA5X2jbfS//CwKneAf6V+pxc/6Cc0JqWkvbWAZfpZwmQMOEsSzarbFaySID78fsvlwXzMmOMjANuW9Z91sU36WscDPHAw4dOiQOM8yBOIS4Ms25JZ+JRDndXKRAyUyFuVxbmV8sD3GAK9jHzdt2iTuET/zOH1dX18vLuWxE8VvR+9NqH1qX3lAeUB54GzxQLsgO4CWiU+fOoHWOmH8U2ri0/b9rj39kJ3Qk1CSYNNjLUegfiJs+7JRVdEJS+7qhzpHDdZvzEF6yo34rq4ab76WiYXTrwUcC2FqQ7FuQzLSYn+L3VsTAYcFAVsBdn9UgrzES7D+tQkwnWPR4I5Doyeof822BGgN0VmWQDd8SymMxQv6orL0WviMUjR6JkO3FsCtl+Gzj8ejLPknyE+/DIfqCuA2MuBzpMDrzEajOx0eYyR4vcc2WWTQ+o1i+J3p8BujYdZlwFWbjoCRiUajHG5rgciqFVnjrmwhz+LXJ6DJEwu3NRnu+iK468vgd2SiwVkg5EN43FNXIrThCbSpTW9aY9Bo5grgKUCwM08Aca91MkxbIuDOBmU4OIhBGBzQYoW2N+U87M5UOG3UL8+Cx5oFgnXdiINRPwZ+axkeXzEcVWVXAuYCwJYDONMFzGZ2u24fj4A7G65ai6ibmuAeZ5KQFvHoqUK+hJnOlDFxW/MFSPU6csVbBvBkC21uAZwdFvjt+XDZxwl5ErGLARQAACAASURBVNQyNhIF2EZdDnzOPPj1UiFb0uDKgs+Wh4BrcHBwxZ6OgBYldMQp7TOjqAseXT4QttpENHnzENAK0KRVijKNRjRgZAjJF+qWM8u9wR8D3ToBPi1H3ENqmxM2My5NRw6afDkw7bFo8mTCWTtByLw0GNPx0IpbMbWoE7zOYngc0YAvDaaNeulx8Orx0K0pMOoLYNpK4dMig1rmzZBdQHc9TmSYP7JiECbEXwXNwbcFsmG4k+DWikVWulu3IGDmwjST8M93UjD01l9j+6YEuPQEuOzF0GwVKEr9NeZO6iWyxf/ywu24f9EwmI5pMF1ZqN1XgORR/ysm9XQeLMXMwktg+6ZQwH4xSNE86ECwzvjgGxoffZqD4f0vxd0Le8KonwyfoxQeM11AdWbv37PgaozvfzV2fzYNph4jpG44ADWltAsM2x2irSZzEuwHc+F1lsJlLRJ9v3PezZhe2UnEVKNuQejqcWSI2KXkT8Ac0/Kchj+X8nPAFocmTzqs9UnQbNNQU94Xjz/YG6bbgo3rMlCQMgq2uhr880ULFpV2hruOkjFZWP9OBrJSL8U3O+PhqmN8ZeLArjSkJlyNt1+dCsORId6mEXBfDEI0v63RyiCQtKV927OPkbXv/43zr58KsivIfs5CxI58CRAUH9wagd0bI7Bi0f8gK/kG3DY0B4NGLMekmu0Cap/pP1SYyU7QPm/hS8c0RbD+19UO5FfuEDbRNtr4h2U/wNpV/4XwCU074ouTuZYZ5ATVoWA+/DpKzIQfC//MephBLzPSw8/LzydbjuUJ+WlXW3WGlj1RP6QNZ/v2dED21jTZCX8JnGUmeVvgmKCT4LO1zGAGPqEx6yNsPNklHDQTojJT/kQL7STIl2BeliWglqBVZirLDHyW4TFCU8LX0EWCbNrNPhIEs67QhW2xTbbNpS1fsQyBbHg9oXWG9/14/iPMltCbgJuDAuxLe5Zw/xIcM0OfGf9yCbdLHg/dsm8SeLd2P47n69A6wvdD2w33d3jZ8M+8d4xx3ksux7uP8rrW4qO1foT2U14bug21uaP3JrReta88oDygPHC2eKC9kB3eg1izshIWSyWWvbYLWvh/a34Nu15bhkqLBZXL1+DgkZfeTotrxG+rc/pvyzMH2ZmR6jFGw9hfjnll/bBgemfYHNnQ3BlwOCahavLVKM3qh6TIi7B1XQa0unRsWZOL2DE/w/vvJ4B61dCyxISFLtskfLC2GPlxP8S61zJgWlPhssa1ZFG3B7I36KXwOvLRoBeKLfWjD34RjzG3/xYvPpcOQx8s6qemtnXvZDy5/DYsmnIT5k66Gmv+milALXWohWyJmQrHnho880BXzCq5AQsndcOrzw2EdqAUja4CofHt0eJQv8eCV5+IwbyyPphX2QlvvjgaWl0MCJj/+UoXfLIxFtaDSQJom84MaPXReHJFb1gPjYdenyEmaK3/JgXPLB+MhZWdMaf0Wmx4Y5QAv5SIabJNht9egNdfHoKNmyPx8ReZePCBWzGlojMevHc8vvo8AzBz8fqLnVBWcBliojrh/gduwxefxwng6rGXYN3qJKxc0B2zS2/D8pl9sX1djOgrZT+sB1Lw1L398eTysXhyZT8B6p+6JxJPrugL+6FsITNiagmo35+DFx6/DTUTO2PRnE742yspcPoqhT6/R48SgxGOPRPx5P1dUFN6A+ZP7IpXnh0A88A0+K0WNNqLAVekAOicGNTjKMAdxV3w6Iph2PtNNh66qxNmlFyLhxb1xb5Py4Uet2GPF+D9g3dSce/cgZhV1g33zrod29akCp1wAY7tZajdm42nHrkMsyb+BkuqOuNvz/eFXlsIj20iXnl2DCYV9kHi6O7440O9sWdnEnxaFszaMnzwjwosnToYsyquxYp51+LD9TlC75vtUmqHMSgm2NQSBLh++N5BiEm+DHp9EZocBXC7cuFxTQD11KnBzoEL3ZaEspKrMGP6rfDaKdUyUgBxpz0OH6xJw7AeP8Hezyvw/JMD8ejSRJh6MUzdAseBmYgbfBEajKlYObcf1v5tqJDVCWbWp6BJQnYtWQBnSjEtmH8dsjMuxoFvS4XmOu2lNj81001rJvTaKmQmXIU7Z98sbODAxsJZN2Fq2WUwbOnw6ENEXFJKhvroXiNFDCTdPX8Eppf3hNfJNxmSAL15NZKE3j0ncuUgD2WfjhoAaBVwVwj9/fqDZagqHYBFs66Ew54Epz0bTmcOJpZcjJL065Azthc+3pAgdOA3vZeCzKib8cG6oAa8GKyypYjJUN9fl4eM2BvxzptJCDSMa5FBCmb7p53ymzBtg/fzDz6f7fzkZO1XkP2c/iGkHtyTfRDCyzGLWfskAsCRtWlvhADYVaWXCeA+MvolPPF8EJrJCU4JR7jI7an+Yud1odeyXmq05xU+Jqr6ek9AQH7C/nGRMaAthOq0TdpKu1uTZQnvI0EyM9F5nFngcnJRwvLQspReCT8Wel7tn53P2ZmA7AxSCVjlH8gnA46Z5c0sZkrIELJKQM/6WoOU4c8VATevZRY94S6zk/lZQmPWSbB5oqU1O2X7Eka3BlH5vIa2Jdsg0CW4Zr3SJ6HQmeXkcZaRbZ1IWkeWD69HtsltuD3H8x99zH6xPOvlIAAz7eknaXNovSfaD/evtFP2qzW76B9mefOeyax6DraEQvZwX4T3rTWb2ooFZpBTYoZ1c7+1jHRZbzhUD4fuspzcthYf9EF4P8Ih+4ls7ui9kbaprfKA8oDywNnkAfkboj02++0f4/n5JbBYLCiZtRJPr3oLm7duxlurnsbKWcHjPGcpW4zVX7U1Q+qpWaAg+6lDeMI7IbNhpMK2twALK7tiWdVYuJw5MPRxcGnj4Tez4DxUiB0bIvHt1xmorS3Fu/+KRmbCZfhoXZXIIuekj0Ij3DlBwDTdNg2b385FScJV2LA6RoBxgnyuJw/Zc7F4wa2oLL0eQo9cY4ZrhgCRYmJGowjzZt2MwpxrhZa0aU3Hga9LkBv/f3HnlO7YuTEBb/1tDCZn3YjF0/oiYEwS8NtVl4Ws0Rdh2Yx+2Lo2BZveScCs8k64e9bPBKRtNDNRvzcPZUkXojzpErz6RCpefSoWedE/wLKZVwoN+Jr8Tnjs7i7QDhcJCG0603D4m3iMueUHOPQtM4tzUfdNPixRlwjYv33DCKxZNR6VKb/FstnXweNMEHrUHnseZpZ3Q0Fmd1iyuuPFPw3DH58fhPEjLkZpdi8E6ubhmXtvQnrMdYga3xXz53XHzu1R8LksePXZwciN+X947qFb8c+X8jF/YmfEDYnAZ1ss8JsFqD+YgpULu2JxdW8snnUN7qkZjazRXZAedQE0Rz40RxZ2fzYF6dEXozTrevzlzwPwxKMDkRh5GcqLroNTmxjMiK8vQUrUT4Rkz5Z1KXj/7XjMLr0RS6uuFNro1EoHJ6zUYoQci1srFPraZUlRKMv9JV56Zhz+8lwsMib8AnmJv4WpF8LhiMNLTw5ERtT/wdP3jsW7r2Ri0cQBiB8agc93ZCDgzYX1UAayIi8Vfdi6Lg4b3orHvIndxWfDnow/3HMLivJ6IHrYTbh3wVX4/IMUMcnnX5/qirwJF+GFR0bjjb9EYeG0zhjd8yJ8uCFFZPwHjBihxw4py+NKxaP33o645O6w7ZuB73aU4M1XxuCTzQlwO8vh4gSpnDRUL8Xwgb/GS3+JFBOL+szx8JmJcLnGwqifiJE3X4J3/56B73aXIGbED/HZhwkwbDPw4JLuuG/eMHy5zYJFU26A31oB0z6hRZJIwmBKpPD58HmKED3mp/jDY93h8RTBa7BsrJh81avHitjhQMZzT4/E+GEXwcUBHWeuAO7TyzrDa58m3gbQ7AWwOwvg0AphteVBr83EolmDMKWkD5q0mfDVl7asfFvCbeeAUULwjQ9rnoDsBO3SvvBtwB4N/VARZpb2x/yqW6FrRTA4qakrF6aRiPrv0rFrZyz2flWOQ7VF+NeaDKRFdseGtxPFmwHBtyQyEXCkw+eME8/w5g1xSE++AK+/nndEC74VTfhwW9r3+exkCIr9tH3fFGRXkP0ooKoemuBDw0z27W9GAA0RwKEIoDYCcDZ/JnivjcDT90cI0M2JTTlhqVwnTXuiZcLTdet2ntKvc0J1AvVQPXZmrbNuyqOMj7YIsC5soz20hTZyn3Y2RAi7R42fccL7KvXUOZjAe87scSG/0mWGkG3hMWZ+MyOexynHomKj7S/Us8lHZwqyM+AJEblyaQ0ytgYjCTQJ26nhTfBKAMtjBMqtZZjLB4vgleUJTAluWTczvUOz7MMhsLw2dNuandL+tiA7z7Pd0CUUsnOffQiH4+EwujUbQn11vHpC2w0H0cfzXyhkl9cTONOPhML0Kes6mSXcv+H9Yh2hdvG+8v7SJ7SD/SJo5j1rC7K35mtp48nEAsvSPvqaMcqBBdmmrCd0S7v4JgV9w3LyrYbQMnI/9F7JY63d01DIfrI2t/feSDvUVnlAeUB54GzyQEcgu+ineRDbV61EdYlFwHYB1S0WWEqqsfLlzdj14StYXHb6QbuC7B2D7B+tzUTqkGuwbc0kMaFiQM8HpSMIwDz2YUEpE2cuNqxNQVriNVj7XqGQIGG2rOlOEPIccI+H14yGoedCsxdhVuUVmFvaVwDKtiB7OHwP6GGQnRIrIWujmYS/vZKEIX0vRMAoR8AxGQvuuFloUev2ZPh9Fjhsaag7aEHqiCuwbX0i/J44fLopE2Nu/hm02lz4zCywLKVBavdnwmPEI2AW4K6abphV2guu+oli4k6XPQt13+bguy84sWU+qvKvwTMPDIbfWS3kYxqNDBzabcHIWy7A/q8KYTiTcE/VYCyr6QXDngVqcdvrE+A8NA9pMf+Fze9kImDGw6fn446JN2JGxa2wH65Ag5YvIOzuTdMwuM/PYNuTJyQ9HrxvGKZaroHfdidgKwGsxdj39Sgc3pcjpGY8+hToWgmqi2/BH+4aB4ctVtjgc2fAdKXBMNOweW0WRvX9v1j/Rilc7nQY/mGYX30jJubeBGd9GXRHPIy6Eli/nYiskb/Gc6uGoslTKvw1aOBlsNbmwOPKFBndHkcRnIfjhfyOkOFxxKHRGSukZyivckfZTZhW3BPW+gLoXgusega2bSrG4Fv/G/v3J0Mzc/DNl6NR/10hDPt0+F2VsNflY3LhFXhk2Ug46/Pw+bZC3NY5AvbaEriNEphaNgxHNb7bUwy/Kw8e52Tc/8AAVJZ1DsaXoxBeZyG++iwSdXWZ0J1l8HjSYDgm4o7Szrh/yc3iOmq7c0JeQnYhleRKxWMrbsdtA29BccavUW3phIqcTojqcyVKMq7AV7uyIN5s+LYAvW+6Ats/TQJ13Jk1z4lM/b5EuKxTkB97I55+6FZh57q38lFdeSmKMv4Xjy7ri0NfzcD0oktwYE8qjNoKeOwVQsuceua0QUBiZ7Z4i+LgwVTc3utibNmeLjLCKZnjrk1EwJkHrxEloDsnUd2wYQKG9PkVtO9yxOS482YNRvyom7C8ZjgenjMM8+fdKNYF82/C6tdS4bUXYcmdPTF+xC+wvGoo7lzSV6wLF/XGojv74O2/9hRa7AEtOCErJ7Klhr38+zr8+aQG//b1Y5Ay8gpsXJsHoVmvlcBjpsK05wlJGvrH7S3DP95NQnrSz/H+uhx4PbkI2PLRZIwRUk4+nYMLo8X8ApTeqarsiWmzeqlMdsVJW2JPxuDJbhVkV8HT7uA52SA7G8sRUj95X+cgxCa8Dl+bATczyDt1L23Ra3/g4TeFjvsnn+4GJyBlFjohPMH5yQJ3AnZex+tDF2bOU7qmBaxbW7ELEcLutiA74Tkn9ZSyMqGQXU70GTp56LmsTX42xufpsPlMQXYCTIJIwnIuhIwSUst4DoeRhK6hC8ErJVgIILmeSC6mNYjJa0Kzy8MhcGhbcp/1tAbz/91yMW35ioD2dMvF0Afh94ATn8qBEumj423D/dsWZG/tPOsOhc+t3VfGTWvSPNKu1q4Jj4XwflKO5UTgXg5scPCB8SE142WbodvwuOa51mxqq59t2Xwq9ybUPrWvPKA8oDxwtnigw5BddrTRRP3e3dj1+S7s3lsP88gUGzC/Wn3aQbuC7B2D7F57Ad5eNRZZ434n5C+owU0N8gYjB25nDNzWVGx5OwG5sb/FuneSYXqL8P5b6Zg79RLcf9dwHN5bKCQ2XEYM9PoS3FXTQ0B2+4Ep8HuaJ9psRXYiHN4ROorsekL2+QNQWXIjGrRKIWfRRAiuxQYze215eOsfaRhy64/gr5sB1+FijBgQge2by+DTK+Ezc+A2s2E9OAX3LxiMFfO6wrBmi6z85OE/EhOnbt8cjbr6SJj+dNQ6xotMYmqwj73119j0dqmQPiFg92gx8GqUMsmGW68Q2teP3TtAaEwHtDQh+bH/k2z07fcrAdld9kIMGvJ/8eEnM6E5cqDZyuByZ8PmnIR7lnbBkln9BGT1GPmYVnYzHn1wqAD+lANpcueidncO+ve4ALbdpQjYi/HgfUNQUnmD0NqGLQ9eLQ8BZxk+2hKNZ5/pgxdXdcPer2Zg0eRo3Dd/NBy2eBjOKKFlbzcSsO/bEqSN/Q2evm8oDGsFND0Gdkc2Rg+KEIDUZS8VMiqmfRRMZyUeWjEOUysGIeCsQP23aYgddhXunNEbOzfkwH6oUAwOeN3jxESW1J8XoJiZ4XoyPEYBqstvxGP3DgcnxuX9bbSm4ZuvM9G/5++x7+sU2FxFAijv2ByPpx8fjFWv9sT+PRWYPb03li+5Dc56CxwHpyL69h/hzumDsG1tJBzWZDhdpXD6osE3ANjmIw+MxbTKnmjUJ4lJdl2u0bA58rH5g2w88egYvPHiWBz4ohT3zB+PJXO7C/81umMALUdkantsaWjw5GPD28mYX/N77N9dCQ8z+I187NudgLSYX6CqvJvQKq/9Jg239foVtmwvEhDZYy1FwJ0ppFio+Z+cfTWeXDFU6PRzUMBVXwXdngqPXoQ/PjwQf//jBBz4cjKeWHkLVi7qha3rqDNfIeRgGo1xYCa7z0jCvr3p6N/1d9i0NQa6kQlK9vjscQKym/qgoFa9mYgtWxLRr8fPUP91qphnoGbOAEwYeQ3uqhkk3tK4c05X3Dmvu5js9PVXM0DN9cULeyN6xBW4a8ptmL+kj1jnLu4Nru/8eQCgUypmPKib36QliIEIMUksJ4ptXsWzaaQKLXuXIw9r3piAtJhfYcvmbDg1TsbKjPgUNPhGCX3199ekIzf+51j7j3wx2PPu26NxR1VvLFsxCLWHksQz5OKEqPWTsWjqENSU3wj9ENtrHoBo1mWX3xPty1pv7bvx3ErgOx184lypQ0F2BdkVZG8lBsoq7hBZ4/BEAK3BbEJ3Z4SQaRk8vAL2oNqD/EnfsiVYp6Y64TvBeWiGekuhVuRlCOkJ70MnPqX++oKpF5wY/DsjhN3z5k054X3lBKDMUOeWX2ZSLoaTgnKSUx7jJKgiu71rDZ5+vKilPmqcn8wXIDPhwycjlW2dbB0n044q077/oM8EZCfApCY7s4OZlc6FwJBZ0RJOMiOXk5ayDM8RuEpNdu6zDpaV2cP8TKhM6RXCdy6cTJMgn5+pl836mbHNsqyDE1sSxhJ6cgmHwOJg2D+EobSJE36eaOJTwnvaHbqET8ZJu05m4lP2a+3atQLEsr62fMUy7DsnPpUTnbK/hBHsI/vPOth32iD7wXYIiOl7LlIvXk58ymztL7/8skX3ntcxm11CDrZJnxI4t7aE+5c28Xr6VC60Sw580E7K0zAO5ESobIOwm3VxaQ1O8zhtZsa71Elnnxg//NxWLDAeaJeMFdrBfrU2uCLt5pbzBXDiXNov7Q09L/fbA9nbsrmte8Pnjf7g/WZ/OPcAfct7QN/wOWIZtSgPKA8oD5xNHpD//5xpm0NB+yufHT23SnvaVpC9NZB04mMSZDFblpnmlJ1499UklKZchk3vjoLPSaCaJs5tWJ2JorjfYusaTvhYiG/3xCB9bDesfjEFd1UPx8qFfWC6MqDb07F81kAB2Ov3VQjpEsOec1zZCQnPCO8kwBNZ7+GQvRnyMcOWq89qwdKFQ5CRcBUatULY9lQIMJ084SqUZ/wKBQmXID/pImREX4ik4RdjZsXvYdotYpLS7e+nYfrUq9Cr5w8x5PafY/qs6/HVnqliElT7t6UY0uO3OLi/QGTlc8JQIe/iSIHHngWXEYTsj66UkD0FcKTg4OfR6HvrT7H/i0oc3F2Ovj2vR/yEXyMv7noUxF2OwuRLkZtwKTKiL8XM0iBkd7uCkP3+R4YKrXdO9tkaZH9oZShkD+qLP7F8GDKjrsczTw3AS6tuxNJFv0RB/PUCslIjPjipaDpq67Mwu/palGdeDvv+suBEqPZ8HP4uH0N6XIj9+3JF9nUjr3GPFZnvr68eg6S4X8BrKwNleDZuicTUSYMw4JYLMXrQhVgws5OAwaaRE8zI1tOExnkQsuejuuJ6AdnNEMi+96tM3HrL73Ho61RY9WI8vqIXMsZfg2efGoq/vtwNKxZdiozEX+LOub3BTHlOAPrh5jTMm9wbkb0uRtxtP8G8mV3w7Xe5Iks64EzGH+4djWkl3cRErY2uNLi0NDy0fAjGR/03HnzoNqx+bhQeWHQFkmOux6LZXeByWBCE7MH5AzyUSHENF4NJAWcOfNYMNDpyAEeugOVvvBmH/t0vgnN/GcxDVRja/xK88rdoeF0JoKyQSx8Hv4dzEuRj6Ngf440XI9HkyoXbyIJuywXh8aE9GZiacw0O7ZmGvKQf4pUXRmDzhhgUZP8Q773OyXpL4bMliIEaPmvMwB875Df44x8Hw3RVwktWYE8R4JkSNRzU8BuFeOnF8Rg1/EL4azPBiWznLr4FZcXXwK1NFZPoumz5or8+VzH8Zgl8tmm4e8EQVFV2g5iM1xkE7257GjjYwEE0YYeWHvSBHg/o8aAcEFfOI8BVvpFiEv7zbQytBO+9GYPs5Evw/rt82yBDTFjLN1refzcOOfE/EtJRbOfAt9HIie+JVa8kYt6sgVi64Ea4nFlCbmfJzIGoKr8c+uFKuK3BtwzYFu8rV/k9oSB7+9jD+cRsFGRvBbCeTwGg+tr6lwTlVH546ZKgZAwlWcIz2eXnhggx2SizzAnBw7PPQ3+g37tylZB9CT0m9wnjKTMTuhC0E8xnFrwt6qZUTP0XEYB+HHsQ1IyPuGAFNr2Xe0IQnpo5+SjITuhNSZilS8qENjvjQkrK/O6GagHcWSdldHrcWgNeTwjfWvwQ1DMbvlvvalRMrGwpw/oKiieL63mOWfQqQ771+GvNr6f72OmA7GvWrEH4GgrUGc8EfwSnhJQEygSphOihsJpa14TmGzdubCnDDGO5sA7CVeq2sz3ZBo9zYX08xnM7d+4UWfQS6PJ8OASW9YZuJdTllpBa1sW65dIaROU52sFybJvX0U4JweW13LJuWYb2sgwBL4/LetryFcsRqPK69evXi5VQVQ4oEK4SXm/YsKEFtvJYqP9oQ2i/eJ4gWdrGe8U3EXicCyFt6GCAOBjyT7h/ed2JIDsvpb20m33gfec+r2FdXOT9kDaENHeUr6mvzr7Jcm3FAuNq165dLb6jH+nPEy2E1fRNW9CntfhorR+hmexs90Q2s19t3ZvQASkF2U90J9U55QHlgbPFA219357OfrSA9pL5eOnjjoF2BdlPDNRbg1MSXBFuE+BRK9qoL8KqJ9KxaNpVMOoL4HUlCTC9cl4PrPt7Dji5qMMehV1bilCZdROsB/Ow9u+FmDO5M6gDvX1TDEqT+8BVO0NAe4+eKHTaW2ufx6QNctsC2/V8LJ5/GypLOqHBOQlNjiyxNlgzAD0Xhz4rx5ihP8Ufn40UOu3OfdMx7Laf4pNP5sCwlomMZM06UWRmu/U86IerQejL/nBSSoenAHuseXj7/QlIzftvZKZciwYe/3YShvf+BT7cEQOfewI8eiq8eiJ8jhS4bZRfqcS08q5ogezOZMCWjMNfTEC//j+DdV8VbPun4raBl2DnzlJo9XeIzHOPtRweazECWhE4cSsBIrXVp5X0wH0PDxFvDFCnmpNOHv46G7d2/wnqdpcImY+HVwxGccX1AuYSAFsPJmBwv99g7fpIuFwl0I04GM4SoYV+z+yBMOkrf7TIEn76kXGIHna5yNI27JyQMwYerQLWw8WI7P8bfLgjWgyMELIHzDECsj/55C0oLrpM3HdXfRq0xmjYPNOw31qKDWvzUZjaDblJP4Vhnwy/mSaypCktwnvILPBWIfsXGejb83ew7cvG/rocDOl7Mf61fjBcriIxWatxqBozJnbH3Qv6wajPD9brIXTOgbO2FO+vtqA8YxAyJ1wHrzNTgNcnHogUkJ0Z9wT89QcyMLLvJdiwqRx6YzFou8eeg2lTbgIzu6kXHxBZ2pkiZphx7XeNBMxSkdluHJqABnsSAtYEkWH+/uY84ee6bwrgOlQJS3ZnLF3SDw2ebHH/OCmqz8jGVztT0ef2COzblYdGRx7cZhwC3uHw1FVhesHP8e0nRfj7nwbhvvm3QbdXQtPLsWF9MqpKrxU68pRkItDmxKOa04IZ07sgL/N3sNfOgtuag4Cd9qaLAS9OWtromIfCjJtQNbOz0C4PaAVgJvuUyp6ifhfrc8eKjHS/k+B/AgJ6Eu65s794C8NXXw4YKcG1mcc16dFotKejyW5Boy0XMJKa1+ZysrzRDL0J311RaNLiRDy/+GQqaipugWHNFc+7y5GCFUsuwwfvZcJZVwy9Pgc7No1BTuzNsDln4LVXc1AzsQ+M2pnYuWUIChK74dA3VWIeAK81ODktvwvkxKfy++F43yOnfvz74wCnmyuo+o6+lwqyK8jeAkHVw3Hk4WAG9q9vWAJmqQu9c2a0S7AeumWWuycIt7OSb0CX3ncf93c/s9J/eVmZAO0E6OHL9Ej3ggAAIABJREFUvIUvCWmZ0ONzl+7CBT++UcjEiMlNpUZ8qA3cb864J5Sn3W3dy3DILuViKCEj5WIkZGc2O7XbCdtpv8xuv7bLjKO02ukzWS/LsC45ASsB/hWdqsUxcX2XGS37LKMy24/EXlv37nSd7yhkD43Tc2G/NRh6LvTrdPSBgwjMhudgyPm4sN8ceDlf+38+3nPVZ+UB5YHv1wP/TsjOnpqfv4LFkyqx7PXdR0nKnKoXFGTvGGQPeMbCtGaKDGJONLloUm+h0S2yVfV8Acmoaa7VpcPnToP9UDHuKOqB4oROyB7bFe+sHgePPg1b1qZhbuVgIaNh2DIFcPOYY9vMZJcQrTXI7tMnCfhHAAitCHVfxqAq/yqkJVyKffstQj6EkicFOTfi7rtug9s+Fx5fNDQtD5qzGLqeApeeAF2LFHa5naUCfOu2bHicU/HlrjL07/YTHP52hJhkdVrBTVixuA8MrQCmEYSmzGhnlq7LDEL2++7pDYc9BcyoJmT/dkcaet58IfZ/UwzDWYTcot9g2V3dxESfrrrJoBY4PEnw1BOoZgkNakraTCvqjpUPDUajkSMyhVuD7I8sD0J2Q8sXeuK1B+PRt/9/4YvPZ0DXMoQOtt+TjcVV3bFy3gAh5+IxC/HRVguG9Pkx3ng9DXZ9ArzedLjNTOhalvDNlJJrsXDOVfC6JolM9IBrPDS9EplJv8BjD0bC6x4jsqatHGDwTgCzkTlI8N2X0RjR/SJY900T/qT2tsh41pNF2zXl1+PxFcPFoAazn/32NOxthuz1+7JxoDYHvftF4IvPS+DSk4T0ja9+FhbX9Me9iwaKTHa9zgIHZWPsSXCZw0Ht/72fz8KIWy5C/e5K+J2peOze0ZhS0BmUbmH81O/PwcDOF+CTb8ZD82eJLGnq7S+cNxR3zesh+tIC2Y1UMRjh0TKx/b0MbNs4AaarHJqRAt0VCY+rFCuWjkFS7MXBzHpnCv7yp3RMGPNz7PsqSwB7U7fAtFdjQdW1yCm9Bj5HKZqc+fB5xor7u/r5AfjzH/pBP1SAF/4wGI/dNxCGJwY2ZyX27E1GQfKF8JnJ8BmDASNWQHabLQs7d1bitl4/xhMPD4KjtkCAe06ySikevztXyM8M6/EbbNhWKOC8gOwLrsOUyVeLARQO4DTYUuA7HA8QyltT4LGOx9LZfVFV0gV+Wxb87hQ0mCkIuIIZ6h5HDPyc8JSQ3Rl7QsguwLeDCX+c9DYGsKfh/a0JqCq6SUgycWJWyk9xQM7vyhHSMpyslrr6FQW/Q0VeHyRFXom1a2+Hbi3Ahx9EYUZFFxjW2eINAcrj8H4yg11B9n8/pzhdvOP7qkdBdgXZ2wSy31dwft/tEgwzK3zO9BFBiRY5uWg44OakqMx2RwSK84eIzHPC8fCsdk5qylVKx3CfZbiVC7PZOcnp13sC+Otqh4D2uzc213+89pnZ3tw27Q2VdjmeDyUMl3Ix1j3puK5bEIzL7PNQyP6ba6YgO382Xv3zJMyaVdECyAnOv/k4U8TQHdUVR4F0wnNmuzMDntcTrjMTnvVS753tENQTxrPO49mqjp+Z/9gUZJdPXXCrIPvR/gj9xExrZlOfbwsHF7hSA52Z9txXi/KA8oDygPLAmffAvxuys0d+w8TRU5ifej8VZD91yM7sTwm1fc4ENLgTQBkISsLMLukGr30KAt5EAThNZwpM10h4zNECnLtdKQLofbQlGXu/zIeuF0B3pWPHliRMLeiBRqNcaEwHjBgEtBQBzQjOjpdxKiG73OreHCyc3RMp46/HI8vH4ZGVt+OBe/ti1rROiBx8IYpTrsEnH6fD40uH5kyDZiRh/b+yMG7o/+CPj8XBai2GQyvEP14fgNL8/4a9PhOGMwE7NkYiN/4ivLPagtra6aivr8b9y29DaewlCOjZcGvj8PnWbAzt+Ss8vHw4Pv+0CB/tyMfsin5YubQ7XK5JuG9FD8SP+i3WvDMee/en4LXVQ5Gffhn63/wDHNhnEWB/26YUjBl0CZ555BaYtmIE7FOx6R/xKEv6BbQD5SJD3tRTMXPyjXjinsECsPocSWKi0wOf5mBYpwjUfl0I58FMvPjsUMTFXoQvPpmGXdsniMlXizN+i0WzBsN6eLrIYv96RyGSR/4M98zqLeBxnT0PCdEXIzO+O/62Kk3Y+ObfUvHaqsFweqKgeWOweWMhIof9BPfePRJf7M7Hhk3ZqKrsgfiobjh4MBloyMKHm0chN/6HWP9GDvTayWL9wz19UZ72S3gd5fC4E4VWfYMrXgwSeB35qMq7Do/eM0BownOQhvI1h/eWYuCNESBk56S4FRmXY3FNZzgPVYlM9j3bJyFh1A9x95zuIht6y9pYlGZchvffTRLyRPb9E/HQ0khYUn8Fs65AZHX/6bEJSBlzMb7cZsHuHQTehZic0wPLFnaBw1YDTc/Ajq0xSIn8Fe6e1Re6ldJHMWjyRonMbq+eA9OVhSce7olhPS/EA8t7Y+3aWOGXlYtGYGCPCPz95QTY7Bkw9Gw4HJWwpP8cGbE/xnv/jMSG97KwqKY/xg+6Ah+vHSEmQ+WkqgHHRHy7swgzLBfD7UgAdf537MxHZuIP8e2e6bBaZ+PhJQPwh+W9xSSqASMuOEihce6C4N+eL/xpIEYM/H+YUtQFb/xzOHZ+OAavvTISU4qvx+09f4TVT1vEZMTwDhNvPyyr6oSZliuFlA3nCZBwWm59tjzcU9UbNZZrhbxSuAwLvweOfj6P/htYPpehZbjP6wj1t76dipmlfeBxZcOnlQmZG2rM+1x8oyJW9NPtjYJmn4TNm9Pw5dcZMAwLnPZs8dZIleVW+PUqEUPM6hffE8167KIPrczncLzvkpM7fnT/pN/V9uz3i4LsCrK3fJGqB/roB5rZ1ZRGIbheuahfEKQfT6qF4J3nnEH5GGa1Eyyv26jD6206CqTzJzuz1ikfQ5kYZp+HgnZmw1OPfVxkDNau+q9gu+FgX35mBjsihH20s9/gqlZ10MPv7SlB9i4z0HfQpKPihAMQhOaE7E8/XoFGR0oLMKcNEryzXWbGE6TfMvCOo+oIPUfATw33cDvV56Nj8nT6Q0H2o/94VpD9aH+oT0HJGsrkUFJGyvEovygPKA8oDygPnHkPfB+Q/XT0SkH24wPsE0EnCdkpJ+Ez4uA1Y7D9X0mYW94Zfvt8AS4bXJOFVAmzfk1HDkxbKUwzCi4jCnZrKjRbRRCya0XY9n4O7ijuC5+jWGTJ+vUJ7YLsNmccXnhyJOZOHoRpxTfgjtLOmFHRDSsW3oz3/jEG9sMWGFoM/P4JMJxJQckULR+fbC/AHeXXYezA/8WYAT9Eddl1WPdWAvy+YpGBT0mRV14YhpK0yzGu//8gcuAPUFPcFV9+zEkYM4IThrpS8dmOPMyZ1F9Mghoz7ELMr74ee3anwV4/EXWHyjBnci+M6nMxYof9Gsvm98MXnxShZvJl2L8vDqaZArc7GZ9+moKask4Y1/fHiB4YgSk5v8f7r2cFfamnwjSS8dSDvfDmn0cIYOrXKBeTAeNgHuZW/Aa2b3PBLOW6gxUozr0cYwb8HM/dNxJ6fSy++cSC2RO7IWfCLzGzaACeWjEGf3kiCn95th/cRhEOfJeDKSVX4o7yXphY+lNMLfk9JubegOqya/Dd7hJoxngwE/vDD4owMe86DL3lQsSPuhx3zu6F/XtLRMY7ddG1QyV44/lElCZeifF9/xcxAy/AnJJe+HwbJ/VMhtc1VkzGSXjNrPUmLR3PreiFd/46SsB3Su6YWgIO7SnA4qk9cWhPGhhPez7NwLzKTsgbfyVmFN6A51eOxEt/SMTLT90uBglczgz87aXbUZzUFaN7RyBp2I9RVXIFvvokH1ptgohV+8FKVGT+GhP6/xRP3cdMdQu++TQHNaXXIWXkzzF70o146r4BeOnxkVj9wigxUWlATxC67H4tHgKyO1Pgc1bjrZdTMNVyDcbe+r+Iuf1iTC++EpveSRDyN5R/od6735uM2gOJuH9+NGKG/gLD+/4IEwuvwQfvZ6LRXgi/IxPQOalqMVa/0BWfbkyDy5kAzknQ5C/HK3/uicL0XyE99v9gUfXl0Osq4Ncr4ddjWyYWlX9vUvv/i4/LsGhGD2TEXIRhN/8K2TFX466ZvfDVjimgVI1HjwzqpWu5eO2ZgXhmRffgwJaWJuC3BOncUnd99bND8MIDt8Bnp2Z/EJCHwvNQgC7tkNvQcvL7JByyzyrvIt5eCE4QnCMG45i9Tv95jTS49Rw4OcmpNhMOI0O8NWBqpXj/vWTMrugDl70YvD8Ssgt7JGhXkF2xmpNkxwqyn6Sj5MOttmcO+v0n+pYZ15deM+fojPbjSbYQfFM+pjmrnYCccjOjI+ccIyOTV/iYgOz8QU/pmEEjluOJ5/fh7gcOiolLRfY6AfqJ2mI7DREi056AnXa2pcUufXyqkD1cO11mvhO0M4Od7QoZmK41R0nIsD1Cd54jZGfGOstzXbSwXMjQMJud50/WdtkHte3Ys6gg++n4c1rVoTygPKA8oDygPKA8cLo9oCB7x37jnbnfyO2D6BKIHW8r4ZnQ1KbOsjsRW96OQ96Y67Cwoj/mlt2M+RW9cefkvtj+Tim8jko4bSNA6Rj7oVI8vmwwZpXfgtnlAzG7ohdKMq7A9NKb0eQoETrXjXqc2B6v/daOC3inZ6JRnwSvvQQeLU5MPiokKGxF8FMCQ0uA3xEHaok32ouDk2HqSfBoMXBb88XEldTq9tgrhDZ8wMwXOts+PQM+LQemPQ9eWzUa7DVg9jWoo+1IF/IvPucIeLVUIY8Csxxe60Shje4zEsQkk5ygkpOgeu1FYnJQ2kidcHd9ibjGpUULuQzTEx3M9nbmI+AsEfVwQlK2zzq4chJZ1iNkOrQEBDQOSqQJmwjY2Q6zg013DPxmFryH09BoSxJ6203aFJHpTrkUDpIwI1q3JcDrLBaDIJQX4SSi1MVvMHLQZBYIwEoNcL+1QgBNtzMaHpsFrvqJCJgFoH692zFFZN8zA91jxAdXSsE4KwQg9xopApoGPMlCr5464RwgCDizxH3xWYtF9rZWnwzKnFAH3tTjxICNxxUppEpMZxooM0P9daO2Aj4tCjym12fA58wLXmckwuOYAcNG/2YLyR/K/ngcGQLse9zxcGkpwcxpPVG0yUEgTmLKe8KMcvNQMZjFzUEfxkZAyxBQm+3xeKM7eJ8bzDSh/e+uoy1Z8Nvz4XFEi/402koRsBUIkC4mAXUWibgh1Pc4k4TMEt/WaDRz4alLEYNKflsG/Fbe5xSYNs5LEAPTHgsEqsWgQ4MxXQxCUKefev/i+XNS1z5Z7HscaUK6iQNbHsaXfRIaXBPFNbotTgxgMU44WOA3RsNdlwt3XT6oM8/65HMtM9lNK+PbAnddNsQbE7T3JN4wae35lMfEc9qcyb7t7Sxkj78MCyf2wNyJ/XFH2Q2YM/1ybFlbAcOVBdM7SkgvOWon4dG7k1A98feYWfFb1JTchIkZ/VFdfAUCOmWHYgFngphMuMmZctw3X6QN7d/+p37PK7s6+n+oguwKsqsRqTZigFnbErRnZ6YEJx8l4D6efIvMMm+IAHXUD26NQFXpZeDkqATplJJhpnpM4l1in2Cd2ezMfmc5Mbkp6yewl3WFbtkuIkQ52kPAfsGlM05pEtFTguxda46Z5JSZ68zyZ4Y6ZV8oCyMhOyc+lV9MfBuAk5zyHMsy811A9RBNdnkdBzTkdWp75v9zU5D9dCMBVZ/ygPKA8oDygPKA8sDp8ICC7Gf+d2D7fmufWchOuEeA6HPGoH73FGx/L17Im2x5Kw3b3snAyw/lI3f8pdjxrxyR8e12TMLdMwZhVnlvbN0Qi/XvRGL921HYvD4BO7enHIHsWsIpQ3aCM9ojQKUtAwFnfBCAa7FodMSj0ZqPgD0ahHBNjoyWSVE5caPPliSuI1yk/jYz6QloCYBd1gQEzHj43KOE3nOjMw1+O4FkMuBKQsCRKlZOvEit9YAzUUBWZmcHtChAy4MYNHBmiMkk6a9GPQbwjoTPHi0mqAxYiwSgDxjpAoiadguo505JDa8jF259hACvErI3+JJA6N3kKBD+b3SNEXYHPKNBeB0wMmG6RiPgjgInRqUOtr9uJGAkgPAX7kxQ6ocZwMykbjSz4XaOR8CMFcDVz4k8tVj4HQlBPXhnJuDIR5MWg0ZtLPzaaPgc4wAzVWin+9lvIyYI9x1pQd1ucwIC5gR49XgBdRvNOPiNSLjqJ8BvpzxKoYD+HKRoMkaJCTEbzSQ0mEniOo8xEl4jSlzfYEaCbbAvfluR0HgX98SeIaRVgtCbk9P+f/beP7qKKs33nj/ff94/7r3vO+bOveuuNe/MnVmzaN5ZcyOjIA0ZAoQAIQQSE2htpb3NtA2XHsfFSL/Y2jSihhYhrYzIyJWGVkk3DRlaQVuiomlBgi3QyAQHAX8EUCAIQiNNt993PfXjnKo6dc5JwklInXyy1lmVc6pq197P/uyqvb/7qWfX6vKFW/XFpfGeyD/Jsasz6fDZTKcezTYW4ufLL77mhCexRUIvd/2D66ne9fe6fOZm/eHizY7XtnGtyw2OR/cfLNTRZxN16dTf68uLX9Nvz05y6s/Y0YVv6Q9nZjmLgOrzW9OMfTZTfzhf4Y6XP5+uL85U67dn6vTb09Zmap3y6/Ov69KnN7u2ODfdmTAxIdomhC6fr9DvP/t7ZzLERO6Lp03w/3tHpL98+lshkd3uD3/4fKocPh3+ZzjhX7445ca3//25O2QfE/bNllYHVj77mPBun6DIbv8bH1cuTHY+Jswb34UU2U8d+5/a03q79rxyi3a9eot2vvl1/XTDeM26+S/V/tZMff7ZPzmLED/03WG655s3adf2r+utV6ZoV+tktb86S795Y45jC5vs0tkGRPY8GlnvniED9dlW2HwhsgMPwmY3GDCvaxOITdA2kbj5X/4fNzxMPrHdBHHzRr/khpGxmO0PzP8/de7AH+nXL7riuwnrqbjrll62RVY9cd3E/acf+4ojWlt+bEHS5Y8u6FE9dkdk39zsCucmjkfjvFtol7/6H2mRPRi/PSiymxjve7JbPHbzgP+3X9/ufCykjH23jy28SriYwt7c8z34ENkLIQOQBhbAAlgAC2ABLFBoCyCy92+fMF+fMb2/b0R23xPUFeVcod2Js3zO9cg1T1zz8jWh+s3nb9WdN/8Htb92qyOwL5z7p/rsk39w47RfvFWXLt7qCKO/P3+rEzYklWaOWOz+9cNbExUbHCFZ5+v15bmb9aV5+Tqfma7waaLn2RmeINfgHGPHOh8718aYnweO/ezrsnyZMGlhTZz0Lfazd44zyWBexJ/d4oqPQS/a87dI9gmGrPB/+9y8bd1r2fWcdE2wd0TNepmgax8nPvXnDakwHb4YKseL2fJk4TtMfHbDeFiID7O7ifVmR0cQtTx99jX340xEfM0RX22/lc0+JvTax8phkwN2nn0sj2kbmi3DXsJWfvOm9j+WppNOytvZ3e/bybGH2eDsLc7iml+evUV/6Pqac12brLBr+9d38++m7SyQapMFVq/OtsH53y27V35bkNOzg28n29pip/7H8dz3wqKkbWd5dCcc/Ov45XHKf85988G3p2sby1eak1S5/PoN1LkzqROxm1vn7kRNOl03TSddv+68SSy/3Ma0s3CoLR563uPV0UW8dn7+61Lwk8qHe3+yuvTLZlufG7f+wzHZLV9u/foe7jPSInwq3d7dX9y0XWYtD7+7eIvzcd4cOHuLdv6yTt+Y9N/U/tq3tGT+V50QPvY2jC24ah9rG3aeM2Fyzsps8dgtNr19epen7p03UO/z5Mu5n3ZDI8x2HCL7VRgvm1H5vTgbphOHfOhC/R8ljY7YPmXqbP3rT/6vdIgYE9OzeZ/7YWS8GOpO/Hb/f19YtwVUgx7r9r+dZ+naMZ/8kXM9u66J65YPi/tuMdF7ylx3RHYTw01gt48tYhq8hoWPsd/NC93+f+fN21Oe7FFB3o/Jbh7tUSHdBHYT24Mx3IPX4f++a0uI7IWWBEgPC2ABLIAFsAAWKIQFENn7rv93dX3rvhSc3EUPfQE1LRa6QrsJvhc/q5S+uFNvbpup+rH/Qd+d+6f69ON/0Ofnb9NnZ8xT2xXYbRsW2V3BtXvCl1/GsMjuCJMxIrsrenriu4mWQZHdEbyDQrIrVvuCY1DEd9I3EdQRmr0wGkEx1RdcbesLf/5v/nVSW/OGNtHTQrSkRXZfVPRFSX9rIruVwxdJ/W1aZPfqxvJz1hPZPYHdjrXjnGMjIntQ5HbFXr98vjjrC67puvdFW5eDtIDv28x+TzNstnAFdn12q0xkd4R2m6TwBP6gyO6cazby68gRlz2B2QlnYwK7L7K7McXtus6kx2eud7b9bwK+Ce0mujvX8Rbf9EX6XCK75d23uyuwu3Vt/2fUq1+/fn1n26bq3RXa0zb07epvXfu7kzv1bkgUs0HBRfawwG5vdATL7P/vb1Plzla+PL/76fjcmshuEyROaJ7zs5wwSq9vnqkZY/5Ci+4aoq7j/+iE1/Hry5kIcyaJbnNCPzl8ILIH2lmwzfF/+v6T3RaI7IjsNKAeMGAe26PH3eMIzL7YbnHXbWFUxxvd9zb3hXP7bkK5L6D726iYbr/bcXZ8UHz/7I+cdC19u44vrpvAbfnobYiVXCL7/5w9O8XErG/er//7v/0vR0A3sdwEdH/RUyfMy9CFjid6LpHd8mhvAViezavd0jBvd4vLbm8F2O+Wn+7csDgm+828p7ZBZC+EDEAaWAALYAEsgAWwQKEtgMheuP5eT/uHuY/3Bej+2/oCmm2/+OSbTizn35/7ptp31OuzU3c5Arst8Hnpwh2OyO57U5u4mvZG9f/vSb59z3DzZjfvcNcT27VPNJ1IffnH+1tfLA1u/X2Ot7yXvv9bVFQMnhf3v39ed7fRNLzrBW1t//uxtFNbP1/mye6J7LHH+QtFett0uq7I6wroabHZTz/9uy8GR8XaqJ08kd28j52PW8++uJ/aOl7UVp7I+ee9797Wv76fH2drtvJY8tPzRXd/m7184fKm21aUn8j3aP3k+x4pl1+OdL6iIrtXbl8DsfKHPt5bE0Evdud/73f/et750eul7BfJdzQ/KXE98GZE6jeftW5so+k6Ez72FoJN+vx2ki5/5q5B0P5GtU6dnKrzn1Xry4t3OhNalneHi/PuWxduXVt77s09I1KPefMeuW/49cE28boQIjsQJx7i9AOrf25U5n1tC3iayGzisS+2W9x28zI3QdwWPbWQMI5n+vmAN7qJ73Ef81Y3gf3EHznn2fmWjqXnx4O361hoGLuuXT/qFd4TO4ybdI8jcJtQb+dZuBZLNyp42+83jv5H53fb5wjr3nH23V8Q1URz+x78LZgfO845NyYNCyNj1wkez/99zzIie6ElAdLDAlgAC2ABLIAFCmEBRPa+7wf2rq/dUxHp6o9PCWgWk/zs11IxqE1UP//bCn12doYufv4NXfptfSpcie/FnhbKeiOYIbKnxFJfNPdFQ0T2lHe778nuchoW1dPiszdpkNKd8rSLiDidET4mut8Xvb1t+rq+uO5v/cmL4hfZHaH93Cz9/jOLue++DXPlwp26/PksXfniDv32tNnC7ILI3rtnwUB9Rg2MfCGyp252A6NCgDw59WDhVMwb28KgmLhsYrgvuNvWRGXzPrfFSb9/z3hHNLdY6hbP3f/YdxPTbb8dZ8fbecF0LF1L365j17PrXi0n5k1uafkiuQn2Jtzbb8GY6nYd22fe63//7btlgnhtw3zn2F2v3ZHKh3my27n2Cf4ezKcdY9ew0DMm8lt60dAyweP5v2/bAiJ7IWQA0sACWAALYAEsgAWwgGsBp29V1GPLPOKgL8L2wTYltvteyTHXsHARweN64xUbPifaF89X/r4+Pt/1/f3pfLiCq2uXcNn8YzO3QRva/7nOc4/1ReTcx+ZKp3/3pe0THm8Wip9o+gPNLtH8+d8HWj57lp8ot+nvLp+p8DDn3LBAjsDu3K/96/iTcWYP/7e+3Pp2Zxtuh8m3ByJ7UXeEkg9oEhqcebabWG0hT2wxUAuBYh7nvujuC+YW6iXXx46zj53ne6xbeham5Z+bbnfCsiTBHuQxGe0OkR1JAAtgASyABbAAFsAChbMAInvfCVJpwSy7YNydY3omnkX79PnK19fH57u+vz+dD0R23ybBbdo+4XErInvP2kfQptf+/2j7T3/3J4HS9e62C/+7n3dE9nB78O3Dtqd2QWRHZE95I/cUHo7PvOFY2JMtG/9eSxv/lyOOWzgWR3j/f+91PNT9kCr+1g+/Yls7zo43Ud3Ot3RMwMfOmXbGJldvE0T2wg2qSQkLYAEsgAWwABbAAojsvlh1bbYmqiVZJExu3vONS6iX5NZt8usuLKi7rKa92O37tSpjvnbD/qRqPojsiOyIuH3EgAnkFiLFFkv1Fwx9cMm8VFgWC51i3y0Ui4VosePseIR1Hij98UBBZEcMwAJYAAtgASyABbBA4SyAyH6txCque+2EQrN9vrEb9XNt62ew23+g8pkvX+zPf28ZmDZCZM/7UBiYFZdU4Mg3PMHAwGDg3Me1+v2Vzwo3siQlLIAFsAAWwAJYAAsMYgtY36q4+7mDXayj/IjFMAADhWJgYGgCxf3MujY2RmRHZC/yzuC1aVjcrLD7QGfg8+N1OtP5I135HUL7INYDKDoWwAJYAAtgASxwlRb48ssruvDZq7K+1UDv/11d/golLpEOQiUMwMBgZwC95OqeRwPXfojsiOxF3hkcuI2vWG8qlCsZzH3xab1OH52mD96t1vv7qvTv70zmgw1gAAZgAAZgAAZgoAcMWB/K+lLWp7K+VXH3gwe7KEb5EYZhAAYKxUAyNIPifqb1TR0gsiOyF3lnsG8aDjcb7Jp0Bn7f1eCe/Fg+AAAgAElEQVQMBs3rymKI8sEGMAADMAADMAADMNBzBqwvZQK79a2S3j8k/4xxYAAGYAAGYKD3DCCyI7LTGYQBGBikDHz52Qz94WyDMyi0gSEfbAADMAADMAADMAADPWPA+lLWp0KUwAYwAAMwAAMwMLgZQGQfpOIaDX9wN3zqn/qHARiAARiAARiAARiAARiAARiAARiAARiAgcIwgMiOyI7XBQzAAAzAAAzAAAzAAAzAAAzAAAzAAAzAAAzAAAzAQC8ZQGTvpeGY5SnMLA92xI4wAAMwAAMwAAMwAAMwAAMwAAMwAAMwAAMwAANJZgCRHZGdGSoYgAEYgAEYgAEYgAEYgAEYgAEYgAEYgAEYgAEYgIFeMoDI3kvDJXlmhbwzMwgDMAADMAADMAADMAADMAADMAADMAADMAADMAADhWEAkR2RnRkqGIABGIABGIABGIABGIABGIABGIABGIABGIABGICBXjKAyN5LwzHLU5hZHuyIHWEABmAABmAABmAABmAABmAABmAABmAABmAABpLMACI7IjszVN1hoKtB5w9O0+5XqtX24hRn23GwXpe7uAEm+QZI3uEXBmAABmAABmAABmAABmAABmAABmAABmDgahlAZO+OwMoxg1eI76pXR3O5Zo0ZptrZZVq+YpxWOp+xWjh7uMrG3KTG5mk6j9g+eBnh/kDdwwAMwAAMwAAMwAAMwAAMwAAMwAAMwMCgZgCRnQYwqBtAzlmqzhqtuX2YZt43UR2dWWb0Oqep5b4RKru9QvuyHQNjMAYDMAADMAADMAADMAADMAADMAADMAADMAADRcsAIjtwFy3cOQX0fPV+skbLa4ar8eW6btnn9Mvlqq0Zq30ns4jx+a7H/m7Z+arqFBtjYxiAARiAARiAARiAARiAARiAARiAARiAgT5gAJG9D4yKEJh0oblBbYuGaV5zbY9uOp3No1T7ULUuZ2Hq85036f4FXwl/tlb36Bo+W1feLddTW6t1Jcu1/OOudvvh1q9kXufjSm1YW6nP81y7a884vXcsDwuBtPqrTFdrE87PU6d5uMB+2A8GYAAGYAAGYAAGYAAGYAAGYAAGYKDYGEBkRxDqlchbbA0hVJ63K1R7a6U6o2x0Nahzt7fw6e7azEVPu6ar+dab1Hww/kZpIvuGnd3zjA/lJ5qPfvxuIvsPF/+tWt9tSHMSEMZz5dPO3ZHFFqnzuplW6vh+LDvXjOcYu2AXGIABGIABGIABGIABGIABGIABGIABGAgzgMiOaJcWT7GFY4uOJ27Uwi31YbucnObGZ58/Ti2bJ2rlfDcOe0ckPMzll8tV9cS08LmeXbOL7HXav/Ymtb5cpp80mqf7/9CGV6fqyrmbdfDZ4Xo74A1+Zf8YPfXSVOlgue73veBPTdVb667XDxd8RT9cNlJvvecJ4nbMxnHOvo0x4n7XnvT1ftIyWV0x9e8I5b+uVutjI3XwY+/mERLGG3S8daQeX/wV3b/4em1stXzPUNBr351YiD9OwbS6U6aYPHJTD9/UsQf2gAEYgAEYgAEYgAEYgAEYgAEYgAEYgIH+ZQCRHdEuVhAevA2xVi13jNK2o+GG2PH48IzwMU54mKU14fAwRydr3h0TM73gI8JzKmyMI5SbyP432rhjmi4Zj59M1kuLy/XhuRlKieoOpw060uKJ7gFB+vNfj9fBY66wfuXYBG3435WuYG7HPDZG7x0Pl8Wp27NTtf+Nal06O0M6e7OO/GKYWt/NPM73Rr9ysFxrf+KlGxTGj0/WW+3T3bA1Z6br7bU3af+Hbjr+uc71sh0XTKs7ZaK90l5hAAZgAAZgAAZgAAZgAAZgAAZgAAZgAAYGGAOI7AOsQgavuJ0p8F4bW9RoeelY7QtxUaOVI8dqd1ckj6emqHHkuIxjM893z8vnyb7f9xQ/Z6K7K7Lr3FT96rExOnJmhnRykv71XyakBXTfk/2TaTrYOk6/emm8Dh6erNYF3rkB0TrOlp/vn6BfvTROv3qjSh++ER/KJiiUH3/5b/WTHdMV8j4/d7M+bR/vpPNW+zS994t0iJjgucp2XBaRXdnKFKqXSH2wjwcsDMAADMAADMAADMAADPQLA5cP1ahlRZm+VX+DhpeWqtQ+I2/QzNllWtlco85T9NXjxmD8BhcwAAMwULwMILLTCeuXTlhybiIDTWSfoa43hutf229ObR1bpgT0m/XeT/9WL7wxWUf2V+m9N0brqe6I7O+N01NrynVwf5WO7J+kHWv+JjZefFgon679a/9WO3aOTy18emnPaD21cYLes3R+PUEvPBYvsmc9LlZkz1Em2ivtFQZgAAZgAAZgAAZgAAauHQOdNVo/d7hq545VS1utzkfE9MudtdrXPFbzaoZr3uoanY86KlF3167usD22hwEYgIE+ZQCRHcD6FLDkiOv+TFqdts0doebf+N9t26B9S2PCxTw7SlXRcDG/qdTMuZN1Ooar3nmy+x7sI7XR92i3tFMi+3S9/eRNetsL0WLe7i90Q2S/srdMq35R5YanOWfx0m/shsg+Q/qwUhsb/0Y/XFupz8/NUNeOG7XhjekuQ2dv1sGNaZH9+It/kwpBk/W4WJE9R5li7Jo8xoJs8T/1BwMwAAMwAAMwAAMwkAwGLu+u0Kz6MWp5O7J+VVwfvateHc1jNPP2CkXXsaK+k1Hf1BP1BAMwAAM9YwCRPa5DwG+DWnjvXH+TZq2vDdsgtfDpWK1cMU7Lsyx8Gnuux1NwMdDMmOw3KT5cjDVoi8X+Fa2yBU99NlMi+wxdeW+8Ni77G2fB1J+0jNaGbojsOjdd77UM1wpvsdSXftpNkf3cDJlXui+yK7Do6op/KdMLa9Mi+5WOcVq7+CtasbVaV7IdFyuy5yiTX362aRawBbaAARiAARiAARiAARjoYwYut43TzPqx2ncyU3C49O407X5lmjpj9tl5s24dF3teamzTx3nnOpl1hk2wSWIYODld25aOVu0YLyzVmOGav3SyjsTcb/qmTDVaP3OEZqY+5Wr1nRy5d/HsjTCAyB4xSN80Sm7gibLrh5M1f1KFOqKvNnY1qHP3FLWsn6i23bW6nLF/mtZMGq1tvbjhXvnkZnfxUHjkJg0DMAADMAADMAADMAADMDCQGDhZo+X1ZZnCUme1VtbfoFkLXEekxtk3aOaK6owQMee3lGlm9A3ggVQ+8kJ7g4GByUBXrVrmjtAPmqfptB+a6lSd+5bM3InqjGoyfVSPlz+s13nv07Emximzj66bKB0NGzhtCJEdEAbmzfSa1ouFh7lR85rremQb6zzW0nnskc14aDABBwMwAAMwAAMwAAMwAAMDm4GOJ0Zo4ZZoiBg3zObytoZA/79BHY/fFDOOqlfr/BFa8/bALiccUj8wMMAYaBur4Qun6HKGPtSgtoXXa3nbNcivOWX6iz33cjtzrRdyN6Nc16A85CHwDLt6+yOyA1RBgSqah9KHVVo4plxt3X0F6eQUNY6J8e6AL/iCARiAARiAARiAARiAARhIKgOnqtVYE/OW76GJ+taiGPHr1BQ1zqzUkWh5d1eo9oHqGLHs6kWNohmDRm3Gd+4bg5yB082jYibt3HtGrn19e0+o17Z/vFFrdvfm3mXnRtcA7E06nNO3ddx7+yKyD/Kb1kAFcyDk6/TGUap9qDsdwQbtfmi45m3smef7QCgjeej9zRPbYTsYgAEYgAEYgAEYgIGiZ6BtrGqfmJYpdu4cp+FLazJ/P1ej5aVjtS9jnD1Na2rGal8/hXco+nrJsC9tkTovPgZyCem59vU1C5dfKVdZbyYNzQs+bhKS9hzzLEkmz4jswFw0MBf8RurE/xqmxpeDr0BmNvTLO8aqth/jgRW8nLQB2gAMwAAMwAAMwAAMwAAMwEAMA0fWjtDyHZljIHVW6Qd3VOpIVDT/TaVmza/S+Zi0dj+EBydjuRiWYljBTtjJGOh44saYUFWubSxcb1XcBGB/8NRl6/GVqbWzZ/V0fvNoESqmZzZL2r0Akb0/GiDXSG6H9fBkzRszSi2HstwIDk109m87nGU/dZ/cuqfuklV3H03Tiy1TdfI0bTFpHRHyC7MwAAMw0FMG6nX49em6QF8lWX2VhNbXvqWlWeMedzaP0syFE9Xxocvw+d0T9YP67GOnXGlxH+jpfYDjYabYGXDXcmj+TZZy/qZSM7NM6PUHGzYBMH9zdK2KLHl17v9emBnWpijqZzcie0I7O/1x0+Aa7g3ysr0ieWfMytXm6X7ncIUX+8l1U03vO/3KBC28/QYNdxbKGKba74zVtr25PeYHVH04Xv7XqzT4imhXvfatL9OsMaUqLS1V2a3lannbf+jUqeVO93fb5+yv+aoWrq7W6aj3S2ybbNDuB74q5wFr9fF44JXVzmotrylNx2prG+uk71/H34YWsj04RcvnevYfM1zzH8+Tj6467X58tGr9stV8VY3N09MxJTunqWXRTRo/Ml220P7YMqV5uNZ1e2F/tVpWj1Pj/eVacv9YPbm+Sgfe7yaPHdV6qrX22j4oP5qm7c9P09mzA8emParT47Xas2mCnnzY7F+uZU0T1NI6XRci5blycIrW2jFLJunwp70o60Coq0BbuPBmpZY8H8dOrbbfX6m9jmdIg44+P1bPvHlzHsbq1bFxkjqO98IuXp7OvjlBy56friuBPGarx4+fL9eGN/37W++vGUr/bL2OvjQxxUHjI/EchM7pRl4HxfGdU7Vh7dR+FhzrtXdtuZY8OkUnI23VbH7ypfFakuK4d4wYZ9sP9u7cntf7zdqzqlwb34q/91t5GjdN61b76NG1r0nd5bDpyRptXFKuxlVTdbYv29fVlvvoVG14OSZM4cEq5zlizxL/s2zVZO2NPNOvfDBNbesrtGKJe9yKlRO1/a26cP12M60e1Xdf2pS08zwnc3Cfx3b5hHFnXDN7uMrGDNe3FkzQ7hzOR3nTah6lUgspk7EuloWgGaWWHGmnWDxapR/cV6XTecrlHh9Mt0G7lw7Tt5rj+ia9t18qX93KT3euY3kuVek/To55W8BEPBuPeOF6TlVr+ZivZncYK1ieupPv5B9j4Un8sWVwGxpn9odNbT2EMWO1+5TZtE6t941R69Hk2zejrVholUkx60H4Nna8yUdrmzfJl3G+f1xfbQ9Watatlersbvp+ebp7PMf12XOtL1lBZAfcRILbl40iLm3HS2NpTVpUPdegfUtHaF6PO2EN2rdihMrqx2rbbzyBpqtBna+M06yRw7VmZ/zgNi5P1+w3R2C/QTPrbwyI7Fau4ap9YIo6nYf9DF3+zWQtf8K3mSuyh1b//nC6tj1kthgX05GOdBJswaU77AHmie2+6GACe/0IzYyK7HdOzN6xtkVqRw5X44u1umwC/6latT0wXLUr/LxGru28pjZcw+dWprx0Lh+aosaa671X1+rUuuAmLd88Xee9CYPLh6rUOOl6rdyZmdY1q7fYe12DPt5WoWUrq3TgqMfe2Qad3V+ltUvGq62jGzzaIDxWKO2vsjfoyslu5DO2/P2VxxzX+WiqNiwZr+ffrNOFM95xJ+u092fj1bhuamDioF4H1o3Xax0zpBhBr1tcXfO6CtuheyJ7+Jzs5TTB0xfmu3tO748rvMjeoI+fH6+Vm6bprMfBleN12rtxglreKrCYP1DbwtXk62oFy15d2xXZVz46Xi/uj9yDzkzXi03jtTJRIvsMXXpropbEictna7Xdngnv9b7NZG2716Tuspfj7OsT1Ph8jQ4800fl9Vm7ynKfeq1SbXFio93nIxNOF96ZrCeXTNZR/95ysEpPLpmg1/bfrCve8+TKR9P12upyPfl8bVpo70ZaWevVLyfbohhnZQ0X04v6zRcuxhcxa0PjLmuzQTE8ext2mDw8UfNyjQVC+e5BuqHz8uShT4+1PN+oqkk3qdkfE/nXM9Fv0o2q8kV2/3e2BWmLDp9BJ7MBYVcbZ3dzAmpA5Le7bcf0luFpR7osebc6ybxfdPcaV3tczxZAvabhbbLYj+f41TKQeT4iO7AV5IFT/I0zLKpniu6ZjSvOJuYVXzVprHZneGfM0OUP00LK5b0T1eh7uo+5KeQ1bR4g89ZM1nrzxHYe8m7ncP3mCZo34frU65znd1Zq4a3D0l7lAU95p4Pw0ES1LrpJZV4nNNc1g2U5vblM85trZTZIebJ3VmlhrlnmczEiu9P2bNHYG+MXU3L2T1fzzLAHvO81sHxHg/Y9/lXnTQLHJs2eR5d5sufoWNvDLcPz4+QU/aA0W0w1e02tVI2vhOu4c/1N6RhwEW98R2SvGaWBHkboysEqrXy0SkdjQqwEhesr70/Vi76n+8MT9OKbrrebI5KmvOWq9LF3P73UMVUtq8a6XtlRDzrHW7fS9Z5bMk4bXpquA1vC3poXDkzRxibv/KaJajuQbhvONbdMVcemCVrmCAlBr+cZ0uk67d00wfPOG6u1m6bqlF++49PVts712Dcv4Rffyu0d/bvT6ev6bSDuN39fz7eu5+iGWC/tBnU8V661r1serYxpr8TUpMantdrTPEHLbF+gXiwfUTt9Yl7jqTS8usplq0g9rd1UExD8w22h5+V2z++uyB4UtB0WfbaaJmqXMxEUtk/KwzxYviXjwiw4Nq3UrreqteERl79ofoIcNj5SGeIwmKfelj98nk2ilOv5dyJibWBCJZo/nQtPLFientk2NcB4OM92vbPvVDnlNRZWrJuiowHPf6dMr9Zol7URmzgzEfD+Sdr15mTvDYpxatl1sy51uDazt16eeTXg+Xr2Zh1+Pty2029juO00aG/Lj6UVbOu73vPKH/Hqj+Y1yIGzryPiyZ6z7gvDr2v/cm1/farWPlOjS4H+pInVa1+fGngjw67ZoFNmy0c8z+HVEe/iYJvz2vPhoCd7sEz3R+5tgWuHuephWW1yIEZMv7J/ctqzO289T9BrbYF7+Kop+ti/B5+bobx114P7WsFDpZytU9ujrrhuZV7Wkn6zxeq0MfDdsfMHU7XWeZMh8hyy+ohMauYrd677TWad1mnP2ik6GVfvMcK4+wwZqzabpPXqePvByL3G0rLyN5WnJ43ypRV3fX4runHVl5/NkLItfOrXd1eDzn9Y7346Y9jyjzuXf+FTf4zSMndYJA5zRAw/OT3wFukwzVo0UUdsfBV6ozUtPJ7eUaH5Ne64aPiEUVqzw38TJJxuaEyR7Rqp8oTvse+8MUEfHqzOYMB+e6dtQsbvmW07nF72/W6em9eXh9/uNcegx4ercX2l5qVE9nD5nPGePz6sGa31OzP7uv51OzeXa9aE61Vaer3G316u1lT41AYdaQ7vawmMM82G31oxUWu8t4bLbq3Qvg9rtc3GnaWlGl4/Rq3eJKFT3wsnOHVp+0oj416fh+CYVbnq5Wh16rrDJ9ykxs2FfSvByU8OkT0bZxaHe3h0kUxnQsTz0g6WaeQNaZ4d1tw6DI31bSLJqWPblx4rpzzqc6bn1Z/zhra9UT9B+3LEFe8/roP8N+jI2lEq6866d946evPWBt4yz9JGfbYLub38cnns2w2+ZhHe3qg1hIop4L0wyMzA+R+RvR8bYCEbM2ldg0bkeXB/6ztf1fju3PBj2Nq34vpuLHRRp21Lx2n3Ia+Teti8otOeCtZxGV4/NuDBZA/X6zXzoSnp0CtvV6i2pjx1jON5XZ8WfZ0OwpjRag6Ec8l1zTjeQp2MHWNVumiKTu+ckOrAOuFiUh2ubCL7DMliqY0cp30x9nKva97rZe5rYLsrNG99Zmcp1CG2zvUd49Ty+Cg3fIvTUZmsTk8IP71xlJPXy6Hr1arljuzxJi/vrtC3Zo/TbhuU2psHbZX6wex0B9HNp1tGe5COv31cyvZxthsov328rVxPveYPMrK1qXodeL5KRz/yeOycphcfnaA9H3jHR4QEHZ6iJ5sm67DXWbtisdJXVuqA993xElw3VSe9cCeXLATKkrTIfqWjSk82TUp51l85WqPnm8yD272+IzQ+PFF7DvuDuLC4ceGtqrR33tl6dWwa7wnVJlqP13afyTM36/BLU2PDPFj9vPvWRB3eW6VLn6aF+Euf3Kx/f6fK2VeQOnREzMk67Huwh5icIR2o0pInpuqU83tYUHXFkPF68R1vcGTlaanQhl3u90w7ZYo+2W01Q5faJ2nllmm6ZCKvvd3wzhTtifOajOa5B9+dPKaE/8AkgvNb2is9LWibAFapPf5bFyfrtKd1miduRuxzzkTrsVr7cm2qDB+/PEHL1tV4IUVcYf6pLdNSYXlCIvaZWu3aMlUnvQnRS4ertSHgCZrOU7Z20/PfbdLrqSVjtba5SnveqtWpyGRsKH8xTFieGlen2+qlw+5bEr63q9XpsmDbe2+qNqys0scef875K6tSbdcV2cfreQshYRwcrnbyt/G1OtemH5gIX6WjzkSAta+x2uDvO9ugk69V6qltvldspr3de0W6ratzmtpenu7U55WOam1/07uOpfVqZVrg9ETCFPufmsd/hRpT3rv56r7ndRPf3l1PdhMrDzwTuCees8mziTpwMnJv2lWpZaun6GOfKSf8U/Z744X9U/TMw+l7Y672Gp+/3pXTwsKsfCn4XLDy+WFkulfPa7dNd9/IONugo1vGa6Uf1iRf3Tkibw/vaz245+S108Gq9GSCk1erR8+O0e9eSKD0RGj6nuVcJ/hszFfuPPebjHxnCxVjtogRxkOe7LY/9VzJZORs2wQt8cMC5UurkLYnrQErOjgiu71RWhMTssEJpzhK4ydYmJixWrlirBbOHq7xJmK/EryPeKztrlBtVGiM1H1qfPFhlRaG1sUKi8WnN4/Vyle8t1K76tS66EbN8scIUU/2UzVa/1AgbvzbEzRvZLkXaiOcbnBMkfMakXxbOzUxcsuGUSGh3QR2+832ZbTlmDS6d4yX50M2aeGXw97O9erJ1gyLFdltocZRav6N14f+cJqaV8cvUGtOSWW3mzju1t35tyu1prnWeavbxlKhfW0VmjUmPc50xqr+uV31al0YGLt21TsOVt961h3POfVdM0Ytu73+7OHg28IzlDlmnaHs9WKOUTdq+cteWva28uOV6og4Q3XPxpn3RzvPyU9A1PYFVEfczsWZ1c3IcFiTjsd9Zuu0be4wzXqixn0r2kKwPnGTyuZO9t7Mjhnrp0R2y2fUkz1Pem9XqOrOSh3x3j4/v7tS61/wbBbDZP9x7dncJkpmD1PtwvT4PW+dddVq28LhKptdod3FGDYnpl7y2oRzCnjPjb8fZKsDRHbgu2bwZYNyQP9+skbLZ8fFCexOw3NF2NQMcx72zLPdvEIspIl1VvxQK8HOn2urcOfQvOV2P3C9Gl/2RUg3bzbL6q++nerARvKQ7ZpxdRJMw/m/ZoQWpjoHDep8sVy1I8vU6nTOcojsoU5CjB2tUzLfjTnY8cSozNciz7n2Sdn14ETNnz1Wbb6X1qnp2jb/xrT3gC1m64SL8Tr/p2q1e8VXVTYybePY8r5SoXnjPE+BmqA3R2aerbMyr763nGSmF5efq//NFYhSXr8RFqLpm2f7pZMNjthmYlwqTnBQSDjXoKMt5XrRF7K9NK/sneyJLHXa80SF9kQ6P+n0GnR4U6Y375V3JqUG/ZlCY1jIcvJ92s3rJRMPU/lzRfYX306/Hh8tY/B7+2sV2rG1PCW0+wL7a1vLZfuCx/b6f8vb/ek3ADLScUR4f39YRHY8S30hxK+7MzYB4no3ZtopaIsAY7G28kR2C10S8EDNyJ9/3V5uY/PopBWuU+PD5dQV2Xe9V58KcZDOU9g+OjpVTz1RrVMBT3CbmNiV4i98DUsnIz9nPY6ccETh9NN5Ctiyl3ZIl8Gd0Dh1sEZ7Nrmx2Zf972p97E1IZeQvxpM92p5PvVahxm02kDXhN7Pt2f6WdvdZkVGmEH9WTrOZz6P/3RMWzaM3Q7iz9j5JHU7+o/aOb+shW5zx7G8MWl48Ed3uJykR0Ld5YH/+ui9Unbn3ULsXOvc4X5h+b4qedDyeg2V273273g9f+9SrFd5EZ757o3delvYasptvk95urS4DE0qO7f3vPa5nb7LQCymWr+56dV/rbTkzznOfX8GY9Dbh4Irorv1D350QOr4IH6xrr65Szx6Xj5zMWl5y3G+i9Zs1VIyl4zxXwpOWKwJvTTj3kdSEVJhH5zp2vr8/mtaScXqqJ2u2ZNg45nocU5j+RB/a0RHZndCJI8Ke5V7IxuV++MVgHkzcfGiEZi6tToVStLd/WuePyOvFGRxfhNfFio53ZkgnPe95EwvNycb3MI6K7Ja3lLe9PfOComQ43YxxVrZrBMsb+D8oSPaNwG7tKJ1nC+XjL7xo3tLORENobJU+VvYmwaRRWr+7zg2ZGch3+D5jbxKP0Pq9cW02ft+RNSNSjmRRG1qdpsZpvlDt1VWwvv08OJ7BnsAct985LrZeXJG98QVv8iVr+eLK1b3fsubHv1ZWzuwtA19UNx5rtNwX3c3hbOYEHQlOBnRN1/qZI9z1yAL17dtIoToO8uw5sOVKzxHZJ6jDd1rx855j2z9cu3VgNp65OrD+Wo58pezhHdOx2sL5xkzw9SCNaJp5v5+c5kYYcNakG6u2yDhX+fb3Zd5I+5o8YxHZAe+agJf3ZlWk9dItT3abif3HYRo+YYRmzhyhmfVlmn9nWgCOdlyCHS3Xrq6g7c+sh7bZOjR5rhlXX6FOhnmy3zExsuiH6x3uiv05RPasnuzT1fJQpfZtLtdCZ9Xu6WpeEL+wSKZNIh0lWxwm5dExQ5d3R0PpTFfLnW4MdadcvoeCF3bGQuOU3Z5+u+D87on6QU3uRW93P1SqeRv7+SHfw3bTLU/2szfrwDNj1fhIhZ56okJPrZykjWuzieyu6JQOSxIY6DsiS4wQcW6G0iJ7WrQKMRcY9GcKjeE0z+6aqGUmBDh5rVDLM4HFNY9P1y4vvMqK1ZO0a392rw27vi+0dy5FU1oAACAASURBVOyZpH9rn6SCCuxWV46I2TtPdscOsV7grgiaaadMkT2nrSx0ReskJ0xIXy3AGZtHh+FwnQbF3yvv12i7E/LHW6A39UZDWASP8+ZMhfdw4peGr2H1HcrP6Vq9ttIWofW4Xz1RG55Ie6oG8xRitYdtMOe55gX8/Hg1/sz11g/lz7lOuMyxebK2k2p7gfYYYMcX5jPO74nIHhXjUun7NovaO0tb9+zne/U/ae34iQqtfaZST3nCX6YdwiJ8/rqPPB96XWeBMpincpMtgGpCrR/LO1jm4P/p66fLEr/f6sSf0MzZXntdhnRe0iwGPddnyN4+Snm297iew/eddHkD1w1MkDj7U+wEec1xXytU2Z0FT9Nxyx17pMLBePkNfHcmBFJhgmLqL9X2IvcWP7+BcivP/SZdN5aPHKFiLG27ri+S+9cKbm1/xoTYDGcS3a6T1ZP95DS1PDxZh/tw4jVczgAjwfzzf7+P23yRXeZoVD/KXUCza7qabx2l9RGninAdNujImlGatXa6k+fuhtoMjS+8dZHcdZOCYvEMdW4crbKRN3hjpRFa+I+BMJZRkf1kjVbWX6+yGm9sdftozZvph5IJpxscU+S8Rg4WfUGy8B7sfrsI5NlCjjgLoNaq+VbPUzokwAaOPTdDl/dO1nInjIuFCRmrbam3mv20bRs+J1yv8fuC9Ra0oZ1r+4LCZ/DY4P+p6wTqL25/zno5Wq31CywsjYW4KdP6uDcqctRdKg9ZjonLT+qcnJzZ/dni5btvhFx+pVxl/lsdsaFOg2PnGJuH6jgisudNr0FHNo91wsyWjhmu+UsnqyNHuBi/fH3Ptcug2bhqbrlWrhgX+jS3hcdt59sqQ/vt+Ma5N4ZY8/Ped1tzbhymed6bGed3jFVtaCHUfPuD7Y7/+66e+te2iOxZbqDFUsGUo38bVD57dysm+85xGh6afW5Q28KeiOwNaltUmuHJHsxbRgchzzWD5/r/h9KwB33qtUvf5l4Ilh32PdhR8Pfb1o3JXvV4ttlqK8totRys15FnR2vWmmkp734/H7aNduYU9ASwNm4ie66QNM4rfOVq816bC6bten0Mz/DmcMq/0HvFMnq9czOUBJG9WzHZO6rUGPIIbtDhn6WFH2dA73kpWn2aJ3rUkz1tz3zemu75QU9CO9dZjM/z2s4UaYLiRq1eW1KhoLeo4wWfyl+avSsfTHMWJvRDaaTzmD7GfjOh/Zctf+d8CubBnnrudDcmu+UpLKjGeoSm0s0i6gREH/NK7q6tdNpC0QRCPgSuk81u3fk9sy592wfr1J2E8YXgVLpnG3TBwp0s8T2lw/ZxvJmdWMl+muYpap7wvjd3+BqWbjA/F3ZVasnPpqUXAHS84H3BOEuertIuVz4Nv33klDUgmAXz59ohXOYMkfzcDJmnuhuqI77tpezpTXaF7NwTkd15c8APbRSwecomUXvn8mSPiU//fnVKZI9lPyhYWl5y1n1c/nrzW0Bk90KHvPjmVG303iZxPf99Zsz+vvievpZ5Rrshu+LrJy2y96C9pmyevk6wnrvzvyMgm1DrtJlAKJwe13NYZM9Xd7H7A+XJbAO9L2PUDjaZEDtBfH8gRrnzRoh9t8nn4O9RvntW7nz3m1Bec4WKMVsF7hmh83w7eqFrQjHZj09zwrJtPzA9Z0x2s//KLek49bHp+9dh2+9ieH/Ux+W2cZpZP1bb1o9Oiec5r+uI8aPVvHmsZtaP0z4//FIOPkLjCzvOCdc5Qsvbpmh5aVoYXzky7Gl9+cUxWT3ZnVCRC6c4oU6c/Dpewum00ukGxxQ1ynmNHGWwa5ggaZ+c9smTRvZzg6KrLbx4k5qbK1Q13xuXhATY4LGBe2ZXg07bm7f21nGGwBrvre7mx/bdqDW7A2k5seBvLKwnu1eWDB7Odb9eLh+00DOFjYGdmZ+0HXJzZsdZXV2vxlfMoc62Xr/PHM6ia5t12VsHV+HJnjO9dJ51qk4da0dpuM9OHib7lms3X5cP1Wj3K9Xhz9oylflvqnh53Ld0mBaujRz3SrX2+SF385Qle/sK2CdvGjVaM6Zcu1NagLW3sYEwuPn29+RaHFuYOut7OyKy5204fV8JSYGFfBaChQbtWzFCZfWB2HMW4/uVcZo1crjW7GzwZrnLUwvCXD46Tet75Mk+Q3Jiso/RNj/mnoVEWV2Z6txmdBCcmfXs14yr+3Aa3gKmD3hx4bsadGRjmapqxmmfI1xniuyXj07XtofMFjk63aemqNHxzjCxPR2XPpqfoMh+/sUxIa9zi/PbPPf6wOKqDdr9xDi1+Q/gD6epZeHwHIMFN/xO7QNT1OmJ8FYnlqbzSuapaVp/+wgt3zw99UrseYtNODIdmzCa34HzvUEfb6vQspWTtDe14GCDzu6v0lpb/M7ioDuee2kPhyvH67Qr6sluYqQTu9viNltM9kCc5TM362jr1NTCd9GY7NG4w9Hz/ZjsvhieKbIExQ0TrcfrRd8r50y9E8vZ9eSt14GNValY7zpj3oDjuxU738T1wgvs3v3kIzdu9vNv1umCH5v9ZJ32/my8GtdNDSw2GhZU/ZjsqXjZFjd9f7X2eGGSMu3kiS+pusplqxm6sGuStr+Vjol96vXKdFzlAj03Y/PopB2s04CgfaZWbRur9bG/PsDJadr+aFBk9yZYAjHCM2KyP+fHcA9fw9pkMD+uyFidWjvAmZR51BdMA3kqkC1sMcLtD4/VMy9NT4fosZjz68r1pBfP2hEg107VKePEiZM/WU/eH85T3pjsgZjgMs5ap6UYyxDpeyKyn3NjdafsbZNj703VrnZ/TYNMe0fbejomuxu2Y8Oraf7Ovj1ZK33v3Gh8a2c9gvEB791IXs42yInHn6r7QjzLLY2wyO7cK+/3Fyu2/eEyOzHxA/Z31qN4eJI6PNEpem80+21IrVeRu70W/Jnii+uvV6kx5a1tZYrYtjv1HJzcy1d3Xkz2Ht3XCtEGnfIGRfM0I84kb8AGzvem8XoyNJHjTqKk1vzw2m5qkeo85c53vwnWb85QMWaLfCK7LT57sEpPLpmQXr/E6nFvlVbYgsjBxV2jaZ2tc56x2w/ETAgWoh5Io48E2TTPQZZ6+7+tU2RjlpU7wl6lselZ/O1lwzX89orUvS72uEDdh8cXXt6d+OzXa3hKZDev7RvV+IIf+rFOHWsinuy+w1LXDJnX8PA7J6S8dS/b+guT8onsea4RyHO+MhV+f1g4d8pXGhBts4nsp2q05r4JaRHywylaPilOZJ+hXDHZM/Y5Mdn9EKHBiQq3/qxOc3qy54vJHhJXc9VLnbbdN1bbfuOxeWq6mu/sP5E9N2euLZxjaoarNiSCW5ibmJjsKeE7XN8OT6E6tnG2N+nkiL2507vcVqEfrK5JjWvPvzw2PUFzTbnOca86VaOVNaO03hvjnbd1FVI6Q47z+rw8+TzV8+2/lnnn2oW/N7s2RWTv84YHvH0Fb5LTPf3KBC28/QYNd8KSeK/rBV657NxSrlneit+zFlRqTY882V3mzu9Mh0RxVldvTq+4HdeBzXXNOFtnpNFVq7al3mKjpVam4MIjrsgeDF1TVvNVLVxdnV6sNaYtWkw+J86gxa27Iz5UjOUtKLKbCGCvwM2vGeau9D3mpozr5LJNXFnlLOw0WrVOnZTKtee0lKhu4lDLopvchVad1xPL1RKoz9g0Y8p7rY67sL9aLavHqdF5Td8Lw/F+ehB9tn2yEzZkyf22KONUtQU92U3oXFmuJUsmpGKtX+qYqpZVYx2vQAs18uKbdQGP4HodfalSK5aUa8nD7r7DgZAIZoMLB6ZoY5N7/rKmiWo7kB7IBYVQ115hIUu20Kp37WWrJmnPS5O8cBkzdOX9qXrRL+fD47WxNZCva1kfx2u1Z9MEPfmwGx5hWdMEtbROTy3I6ZYzIrJbfj+t1R4v/M2SJeO0dtNUnfJe5c+0k8UujdRVDlvpdJ32bprg1tP9xkS1ThY4TEBsHp16CNdpUPwNsuGwlRJxZ+jU6xO07P5yLdvkCenBMkTsExVAHe7eDIQWOtegk60ep0vGacPz1dr+VFjQDnl9F4KfT+t04Hk3Frt51FqIpo0vBTiw0E3Pee304Qlqeb1Gu9ZG8vTqNKfezA6Nj1SG2o6V8ew7VdrwiM9ZuG0F7eww1yOR3YT/m3X4ec9mDjNTdPS43wcK16nL9Axd6qgOtfVd/mTf6TrtcsICueXY/mqVnvFFdhMJrS377bxpona9VZ2K2e6knbPu/Txd7TYisp+zMCt+jG5LO1rmBp16c7LWevYPxsl28mwhmvx7o8PrNO3dEnhrKFd7LQR/kTR8z+4X96efBW4+e1jPQZG9O3XX0/taJN8+Wz3ZOiJ3SDQPsOEI5Onnm02IvbikPGPS8YqzkK3btlasq9LhNj9Uk5tWbmZz32/SZckTKsZsERXGs9jHJg7b1ld49/hyrVg5Udtfn6KND0/QLj8MV0xazuLkj1bpaIGfB+kyBmyfJe8cOwBsZAsTzh2u2rlj1dJWq/ORN0Evd9ZqX/NYzasZrnmrvcUcu1mfGeML7zwnPntKZLe3VKvUeKvb1y+7tUzNjwc82c2DfrbtG6ZGZxHMBnWs9sYoI2/QvKUTtPyOfCJ7nmt0szx9w2tEdDWv51sDC9OGBNjwsad3VKTGSM54Zou7AGlcPjs3l2vWhOtV6o1tWg/57DXoSHN4X3DcEx6XdSNczEOTtftxr37G3KTGPGPWXHV/ee9ENfpjbAuFsnpa+g2GAtRZNj5d++XizLOd8/Z0aXqRXj9PJ6enx5Ijb9CsRRN1JPXmR7gOnWuF6niGjqz/qsosJviiKTpvaeZKLzSutbA6udcai2PjmvwWavMDKM/BmOtxC6/m2+8zwDYRE83dYR+RHZiLBubuAM8xfueILSwMFAZcoeq1joGSH/JB20gmAxkiOf0b+jcwUHgGfC//D67BfcIWR+1rcTu4WDT8FJ6fIrOphXVoWVGmb9X7jkOlKrU46bPLtLI57SlLv+Ia3C8Swlpu0Rq70XZgAAaSxwAie0IeQDSu5DUu6ow6g4FMBq7srdL2d272wss06Ow7k/Xko1X62A+Vwj2ZQT0M9IoBRPbM+w33YGxSUAbOztCldyZHQuhg44LamPt/r+7/1AHtMKkMILLDblLZJd+wm40BRHY6c3TmYAAGYKD/GPDCOFg4Cws/8+T6Kh2+Fh6B1Hn/1Tm27hdbI7LT2c/W2ef3QrBhCyeXq3HlJHV8VIj0SAMuYQAGYACRHQa4D8BAsTGAyM7gv18G/8XWcCgPDwMYgAEYgAEYgAEYgAEYgAEYgAEYgAEYgAEYgAFjAJEdkR2RHQZgAAZgAAZgAAZgAAZgAAZgAAZgAAZgAAZgAAZgoJcMILL30nDMUjFLBQMwAAMwAAMwAAMwAAMwAAMwAAMwAAMwAAMwAAMwgMiOyM4MFQzAAAzAAAzAAAzAAAzAAAzAAAzAAAzAAAzAAAzAQC8ZQGTvpeGYoWKGCgZgAAZgAAZgAAZgAAZgAAZgAAZgAAZgAAZgAAZgAJEdkZ0ZKhiAARiAARiAARiAARiAARiAARiAARiAARiAARiAgV4ygMjeS8MxQ8UMFQzAAAzAAAzAAAzAAAzAAAzAAAzAAAzAAAzAAAzAACI7IjszVDAAAzAAAzAAAzAAAzAAAzAAAzAAAzAAAzAAAzAAA71kAJG9l4ZjhooZKhiAARiAARiAARiAARiAARiAARiAARiAARiAARiAAUR2RHZmqGAABmAABmAABmAABmAABmAABmAABmAABmAABmAABnrJACJ7Lw3HDBUzVDAAAzAAAzAAAzAAAzAAAzAAAzAAAzAAAzAAAzAAA4jsiOzMUMEADMAADMAADMAADMAADMAADMAADMAADMAADMAADPSSAUT2XhqOGSpmqGAABmAABmAABmAABmAABmAABmAABmAABmAABmAABv7o8OHDKsbPu+++Kz7YAAZgAAZgAAZgAAZgAAZgAAZgoNgZKMYxPWUqTq2GeqVeYQAGipWBP7p48aKK8XPmzBnxwQYwAAMwAAMwAAMwAAMwAAMwAAPFzkAxjukpU3FqNdQr9QoDMFCsDCCyI8YzGQEDMAADMAADMAADMAADMAADMJBgBopVsKBciHEwAAMwAANJYQCRPcEdqWL3xqB8eBzBAAzAAAzAAAzAAAzAAAzAQH4GkiJAkE/EMhiAARiAgWJlAJEdkR2PFRiAARiAARiAARiAARiAARiAgQQzUKyCBeVCjIMBGIABGEgKA4jsCe5I4dGR36MDG2EjGIABGIABGIABGIABGICBYmcgKQIE+UQsgwEYgAEYKFYGENkR2fFYgQEYgAEYgAEYgAEYgAEYgAEYSDADxSpYUC7EOBiAARiAgaQwgMie4I5UsXtjUD48jmAABmAABmAABmAABmAABmAgPwNJESDIJ2IZDMAADMBAsTKAyI7IjscKDMAADMAADMAADMAADMAADMBAghkoVsGCciHGwQAMwAAMJIUBRPYEd6Tw6Mjv0YGNsBEMwAAMwAAMwAAMwAAMwECxM5AUAYJ8IpbBAAzAAAwUKwOI7IjseKzAAAzAAAzAAAzAAAzAAAzAAAwkmIFiFSwoF2IcDMAADMBAUhhAZE9wR6rYvTEoHx5HMAADMAADMAADMAADMAADMJCfgaQIEOQTsQwGYAAGYKBYGUBkR2THYwUGYAAGYAAGYAAGYAAGYAAGYCDBDBSrYEG5EONgAAZgAAaSwgAie4I7Unh05PfowEbYCAZgAAZgAAZgAAZgAAZgoNgZSIoAQT4Ry2AABmAABoqVAUR2RHY8VmAABmAABmAABmAABmAABmAABhLMQLEKFpQLMQ4GYAAGYCApDCCyJ7gjVezeGJQPjyMYgAEYgAEYgAEYgAEYgAEYyM9AUgQI8olYBgMwAAMwUKwMILIjsuOxAgMwAAMwAAMwAAMwAAMwAAMwkGAGilWwoFyIcTAAAzAAA0lhAJE9wR0pPDrye3RgI2wEAzAAAzAAAzAAAzAAAzBQ7AwkRYAgn4hlMAADMAADxcoAIjsiOx4rMAADMAADMAADMAADMAADMAADCWagWAULyoUYBwMwAAMwkBQGENkT3JEqdm8MyofHEQzAAAzAAAzAAAzAAAzAAAzkZyApAgT5RCyDARiAARgoVgYQ2RHZ8ViBARiAARiAARiAARiAARiAARhIMAPFKlhQLsQ4GIABGICBpDCAyJ7gjhQeHfk9OrARNoIBGIABGIABGIABGIABGCh2BpIiQJBPxDIYgAEYgIFiZQCRHZEdjxUYgAEYgAEYgAEYgAEYgAEYgIEEM1CsggXlQoyDARiAARhICgOI7AnuSBW7Nwblw+MIBmAABmAABmAABmAABmAABvIzkBQBgnwilsEADMAADBQrA4jsiOx4rMAADMAADMAADMAADMAADMAADCSYgWIVLCgXYhwMwAAMwEBSGEBkT3BHCo+O/B4d2AgbwQAMwAAMwAAMwAAMwAAMFDsDSREgyCdiGQzAAAzAQLEygMiOyI7HCgzAAAzAAAzAAAzAAAzAAAzAQIIZKFbBgnIhxsEADMAADCSFAUT2BHekit0bg/LhcQQDMAADMAADMAADMAADMAAD+RlIigBBPhHLYAAGYAAGipUBRHZEdjxWYAAGYAAGYAAGYAAGYAAGYAAGEsxAsQoWlAsxDgZgAAZgICkMILInuCOFR0d+jw5shI1gAAZgAAZgAAZgAAZgAAaKnYGkCBDkE7EMBmAABmCgWBlAZEdkx2MFBmAABmAABmAABmAABmAABmAgwQwUq2BBuRDjYAAGYAAGksIAInuCO1LF7o1B+fA4ggEYgAEYgAEYgAEYgAEYgIH8DCRFgCCfiGUwAAMwAAPFygAiOyI7HiswAAMwAAMwAAMwAAMwAAMwAAMJZqBYBQvKhRgHAzAAAzCQFAYQ2RPckcKjI79HBzbCRjAAAzAAAzAAAzAAAzAAA8XOQFIECPKJWAYDMAADMFCsDCCyI7LjsQIDMAADMAADMAADMAADMAADMJBgBopVsKBciHEwAAMwAANJYQCRPcEdqWL3xqB8eBzBAAzAAAzAAAzAAAzAAAzAQH4GkiJAkE/EMhiAARiAgWJlAJEdkR2PFRiAARiAARiAARiAARiAARiAgQQzUKyCBeVCjIMBGIABGEgKA4jsCe5I4dGR36MDG2EjGIABGIABGIABGIABGICBYmcgKQIE+UQsgwEYgAEYKFYGENkR2fFYgQEYgAEYgAEYgAEYgAEYgAEYSDADxSpYUC7EOBiAARiAgaQwgMie4I5UsXtjUD48jmAABmAABmAABmAABmAABmAgPwNJESDIJ2IZDMAADMBAsTKAyI7IjscKDMAADMAADMAADMAADMAADMBAghkoVsGCciHGwQAMwAAMJIUBRPYEd6Tw6Mjv0YGNsBEMwAAMwAAMwAAMwAAMwECxM5AUAYJ8IpbBAAzAAAwUKwOI7IjseKzAAAzAAAzAAAzAAAzAAAzAAAwkmIFiFSwoF2IcDMAADMBAUhhAZE9wR6rYvTEoHx5HMAADMAADMAADMAADMAADMJCfgaQIEOQTsQwGYAAGYKBYGUBkR2THYwUGYAAGYAAGYAAGYAAGYAAGYCDBDBSrYEG5EONgAAZgAAaSwgAie4I7Unh05PfowEbYCAZgAAZgAAZgAAZgAAZgoNgZSIoAQT4Ry2AABmAABoqVAUR2RHY8VmAABmAABmAABmAABmAABmAABhLMQLEKFpQLMQ4GYAAGYCApDCCyJ7gjVezeGJQPjyMYgAEYgAEYgAEYgAEYgAEYyM9AUgQI8olYBgMwAAMwUKwMILIjsuOxAgMwAAMwAAMwAAMwAAMwAAMwkGAGilWwoFyIcTAAAzAAA0lhAJE9wR0pPDrye3RgI2wEAzAAAzAAAzAAAzAAAzBQ7AwkRYAgn4hlMAADMAADxcpAQUT26xf/ToX8FMLYxd6JonwMFGAABmAABmAABmAABmAABmAABoyBQoyhSQPhCwZgAAZgAAZ6zwAiO57svBYKAzAAAzAAAzAAAzAAAzAAAzCQYAYQRXovimA7bAcDMAADMFAIBgoishciI4VOA48OPDpgAAZgAAZgAAZgAAZgAAZgAAYGAwOFHk+THoITDMAADMAADPSMAUT2BHsrDIbOImVkUAQDMAADMAADMAADMAADMAADuRlACOmZEIK9sBcMwAAMwEChGUBkR2TntdB+YuCDPVv14x99X/fMmaM5c+7Vw09t0huHPsH+vbJ/qx687jpdl/F5UK350tvxmKp/1NZ7ux9cp1u+vk6H8l2nm/sPrbtFt6w71Iv8mA1u0bqDuQdcDEixDwzAAAzAAAzAAAwUPwOFFgpID/EJBmAABmAABnrGQEFE9kIuemppFaIS6UgWf0cyOXX8ifZuXqZ7H/mp3jjU6Ympn+iDPZvUdM/D2rJ/8NTVzp07NWfOHNn26urvKgTmVx7UdQ+09v76iOy9t103Jx6ujo3B056wE3UNAzAAAzAAAzDgM1CIMTRp9ExMwV7YCwZgAAZgIMgAIjuiD4JZHzPwyd5NemDxT7X3ROYg4JOPfNH9jM6c6NCrzzXp+/fM0Zx7vq+m515VR+qcvdo0Z6W2vLJFTy66x/GEb/rXvep8/w09u+JezZlzj5Y9s1MfeGXZ+/M5Wvmvr2rLKtdz/p5FT2rLr9PXcvZve0Nbbf/P9zoMfHLoVT3re9p/r0nPvtahT7z0nH3Odebo3ofWaOv+dFp+x76728II7flE9mNq/eEdGjHkOl03ZITqvrtB+z49I/MaT3u/+17vduy3VTHMPOOHaMQ3lqn1cLqujrev04La0vS+HRFP9sOtWnZnhUrNq35Yhb79w1Ydy8rUcbWvW6A6u9aQEbrjh61qezrsyX5sx2rd5VzvOpXWLtC69uNZ2mjEBh+1a91369wyX1equu+uU/tH6XJE62df8wLVjRzilqthgTb7kz3BdBzbBdNxr7ns6WW6wzm3VHVW3v0bUjaq/qfNKS9/x953P+bky7VPnRasa9dxzz7O/u+v0+bv1qnUezvAsXfDCA1x7Bk+PloGvmevX2yDbWAABmAABmBgcDEQHOTzP6IPDMAADMAADPQ/AwUR2QdixdGpHFydyoFc3wc236NlLx3OIpT69fSB3lh9r5p+sVedp87ozKlO7f1Fk+5d/YYnnJvIfk96f+dO/diE9Z/t1Ad2fGe7frp4pV59303PRPR7frRJ7UfdcDSd//ZLPWle8+8G9j/yU+38IHD9n6ePP/PBTj27uEm//Hfbf0BbFq/UL//dC23z0QH98oWd6swqJPtpZt9evdBuYm/2cDHHNt6lsu9v1bFPLQ/HdahlmVb/ystP1JN9x2O6b12bd+wxta+8RUO+t9UVgo9v1X1DKnRfixfO5Vi71v1TtYb44WKOt+nB8RW6q3mfd/w+bbi7QhUPt6WE5CCbx7fdpyHj79PmQ25eju1apwVThqTDxfxqmSoC+48f3Kz7ptyhDbEhYcIi+6HmB/XgtkPudT89pM3fLVPdU/tiuTP7lDakJxOO7VqtZU/bsYe04Zulqnu01bXHp8fU+midSr+5wRPO7ZpD0vuPbdZd1w1R9fc365DZ+thW3Tf6Fq3zBHtHRB9/l9b96pibj0Obdd/4Ibpro/vd2T/s21q9y9tv13/gQW096E0sHNqsBaPrtPqd7CwF7cv/2AkGYAAGYAAGYGCwMjAQx+Tkqf8FHmyOzWEABmDg2jGAyH4VQuFg7cBR7p4MXj7Qq/88Rytf+yBW7EzZ8t9/qWWPblVHiMcObX10mSd0u57srx71r23prlT4+xxt2uvudzzVI9c8/NIy3bP5gJOPuP2Wl086O9XZ2el4sNsxbnquyL71Xff3VJ5DefXz1f2tCe0zZ87sZeiYsMAczZMjsn9326kQwAAAIABJREFUs/bFeXJHRXYrx/FjOnbsmI7Z8YFwMMd/sUDXfdcT3P3yRvffvTksqH9kwvMCbT0etcVxbf3udVrwi7BnugnNbkz249r6vSEZ+y0PZY/GxZCPscFHXjns2nHldMqwT6trqvVYezR/Z3TmndWqrnlM7X5ZnW27Hqup9oTu6DUPad3Xg3Hh7ft1evAVN21HRI+E5nFs6on2cfutLo9bXRw75ti19YF0etF65ntMHYbqjv0wAgMwAAMwAAODhQFElWsnqmB7bA8DMAADMGAMILIjSOQWf7HPVdunW57sezdpzj+/mgr34g4GXIHeFbqvXmQ/Y9fwQsNkiuyH9cZT9+qeRcu07NFlWvbIGq35Z19kP6NPDr2hTU7oGW/B1n/rfbgYf6DTlyL7mTPH1Pqju5ywLENG1umuH211Pa2N54j4fPyVB1U9pFQVNdWqrqlW3Z13qNrzVI8VgQMie+z+M1Eh2h/chgVo3w6Whiuyu/vT4WwCnvoRodo9N3ydfc9+W6VDRjhlqJ5SrW/feUuW2PPh8/x8OFuzje+ln2r7wXxHz7V9PRPZg5MYmfbbpw13lmrISLcuqqd8W98OiPahvKby59uXLfaBARiAARiAARgYvAwg8CDwwAAMwAAMwMC1ZaAgIjsLnw7ezhwd+fx1362Y7ObJvniLDoSEQ/MgL6wn+wO/yOLJvn+T7gl50n+inevTInu6nj9R57sWeubH2tmZv+zp88LHFiZcTFDcDacfuu5H+7T5exVpb/CQyG7hUa7TXS0B7/L2x1Iie7c82e/cEI7BfniDvt1bT/YYT/dQWUJ8BAXvNj04JOydfrzlriwiex5P9tHL1Ba6TpuWjS6wJ/t3Njs2yxDZdzyoISFP+uPafDee7NkZyMF9qA45DhvCAAzAAAzAQLEzgLBybYUV7I/9YQAGYAAGENkRIq7aU7vYO6xXX75PtHfzMt37yLN69V3fA/wTfbBnk5osTroTv7pTO9fGxGRf68c+77kne76Y7KEQNv/+SzUtfjYVo/2Tjw5oq+/J/slebXlmq/Z68d3PfGTx33svsl+9wG6DxKDAnDloPPTsAt3X3J6Kyb7vqVvCInsqxIsbouWWle2uUP7pce3buEBlvjd3NCb78UOOYJ/29m7TsriY7LHhXc4oGpPdibk+/rpITPa7tOEdT/Q/fkhbf7RarXFhb0I22KfVtWVasNGLHX/8mNpWZvNkP6PsMdmPafN3YmKye6J4pt274cmeLyZ70Ev/ndWqG70gFbP++OE2PYYnO/dontMwAAMwAAMwAAN5GUDcQdyBARiAARiAgWvLQEFE9oFYiVcvjGYKd6SJTa6GgQ/2bNWPf/R93TNnjubM8cKuHPIWE7WBw4kOvfpck75/zxzNuef7anruVXWc8G3ec5F95badTnr3zpmjexY9qS2/9gX+M8oMF3NGh998Vk3fc/PWtPaX2hLwZO/89RateehezXHSatKzb+ZbyNXPd3hbGIHd0jSRPRBOJfX/g2o1W37UrnXfrdOIIXZMqSrufExtvlB9eKvumzJE1w2p02qLS/5Rmx77xggNue46DRl5hx5cdZ9u8UV2iw/evk4LaktlYVxKx39bjzU/Ftp/5nCrlt1ZoVLLw7AKffuHrWHP9tCg8Lja1y1wwtj4+dqw0g8X49rq2I7Vusu7noW6WbCuPRzzPZVeZKJh/+Z0Pmvv0uofZvNkd6+zr3mB6kYO0XXXDdGIhgXa7C1WGrLdkBGq++46tfu2Cwn7lk43RPbvb1DrD+9w62JYuDwZnuxnzjiTHHXD3Hqr+85qLcOTPe+g+mruS5zrtgfsgB1gAAZgAAaSzsBAHJOTp2sr9mB/7A8DMAAD/csAIntKsKJjmfSOJflPMxwnomOftH2wRf/YIk5Ex/b9Y3vsjJ1hAAZgAAZgYHAxgJDSv0IK9sbeMAADMAADUQYQ2RHZ8ZIsQgYQ2QfXoGqgDqIR2eFwoLJJvmATBmAABmCg2BiIDvT5jvgDAzAAAzAAA/3LACJ7EQqsxdZhpDw9HwQhsvfcZnBWeJshshfepnCKTWEABmAABmAABuIYQEjpXyEFe2NvGIABGICBKAOI7IjseLLDAAzAAAzAAAzAAAzAAAzAAAwkmIHoQJ/viD8wAAMwAAMw0L8MILInuCMV58HAb3i2wAAMwAAMwAAMwAAMwAAMwMDgYgAhpX+FFOyNvWEABmAABqIMILIjsuOxAgMwAAMwAAMwAAMwAAMwAAMwkGAGogN9viP+wAAMwAAMwED/MoDInuCOFN4pg8s7hfqmvmEABmAABmAABmAABmAABuIYQEjpXyEFe2NvGIABGICBKAOI7IjseKzAAAzAAAzAAAzAAAzAAAzAAAwkmIHoQJ/viD8wAAMwAAMw0L8MILInuCMV58HAb3i2wAAMwAAMwAAMwAAMwAAMwMDgYgAhpX+FFOyNvWEABmAABqIMILIjsuOxAgMwAAMwAAMwAAMwAAMwAAMwkGAGogN9viP+wAAMwAAMwED/MoDInuCOFN4pg8s7hfqmvmEABmAABmAABmAABmAABuIYQEjpXyEFe2NvGIABGICBKAOI7IjseKzAAAzAAAzAAAzAAAzAAAzAAAwkmIHoQJ/viD8wAAMwAAMw0L8MILInuCMV58HAb3i2wAAMwAAMwAAMwAAMwAAMwMDgYgAhpX+FFOyNvWEABmAABqIMILIjsuOxAgMwAAMwAAMwAAMwAAMwAAMwkGAGogN9viP+wAAMwAAMwED/MoDInuCOFN4pg8s7hfqmvmEABmAABmAABmAABmAABuIYQEjpXyEFe2NvGIABGICBKAOI7IjseKzAAAzAAAzAAAzAAAzAAAzAAAwkmIHoQJ/viD8wAAMwAAMw0L8MILInuCMV58HAb3i2wAAMwAAMwAAMwAAMwAAMwMDgYgAhpX+FFOyNvWEABmAABqIMILIjsuOxAgMwAAMwAAMwAAMwAAMwAAMwkGAGogN9viP+wAAMwAAMwED/MoDInuCOFN4pg8s7hfqmvmEABmAABmAABmAABmAABuIYQEjpXyEFe2NvGIABGICBKAOI7IjseKzAAAzAAAzAAAzAAAzAAAzAAAwkmIHoQJ/viD8wAAMwAAMw0L8MILInuCMV58HAb3i2wAAMwAAMwAAMwAAMwAAMwMDgYgAhpX+FFOyNvWEABmAABqIMILIjsuOxAgMwAAMwAAMwAAMwAAMwAAMwkGAGogN9viP+wAAMwAAMwED/MoDInuCOFN4pg8s7hfqmvmEABmAABmAABmAABmAABuIYQEjpXyEFe2NvGIABGICBKAOI7IjseKzAAAzAAAzAAAzAAAzAAAzAAAwkmIHoQJ/viD8wAAMwAAMw0L8MILInuCMV58HAb3i2wAAMwAAMwAAMwAAMwAAMwMDgYgAhpX+FFOyNvWEABmAABqIMILIjsuOxAgMwAAMwAAMwAAMwAAMwAAMwkGAGogN9viP+wAAMwAAMwED/MoDInuCOFN4pg8s7hfqmvmEABmAABmAABmAABmAABuIYQEjpXyEFe2NvGIABGICBKAOI7IjseKzAAAzAAAzAAAzAAAzAAAzAAAwkmIHoQJ/viD8wAAMwAAMw0L8MILInuCMV58HAb3i2wAAMwAAMwAAMwAAMwAAMwMDgYgAhpX+FFOyNvWEABmAABqIMILIjsuOxAgMwAAMwAAMwAAMwAAMwAAMwkGAGogN9viP+wAAMwAAMwED/MoDInuCOFN4pg8s7hfqmvmEABmAABmAABmAABmAABuIYQEjpXyEFe2NvGIABGICBKAOI7IjseKzAAAzAAAzAAAzAAAzAAAzAAAwkmIHoQJ/viD8wAAMwAAMw0L8MILInuCMV58HAb3i2wAAMwAAMwAAMwAAMwAAMwMDgYgAhpX+FFOyNvWEABmAABqIMILIjsuOxAgMwAAMwAAMwAAMwAAMwAAMwkGAGogN9viP+wAAMwAAMwED/MoDInuCOFN4pg8s7hfqmvmEABmAABmAABmAABmAABuIYQEjpXyEFe2NvGIABGICBKAOI7IjseKzAAAzAAAzAAAzAAAzAAAzAAAwkmIHoQJ/viD8wAAMwAAMw0L8MILInuCMV58HAb3i2wAAMwAAMwAAMwAAMwAAMwMDgYgAhpX+FFOyNvWEABmAABqIMILIjsuOxAgMwAAMwAAMwAAMwAAMwAAMwkGAGogN9viP+wAAMwAAMwED/MoDInuCOFN4pg8s7hfqmvmEABmAABmAABmAABmAABuIYQEjpXyEFe2NvGIABGICBKAOI7IjseKzAAAzAAAzAAAzAAAzAAAzAAAwkmIHoQJ/viD8wAAMwAAMw0L8MILInuCMV58HAb3i2wAAMwAAMwAAMwAAMwAAMwMDgYgAhpX+FFOyNvWEABmAABqIMILIjsuOxAgMwAAMwAAMwAAMwAAMwAAMwkGAGogN9viP+wAAMwAAMwED/MoDInuCOFN4pyfROOXv2rM6fP68LFy6IG17/3vCwN/aGARiAARiAARiAgcHLgPW/rR9u/fFiG0vB9eDlmrqn7mEABmBgYDCAyI7IXnQdzIHcYbZOPTe/gXHzox6oBxiAARiAARiAARgYvAxYv3wgjxt6mjdYHrwsU/fUPQzAAAwMDAYQ2RHZi6pz2dPOaH8e//nnnyOwXxwYNz4eQNQDDMAADMAADMAADMCA9c/7czzQl9eCZ3iGARiAARiAgWvLACI7InvRdCz7stN6tWnjwX5tb3Q8aLA/DMAADMAADMAADMBAHAPF4tEeVzZ+g3kYgAEYgAEY6D8GENkR2RHZ+5gBi/nITa3/bmrYGlvDAAzAAAzAAAzAAAz0hIFiiNHek/IOyGPblqqkpCT8GTpSNXOXatM7J3o3njp1QidOdPXsXC8fS9vcNnRsw20qKblNz71f4Db1/nO6raREt2041rP8Bd8MjuR1QNZrML/83/u6xnbYDgYSwQAiex8LrFfrAc35yVzcNFhveLEXuEPKwyURDxc6+XAPAzAAAzAAAzCQFAaKwZs9KbbOms84kT0lug9Vw2Pt6urhOKCt0UT7pWrryXkR4RqRnftYVmZ7whXHMoaFgUHBACI7Ijue7H3MwIULFwbFzYTOBx1QGIABGIABGIABGICBJDJg/fWgk0wS/0+i3UN59sTtkGf3+S51tC5Vw1ATy4fq3pd65pWOyM79KMQYIie6BAzAQB8zgMjexwJrEjto5Lmw3vM82OncwQAMwAAMwAAMwAAMwMDAZiDpY6DE8xUnsntiSFfbUlWaV3v90+pICSQn1P7j+WoYNdQJMTOsfr6e3uWHlWnT0pQXvBuCxhfvj7Wu0vxvVGqYt39Y5Tw17fDPu6iL3fFkP/SCls710hg6UrMbX1DH+dx8n9jRpNlOXodq5Deb1LYrJlzMiXY9fXeDRjqTCsPUcPfTaj+RI91IXi8e265Vd9+myhu8sDs3VGreijadSNksLq0u7du8VPMqh7mheoaOVMPdq9T2sX9seP/QUQ2a/0Q4Td/bf9XPntb8ejedYfX36oVDFxUq9z88p44uL10v74t/vEn3fm2khlp93NCgezfsC7yx4NXjA5vUtmKeKm/wwvb0qpx+edgm/l6Rk2fql/q9tgwgsiOyJ95rY6B3iLnJXdubHPbH/jAAAzAAAzAAAzAAA/kYGOhjinz5y1e+Ab8/h8h+8WKHnvu6Ccfz9YIjOneprbFSJZWL9cIxl+0TrSbEV2ppW9rbPc6TvePH92pp6zFXyD1/TC8sqlRJSYOePui1kYhw7QvIqZjsh57T7KFDNXvNPle87urQc3cO1dA7nwtMAITbW9dL92poSficTf9fjSMs++L/xVNtWlpZospFL+iYCfbnT2i7U8alajsVTi9Vl5G8Xjz4tO59ZLuOeUL2sa2LncmJhh93ZPVebX/C8lGppa3eRMPH7Xp6UZPavWu6+xvU1Obu7zq4SfPHlGjYP72QEu9dGwXyfuIF3WsTBZW3qWmrG3P+ROtijSkp0fwt3nW8vA+982m1O4J+lzp+Mtu10wY/v9HJEk9k70U5UzZDoM3KAjbK0s5gBmZ6wAAiOyI7InsfM8DDiocVDMAADMAADMAADMAADAxsBvKJ2AN9f+L5yimyX9T2RSayeyJre5Mj2M7bHPBAv9il7YuGhrzd40T2DDsdfFo1wQVII8J1WGQ/oU1zS1QypkntQdHl4NNqKBmqxa1pgT99nWN67hsx50QWPm1fMUYlJfO0KeVBflEXu7Zr8dASZRXJI3lNX9Nvax16urZEJd94TseC+fX//3iT5pWUaMyK9ngRLcv+E5vnqaRkjJra3euEbWS/eWUOXjdS3ugbA27ePfsOXerZ1xPZK+frufZgXfvl87d5yumXl218PWMX7AIDBWMAkb2PBdaB3hkjf4UNDRNnz8zOjt8ZYIttYAAGYAAGYAAGYAAGYGAgMBDXj0/SbwPBhleVh5wiuyeiep7srqhbqcUbtmt7a/qz6YEalZTM1ibPuz1OZO/a/5zu/UaNamprdNvdq7S97Wnd1m2R3RN9564KXXd76ypHrB76SJxY7Yc8aQuLOCHR2ROlJy/Wc4HybG/dpMUmkt+5KV4kj4rsp/bpue/d5pSt5hvztaq1TU+bwB8Uu4Nimnf+4h1Z7kHZ9h8Kh7opnMh+Ue2PWPgfbzLlome7xojtelrOYJn5P8wh9sAeMFBQBhDZEdnxZO9jBq6qs8kNr6A3POoiSwcazuAMBmAABmAABmBgkDOQJEE9Lq+J7+fmENmjMdldUXeMZi9qUtOK6OdptXlxzDNEds8z2wlRcuyETpzo0AsPRMK2RITrsIDsib7182Ou26SmLX6Yk2Cfuwci+5jZWpxRniY1/TgcAz1V16G8+l7gs/V0+zGdOHFCHVsXq8bCthSVyN6Lcg7ye1uKF+zAcx4G+pwBRPY+FljjOkD81vfe4wPJxjzUgp1M/ocHGIABGIABGIABGICBgcfAQBo/9CYviWcqTmTvOqF9W5eqwVkIdKjufckLx+KFi5m/NS48S5qtDJE9JEp7x4U8yvMtfOoJvLWrtK/bYlVPwsXM1wvZ4q/HXS9Unjiv75iwLcF0soSDSbGUZX/fhYuJ2iquTHG/5SlnsMz83+ciY4ofbI2tByEDiOyI7Hiy9zEDPGTSHV1sgS1gAAZgAAZgAAZgAAYGIgO9EbYH0jkD0aY9ypMnGJeUWOz16GeoGh5rdxcrdUSbE3rhn4apZOhsPf2OF6u765janmjSpkPp9uWGHvGEa1tM1ImdXqLKxu064S0u2r7GFtssUWoB0pBwfVFhT/aLuti+yvEOTy1QevGiTuzfpKYn2gL5S+fBbJC58Km/4Grguh+/oPk3lMi87Pd5nvhd77dp1YpNWRdUDcc179DT9bbY6FJt9+K6n2h/WrNzebJfvKieL3xqC7/GLXzqh3ixsseI3lkmM7q18GkoXEzvytkjFgehMIh9wm0We2CP3jKAyN7HAutA6niRl2vjQd/bxsl53NhhAAZgAAZgAAZgAAZgoH8YSPpYKfGcxInsQ0eqZu5SbfKF9JD4eUJtT8xXwyiL4V2ikhsqnRjrLxwMLJB5aJPmOfuHqnKFG9f7xI4mzfbOGVZ5m+59bHEPYrK7LHbt36Slcys1zJkMGKqRU+dp6YY2HTPhPpTH9PeOrUsD152nVZtXha9r533cplV3N2ik47lfIsvf/CdeUIcnumekHZkQsPObvjnSmTRw7PG9Ji3+eo5wMU5eu7Rv81LNqxzm2nHoSDXcvUptqQVYw/uHjmrQ/CfC4WsyJiJ6ILIv3tKup+9ucG15Q4Pu3bAvMFkR57Xu2qnn5UzXRYYds9QZx2EzGICBnjKAyI7Ijid7HzPQ00bJ8dzIYQAGYAAGYAAGYAAGYKB/GUBk7197w/cgt3d0ggChO+sEDW1lkLcV2kai2gYiex8LrEnvrJH/q/d+56HIQxEGYAAGYAAGYAAGYKAYGPjtb3+rL774Qr/73e/0+9//Xn/4wx/05Zdfhj7225UrV5xj7Fg7JwllT/q4Jwk2Jo/cB1MMILIn4r6Yqi+EXuoLBrrFACI7Ijue7H3MAA8mOpMwAAMwAAMwAAMwAANJZcBE8suXLzuCugnovrDu/+9/N7Hd/9/f2m8mxtvH0hjIgjsiO200qW00kflGZO+WYJfIukWMpW4HMQOI7H0ssCa9s0b+8WTnwc6AAwZgAAZgAAZgAAYGHwMmiJtHevAvKKzb/3bM66+/ru9973uqr69XdXW1s/3Od76jlStX6rXXXtOpU6cckd0X4c0LfiCK7Ukf99BGB18bpc6pcxiAARgYWAz0m8j+q47f6leH+u9VwaR3ksj/1YvbA8WG3PQG1k2P+qA+YAAGYAAGYAAGYCA3AyaEx/35oWFMYP/oo4/00EMPafTo0frv//2/67/8l/+i//yf/7Oz/fM//3MNGzZM48aNU21trRYtWqRf//rXTqgZ38vdrjGQ6mGgjB16m4+BZEvykrt9YR/sAwMwAAPFyUCfiuyfdF3U9zZ9oesX/y70sd9sX19C1dvOCecVj7g9UOqyLzkn7b69j2Bf7AsDMAADMAADMDCYGLh06ZIT8iVOYLfffE/2jz/+WPPnz9dXvvIVXXfddfqP//E/6j/9p/+k//pf/6v+8i//Uiay/8mf/Inz/5/+6Z86x5WVlem+++7TkSNHnHjtfigZu+ZAsPFAGTv0Nh8DwYbkgfslDMAADMDAYGagz0R2E9EbVl12xPV7f/6FNu6+pBf3XZL9b6K77etLob23nRPOQ2QvNAOD+QZD2XnAwgAMwAAMwAAMwEAyGLCY6fn+TGS3xUwfeeQR/fVf/7X++I//WCUlJTIBfcmSJdq8ebO2b9+un//85/rmN7+pP/uzP3P2+x7uQ4YM0cyZM/XWW285wrrv1W7XvtacFHoM0N/pXWv7cf1ktHPqiXqCARiAgb5joM9Edl9MN2E9WoH2mwntdkx0X6G+93enhushzmdjoFBMk07f3QixLbaFARiAARiAARgYzAx0R2D3PdktBvvf/d3fOV7q5rVuYvpLL72kEydOOB7qJpx/+umneuyxx/QXf/EXTigZ25rA/ld/9VfOx+K3v/HGG7pw4YLMo93+rrXQnq0vn5TfBzO/lJ37NwzAAAzAwEBgoE9EdvNQzyei+yJ8XxkhKZ0h8ln84nxfMZ6R7vlj2v7EfN1WOczxGCopGabKuUu16Z0TfTaZlZGHPl9F+pie+0aJSkqGanFrV2y5uloXa2hJiUoa22L39zbPHT+5TcPufkEnnDK2aWnJbXrufe9B1rZUJd94Tsf6pPx+ma3c6c/QUbPVtKNndXtsw20Ft0u37XnoOc0eOlTzt8Tk+VSbllaWqLKxTV0XL6prx2INq2xSe5/Ys/udj3z5cOxZUqKhi7Y7+c6wRdd2LR5qdbZUbV5ZwhxF8xJf125bXqX2E9Hj++K7m4elbbnTPtbapHn/P3vvHh3Vdd99P2u9/73943n+6oKVS51bmzZVlIttcnFI7NpJSMjFjh3TmtqNb6tx7ImLy7NShjRSUV2ZSi4yRcIiCGocRCIiOWZkZEdyEZCJI2QRpDhDEEaAxyCwR2QQ4+A4b7/v+u1z9pl9zpy5SDOjuX211qxzZuacffb+7u852udzfvPb+lqzZBkCj/TiyGuZ91H6iCa3bsNRb9/SH+p6VfH+eLkbdxjXKfOadceukwW9Jqecb15P8T31pgdy9kCugF1A+Ouvv66g+oc+9CF89KMfRSAQwOjoKHSaGZ2zXVLCfOtb38IHP/hByLbyuvLKK9U+H/nIR1QU/N13340XX3xRgXlF2UsM2iv9vozXxRzGIbwu5HxdoJ/oJ3qAHqAH5u6BokB2meRUILtfFLvuJEkfI9vItvqzQi4rfZDE+lcPfC+kr9OW9Zt+rF5WhxvXdONQ1IbPF8/iSN863FhXh3t3HS3KeZa2PkUbwBoQ8v5eG3ibF76z6L3fBtFVBtm9gOrs0HosW7QM61/wf9jg1zclheyJBI7uuhd1dfei+zdmn81g8Lt16iGFBq/Z4LZf24rxWbZ6aMi+aFEAvVGzTdb62b6A/WBkbpDd29eJmaPo/mYdFvl6PvW4+WmRHbKrfly2Gr2/tr03cxL9Tfdi/cHsXpSHYCu2+l+P6I8EcoHsZe0PBdmNB5BF+19QaN+zvPyuG9SvkvXLFbBreP7EE0/gwx/+sALmEo0uUe1vvPGGytWut7l48SL27NmDT37yk2o7SSXzqU99CldffbV6yYSo8vrYxz6mJkSdmppSjL3UEe2Vfv9VyT5k3XkdpQfoAXqAHqgGDxQMskv0+s9+84Z6/dcBC6DLUn/mXfptU8gc7ZU+SGL9Cdlzv8AcxbZbk1HA3v1mxg/iyIJEwC7EPwULAN5xfwDXLVqBbb/2HPPX27Bi0QqsuLXwkexuXRc+kj0FrCUSOPhIHRY50fUeLXzgVqkheyJhA3UjktkfrGZvi7s/SrO90vP2AALXLcKK//KCY+u8XHHrClcke+Z62/72i/gdWodFdesXILo/C2SP9mN13TK0HZqP5jMYbPQ5bx2v0h8V7w9C9ip5oD2f85v7ZD5/y1MfiT7P9qfB+R/+8AdMTk7i+uuvV1Hpn/70p/H9738f586dcwH2t956CxMTE5AodYliv+aaa9QEqStXrlRQXQN2vfzc5z6n8rfrtDH6eKWYDLXS778q0YOsc3leG9gv7Bd6gB6gB+bngYJBdh29LtHp830VMqq90gdJrD8he64XNSs9ymr055KqQWDWyUG03b8MV8lP+uuuwYrvdrshvJ365MgLm1U6CAvu2lD58CFsln2N1Chnh5NpIySFyfpnPLDx7BF0f3cFrlFpM+pwzW1r0T1uRLxePIpe8/t71qPX/N4BcHKR0xByUD1YuNETEXtow3WSOvutAAAgAElEQVQq2rf3EQ9kz1YHu82Hhjdj9a1Wuh1py+ZDyXq6AXUWyJ7tePNqc2qqBVUn3Re+KWvc9XS3IYGjfWuxYmmdirZWfdd3xJ32JJtX5tQO+5+UkRrm7G8ktYRPChlvW7LpKR5xbSOpktoweNL4x6jK3IaDQ224V7W5Dtc82I2jr53FkV1rsWKJdT4Enjya1MBbD5cXE9D6D/7XCiy62ZMC5VAbrpMI9771Lsju7QP3ea797elrO5J9WcuhZN1c7fU5r+y6Z/K0HPvsC9scz191q5ybR1RKpnTpYs4+vTq1rR5d3G0y+iBdqhhz/1L5I2GdK9sODqLtnmtUyqm6pQF0/3oGZw93Y626LtiembHbRH+kAmVC9lRNTH9znfqUmQckd3q2P9lGXgLB165dq3KsL1myBPfddx+OHj0Kge8CxvV2r732Gh5//HEVqS4g/Utf+hL27dunJkWVyHVJGSMv+U4v//Ef/1GVpQG7Li/t/5Mi6Vjp918LrRePZ4xxiuRJakyN6QF6gB6oLA8UDLLr9C+yFFg+l5feN1N6mbkaq9IHSaw/IXuunj+08brco5lf7sW9dcuw7pmTFqy7eBYHN65A3bL1OGSCo7qrcEfLIE7qzxSAqsNVd67H4MtJ8CzArW7ZOvTrz6KHsO2bV+HeniQkPLTx3uTxEjM4+qSkDFmHQbvsIx3LcF3TIM5etC6eZw91Y21LmhzXDmQ/CZWK4zojb7fKf23laj/ogezZ6pAQWOZqs11Po3w3HHXDa7W/ht2JBLIdb75t9nrCFcnuC/zc9XS14fBmLLtuHQZ1mpPoIXSvWY9B/bAmB6/MrR3GP8dDbVi2qA51dWl+geFpSzY9EzOHsH5ZHe7desj20QyO9q3Gsrp70WvmzZc+3njQ2uaslQf+qqUBbDtk5Yk/OywpeFajX//yw1MPr/4asp+M9iKw6DojulsituusXO1ShpGT3dUHKTdkFmQ381jr9RubDrrSI2XVRI6bxdMJ1Q/G9WDmJAY33KseiKWD7Ida6qy8/r/px3obRi+SnOwb3PXzaiXvM6WKcW1fCn8417g2HFTnxFkcfGQZFi25BgHtK9szzrwC9EcqMLUh++ZnurH2NuthxaIlK7B21xGXf139nXIeGNcKfpeqMTWhJgXywO9///tsfF19L/D88uXLKi2MTF4q+dQl+vynP/2pM2mphuOy3fPPP4+bbrpJbSdpYh555BHMzs6iu7vbAeySy92E7V/4whfw9NNPQ6LgdVlycKnjQl4vKv3+ayG14rFK8b8qjni8FMflMel3eoAeoAdy9UDBIPt/Dl5WEey5Hti7nUS/Sxnez+f7vtIHSaw/IXuu3vcC5Uz7CZS9bsMhz3lmpbUI9NkTUgo4ur3bMzGhDWtdubQPoe06EyzaF14BjnXJHNSp9THBr6SHWISAAeVTtzcv6EakrwHVZR8TumfXxKxDAgqSe9t8th+rjclN3XDUZ38Dsqe2wdw+jzYbN9YpOdl9gZ95XDvy2s5VP/PsWhX1n26y1uxemWs7zH48i/6HJHf+Mmw+bH5ur/u2xdzOp10p+cot0O343cfX4pM7njR/eeEu1/vwxNuvDmSXNDgaqksfmdBdjjtHyJ6SGujsEWz7Zl3aXOZWvXzqntHTHn0cbx1F9+2LkA6yq3PrznuxVs3/YPXJzMv9WCcT15qR9k55ut/keJlSxejtZFkCf9iR7K75AtJ5RqfzyeLTWvRH4mw/1i69Eat3HcJZ+0HqzK97sVr8sdH7v8fsc657ry98T08U0wOSQz3XP4lUf/XVV/H1r38d73vf+/CJT3wC69atw/T0tAPEdeT5yZMn8d3vfldNairR7n/7t38LmQBVUr8MDg6qXO6Sz72urk5tI+sC7SWqvb29XUF7gfpSnv6TuhZTC7PsSr//MttSkeuxKYR3t6MhEEAg2ISuvRHE9HgiOobQ1iYE5bvGVuwYnEx+p7fxWU6HOxGKVMn15EwYofB0bufDmTB69kWROD+Cnr2TvvvEjvShNRBCROsWHUPPpgY1mXHDph6M6UAc+f7CJIZs/YMPd2HoeNxVZnS0B+2NAQQCDWjfPYaoLlOWmcpNxDE52IWmoN3ng5OI630z+SERw3hvKwJ7IlY9Mm6bgLet3veZ6hjZI+1yvxxPXZjC8PYgOp1+iWMqbGoxguhsAokzYXR6yggEgggdqxJv6j7j0nVeVOR1mH2Ydx8WDLI39xOyV/rAjPUvDtgv9sU190h2C1CvG079Z350641WdKpcVH3BkQfgyXYqYjGAzUODGHS9tmHtJ+9ITm4pEa/334hly5bhxjvXovtwP9YZ8Hrm0GbcsaQO19yzFpt39eOQjor3vcAbkF0ixu30MGcTdv5rOy92CmTPUodc2jwnyJ7lePNps45o1ktJ79I2bD8YybHfXG2YOYTNd14FKWdtRzf6D9m/blC65+aVubUj6Tudhz0gk3kuM36NoPvc68EseqbCcutY6kGCfvjhLVPltF8EN9D2+NxnH/N8TkLUBCQqXKWHiSZwVNLH6LzzUka+kN3uX/MXIIksmmT3dLo+tj7PDNm9D+Gs60bdorXOL1RMndR6Lqli7P4viT80ZNe/fLA1X6T9Y9dNeW3OkL12/JHS77Zu6lxckDkFkteZdHXh59SIHkioiHENsb1LDcz1Mh6PY8eOHSq1nKR7+fKXv4xIJKKizGUb/RIY/oMf/AASvS5R6hKdvmvXLpVORiZX/fnPf67AugD2K664Au9617vwl3/5lypvu3wmcD4ajTrl6XpJdPtC9Vml3wstlE7FOs7kszsQmpi2IOvsNMZ2N6N7NIZEYhoju/swdsYGu/EohrfkBihrFbJPh3swfDqB6XA3Bo6nXvdjL4XQtr0LnQ5kn8RASyeGTojeCcRODKGzJYRJFTkfw9jOVvSM2oB/egw9LV0YOWOXe3wArVuGMBWT9zFMPd+J1n4NyzOVm0BstButu8cwLSBa9Xkrul6wjpPeDzFE9rSha3unA9nTb5uAt63e94lE5joKZHeguj2uUefAbBTh7VKPNgeyS3satg/bWiQwfXgYY1onc9/4OPpaBjBpfsb1BbvWF+saxnJTrzW1qEnBIPvd296EvOYrYr77e49b6YMk1r84wLsUunq9Wej3uedktyJUCwbZVT7tFVi9oQ1tPq9+mZR05iDWX2el8Tj52gxmzp7EoV2rscyA7JYeMzh5qB/dHWtVvuxljxxM5p52DTjckD1hT3S6bZcAzmSUrAuy51IHX5jqBq4uQO0Fcub+uRxPtWmebXbpYfwjM+vgbJOpDda+My8fQv+uzVgrqT+WrcdBlS4mR6/MqR12Xe087CqlkJF/e8aps+dBTw56HmzyRqTbbZNofQ1JffRxAVN1fLde/qA6qbkLsusHPVu70WZOhCrHLQRkN3Nd56CJf93N9qXr48yQ/WTPvVj0zV6k/ALCrJ/Zl/a6QFbvHAq+18JS+cN7Tku9s3nG53uzTbXoD7P9rvUs/nBt6+Mffp+87lALapGvB7JFsWu4LktJ1zI+Pq4izQWEyySmAtIvXrzomuxUos9ffPFFNdlpfX29inZ/6KGH8Nvf/lZtJ5BdvpeJUD/wgQ/gL/7iL/D+979frUu58rr//vvx61//OgWyC2xfqGj2UtwnFPKY+Xqj3PaPH+5G87M+UdgKsrdi6ITP9eB8BANbJBo7iKatQxh53ohkv5CMlJdo7IGXLKDsardEHG/sQciOqG/YMozJE8PY8XAQgWAb+ib0PmkisGX/x/swIPtLlHUk5ImCTkaOx14aQJeUG2hA6xNDmLzg0x7zf2Iukey+EdNtCrib7YxORBBNRBDSkD0SsuprHC+yJ4ieI3ErCntLGNPGd/Lwok0i5RMJRPY0eCB0BKFgD8YF0GcqNzGN8JZOhE0IrfQfdkfC28d1/DAbxfhLUUtbHclu1E3q5GybSMDbVu/7zHWU9qWB7LFJjB+PQ7SwItmlPe0pWpu663XZp32/pZ/+jMss/vf0MfWiXuXqAUL2WPXA3EIO0lhW4XxR/JPfiuJOB6Znxg86E5tmTwHiD5YSfgBKPqvzSRdj/gNUYMWbOsYEfT7/HF5zp2lx6+eB7Imz6L1f0o4sUqlPztrHdkH2XOrgC8vc9cwZsudyPFMjWZ9Tm300kzKkDUYOeUu3g65fDbjb4C1nBv3/NxnZnZNX5tQOaaeVB93lVfWg5DqsG07m+nfBzRz0VO3KJV2MBu52vQsL2e2UReJFmfBU/8RW+qUQkF1Fytv54nPQxKWh00+mp+eXLsZKhXMHus2Ibzvfel3aNFGSWij5EMx9Ths+LKU//K5xPtcFl2d8vjfb5obsNeIPSd0VNc5l23szz6z2uT4Zfe94lJ+ZHuI6/VAMDwjwzvSnI9MFnEuamDVr1uBtb3sbli5dim984xuQewSd0kUDeYl2/7d/+zdIrnVJ/3LrrbfiZz/7mTMZqhwzHA4rmC5A/d3vfrcD2SWaXT67/fbb8cILLzhlm3WU/YuhhbfMSr//8banst9bUcKuKGwNrJvaEfID5IkYRp5oTkZcn59UqTysKOQ4xnvbENKQPC7ld7kBr/wvEsgb7EL4tETNxzC2K4DWPeOISaT1iSG0bR+xYPP0GIZGolbUvYL+nQjL2M/ef9iOCDf7YPLZVrTqhwYS/b1pAJHz1nVuerQHrTvHMqfAyQWySxtOD6NbAK6kitHH8/0/m4TsSVCcvO46n4nuXpjtfOYDyg147pRhHD/5WfL4SZ38PpM6pfGDt17qOD7bmg8U1DbJ4yTr49N29RAhgB17kg9E2neHMWU8EEnuL2X2YezYUJaHJxI534Nxo4xk+5N14GfUgh6oTA8UDLJLTnVJGTNfI8i+n1lfuMltKn2QxPoXDnKXWsv5nhNz2u83/Vi9rA43qjzJNuC4eBZH+tbhxrqrEOix807nMJlldjiXvNhJVGvdstXotieOTFw8i0O71mLtLvt4Km/6dVjdc9SOTJ/ByaH1WOFEsp9E74MrsK7vSHLi06H1WGZMjOrWwQvZNbiyJjzV27oge9Y65PZgwQ2oTVjp2T/r8fJvs26na6nA6zKs1ylkZCLT/7sMixyt3TnZT/YFsKKpF0c0DI4OqslD1w3Z/snqlbm2Y8aaSNKcZNcecOv0IK5JSjUQz6qn/GIix4lPdZn2cV3AVH2WoV/tfUzNvRDVAtCLrAlP9faFgOx2Tva6h/qtySNz0cQXAHva5zfxacsK1C1Kn5M9kZjBoZZlqPvmNhyyvWPl3K7Dvfq8123Xy5lBrNXpc/RnKcsS+2MBIHst+GPmUBturLvRfU0/tA2BJXWuCbHN84jryf+p1IJaLIQHBJBn+tOQXaLHn332WQXEJWf6pz/9aYyOjkKAt+Rp19tJeT/5yU/wla98RUH2a6+9Fv/xH//hSicjE6I+99xzKpJdoPp73vMevPOd74RMpCpR7QLZ/+Zv/gYHDhxwyjXrKMdYCG1Kfc+Q7/EXQqOFOYaVDqR9/5R/vyt43paaBiU+jp6N7ihoAaAKsst3zV3o2zuAAf3a2e6kJnHaJZDciNp2RTG7vothamRIlTU0MoWxp+xoZ9c2yWtaPCLpWcJOhHZ0X5sVJe6Mh6IIP96NMZVyJbmfUy/ZLkfIHt3fraKpo/u7UjVyjifHyBE0O0DdqJfz2UJA9jR+cOpg1CuRZlujrZamObZdIuFH+zB0WKcximF8T6vrFxZuyB5E175J66HMbAyTz3ci6HkQoFLkpMmT7+pvV1+ZbeQ6daIHytkDBYXs+Uxcmu/EqV6R8x2kcP/qgdyl7kuvN4v2/uJJDHasxh3LrrIiu+uuwY33r0fvYSNvt/yzPjmItvuX4SqJuK27Biu+240jKkWIfbHOBc4Z//TPDm/G6lvtYy5ZhsAjvU7kvLR1Zrwba+3v65auwNpdm10Tikp9Nj+0AtfUSQRwHa65bS26x1MjIS3dUiF7QoCjJ6+3C7LnUocXNuPGNf2eFBhuIJkzZM/lePm22dA/6acZHH1yNZYtMXXsx/o0kD1h+2XF0jrlF6tvjrjT9GTzyhzaoUG6a2JJpx0S6VyHum/aub49HszqISnn7BF0f1f76Cosu78NB/UDBPneU6boVnDIriZAXYa2Q8bAR447x0h2nXc/ubwq5TzNqkkOnhYNzr6wGQH7miH5+dc/M4htd2aC7NK2szj0X6uhvXPVsgDW93m84/RtApIqZoU9X0LSr4ZGiQRK7o+FgOw14o+zh3uxXv+PWbQI4o+2oZP+oMTwSTpv8HP3uUI9qEc+HsiWKkbAto5Ol9Qtt9xyiwLhkmf94YcfVmlbNFzX20ke9W9/+9sqgl2i2L/1rW/h5ZdfdiLSZTs5ruRn/9CHPqTysOt0MX/+53+uILuAd5kkVfK26/JNyC7rC5EyptT3DPkePx9vlM2+MpHkE03o2jeVnADT539FEmwa14RskP3RPoQnxjFuvCZ1nnd9DA8kTwfZFSjdNYwxKevwMLpbMkD2aBhdbSFEjMhlP8g+vDFPyH5+BDtSJtdszgDak6DZP2VKA/om0qeL0elOfNPFNPZlSBdjl2tEvDv+E/03GQ9KMvnBC9kzbZsBsmdsu/aFuYwOo914EJP0YhTDG+00OXp7j58kIn94U24pZRxNdFlccixJD1SEBwoC2Y+cfAMSyb575HfzbrTsK2W8fLYwM8jnO0jh/oTshfIA/0Eag1/+Y5j3NZI+oo8q1QNnxweTv5jgNYDXAHqAHqAHSuaBXFPFvP766/jP//xPFXH+iU98AjfddBNOnTrlpH/RgF0mJW1vb8d1112noti/+tWvYvfu3ZDIdZ1SRgD5pUuX8Mgjj6gJUQWov+Md71CTn/7Zn/2ZguySp/2uu+7C4cOH00L2hUgZU6ixf6nKqdRxgq53/KTkPm9D3xGd99we+81OYugJY+LT2BSGt2tQa44PM6WLkck729CtU7zMxhAZGXciy3UdVLoXA6Cmg+wCyTt1Tu3ZGEZ2pYHsFyIItXVZqWTMa5+ki2kJYdxOFxN9obsw6WJ0qpjYWJZUMaKbAdl9J//UE3P6TXzajTG77gm/iU+dNDV+k4rqcv0nPrUmu00grR+0jgZkz7qtq61zaXsckT3mhLxWJLt+wCC+SUJ2a91JLzRrbeukCJJc8RN9aOgdz/gAyfGibieXJfufyb4wr69cz9UPBYHsPztqQXZZ5npg73aFKMMss1SDGx6XcN7rAdOXXOfFmR6gB+gBeoAeoAfoAXqgFB4QKJ7pT+C5wOznn39epYeRNC6f/exn8cMf/tBJ/6LhuWwr6WP++q//WgH2j3/841i3bh3OnTvnwHjZVv4kZ/s999yDq6++GjIxquR4F9CuIbtEtj/wwAOIRCIuOG/WVepebM28Y/hKe19sfYpbvqQdCXgmCQ04ucDjJ8Po6WhCUCK1G9vRE04T6X5+HKFNMvFpAA2bejDwlP/Ep6qMEZ+JJz2Rx+kge+LCJIa2WvWR43RvSQPZBQS7osuLO/GpThUTG+nJEMGur78mZE8gER1Dj6HdmPmLUKO9Mmns0HHJWa/LkZQqPWhvlP5rQPvuMffDi0zlJtJMIKui3NP7QR3bgeyZvWPV09NWL3TPVMfYJIZ3tqNB+jHYhK69EVfufBOySx7/yN4uNAXtbfeYD3Ksh0CueQYMDU09uZ70FrWgFpXmgYJAdh2FLhHt8xVAR8MPHJl/NLx57EobFLG+1QvnTV9ynf8k6AF6gB6gB+gBeoAeoAdK4QHJpZ7pT8D55OQkHnroIQXAJQ+7AEK5T9F52DVkv3jxIoLBID75yU/iwx/+MO644w412aneTke7y/bT09MK1l955ZUqZcz73/9+Vb6ZLkYmVR0ZGUkL2aXcYmtW6fdjxdaH5Zf6uhVHPF7qOvD4PA/oAXqAHsjkgYJA9kLlU5d0MfnkdTcbWumDJNa/eqC76Uuu84JMD9AD9AA9QA/QA/QAPVAKDwj4Nv/kvfmanZ3Fk08+CZno9KMf/ahKEyOTkQoo975CoRC++MUvOpOddnV14be//a2rPClbUsf84he/UFHskrNdgLykh5HodQ3ZJWL+a1/7mpocVdfHrKesy+fF1qzS77+KrQ/L53WLHqAH6AF6gB7I7IGCQPbm/ssqn3q+Ygtkl7LyLUf2r/RBEutPyF6I84BlZL4AUh/qQw/QA/QAPUAP0AO14gE/cK2htiwl/cvKlSsVAP/c5z6HlpYWSMS6uY2sv/LKKyr9y8c+9jEF2VevXo2jR4+6otD1PpIqZvPmzSofu4B7Aery0pBdQLvkaV+xYgX279/vHMtbV3lf7H6q9PuvYuvD8nmtpAfoAXqAHqAHMnugIJD97m1v4jPrf4+7t7+Z10uVse3NggygKn2QxPoTsvPilfniRX2oDz1AD9AD9AA9QA/QA7l7wAuuNQiXpcD0xx57TEWaS351yaH+0ksvOeBcbyu50Ts6OnDttddCItO//OUvY+/evXjjjTccQK63leXZs2dx5513YsmSJQrIf/CDH1SR7ALXJW2MvGRd0tL85je/ccrw1pWQPfu9Ec+F3M8FakWt6AF6gB6gB4rhgYJAdok+F9BeiBcj2bMPoAjgK0ujYpy4LJP/EOgBeoAeoAfoAXqAHqAH5uIBP3CtgbhMOnr33XerXOlf+cpX8IMf/EBNgir76G1kOT4+rsC6pJSRSPZHH30Ur776qmsbvb1OFSO53QWySwT7e9/7XieKXSY+1ZOf/vu//7tKN6NzvvvVdS5tnc+2lX6PNZ82cx9eQ+gBeoAeoAfogcJ5oCCQvRw7pNIHSax/ZYH0TP1VjucH61S4iyi1pJb0AD1AD9AD9AA9UAke8IJrDcMFbD/33HP4/Oc/r6LK//7v/x6nT592gXPZRtook51+4hOfUBHvklrmxRdfdCZF1eXp5WuvvaZSzghgv/rqqxVg/+M//mN1DIlg/9M//VMF2WXy1J6eHlc53rrK+2JrnGk8XwnfFVsfls/rHD1AD9AD9AA9kNkDhOyx6oG5lTD4q8U68iKU+SJEfagPPUAP0AP0AD1AD9ADxfeAwG/zT8NwAeg//vGPFTyXSPPvfOc7kLQw+ntZ/v73v8dPf/pTLF26VKV9keUPf/hDFX1ulinrenuJer/pppsg6Wck8l3SwrzrXe9yIPv73vc+yOv2229X+eDN4/mVWWyPVPp9SrH1YfnFP0epMTWmB+gBeqCyPUDITsjOSWKL7AFeJCv7Isn+Y//RA/QAPUAP0AP0QDV44A9/+IOLXWuoLZC9v78fktblne98J9asWeNElcs+km/9yJEj+NrXvqYi0mUC03/4h3/AiRMnFFA3C5UypTyJYm9vb1eAXSLZZXJTeUlOdpn0VNLECNAX8C4pZ15//fWUssxypR7F7gNCdp7nxfYYy6fH6AF6gB6obg8QshcZsFb6YI31z/+XDryIVvdFlP3L/qUH6AF6gB6gB+iBSvCARKebfyZkHxwcxBe/+EW87W1vU5Hlr7zyigLlJ0+exNDQEL7+9a+riU5lstPPfe5zeOGFF5zJTs0yZf3NN9/EoUOHcPPNNyvIfuWVV2LRokWq7A984AMKrEuqGHldd911KkJewLyuj7c8eS91L7bGlX7fU2x9WD6vc/QAPUAP0AP0QGYPELITsjOSvcge4EUo80WI+lAfeoAeoAfoAXqAHqAHiu8Bgd/mn4baArgFpN92220QCC4g/cEHH8QjjzyCe+65R73/0Ic+pJbXXnsttm/fjpmZGd/IcylL8rk3Nzer9DMyOapEvkvUukB1Ddklkl2i2NeuXQsB+bouUj9Z9/5J3YvtEUL24nuw2H3I8tmH9AA9QA/QA6X0ACF7kQFrpQ/WWH9GspfyAsVj8x8kPUAP0AP0AD1AD9ADhfGApH0x/wRm6wjy/fv34+6778Y111wDAeoahstSXpLi5cMf/jB27dqFixcvOlDcLEPWpa+efvppFe0uE5pKLna9r6SKkbIEsMvEp5KrXSZc9UbYm3XU61L3Yvug0u97iq0Pyy/MeUgdqSM9QA/QA9XrAUJ2QnZGshfZA7yAVu8FlH3LvqUH6AF6gB6gB+iBSvKAQHX9J1BcvyS9y7e+9S0F2QWGy4SkV1xxBd797nerCHTJp/5Xf/VXKoJd8qNruK4hvbyXzyWNzDe+8Q186lOfguRil4lO/+iP/gh1dXUqJ7vAdQ3Zv/vd7zpR7LpOfks5xkJoTMjOc3khfMZj0Gf0AD1AD1SvBwjZiwxYK32wxvozkp3/AKr3HwD7ln1LD9AD9AA9QA/UlgfMlDECxuVPlr/+9a+xevVqSPR5fX29C7ILcBfwfsMNN6jgHHM/AeD6FYlE1KSpn/nMZxSsl0h1iWQXQC/R8bLUaWIkYj4cDucUxb4QqWLkPKj0+x6ey7V1LrO/2d/0AD1AD5SfBwjZCdkrfkBZ7gPi6rnwxRAZjSCWKL8LWfVoTG3Zl/QAPUAP0AP0AD1QPA/4pYwRaB6NRtHU1KRSuAhkl/zpEsX+nve8R4FxiUT/7Gc/6+Ri16BdALtEsEtedcnhLttIFLuklnn729+u0sPIuuwvqWKkXEkfs2HDBpw7d85JV+MXwa4/W4hUMeK5cr+nyFY/njfFO2+oLbWlB+gBeoAeyMUDhOyE7BU/oMw24Cz197mciPltE0NksBvtDwcRCATQ0LIDocPRIvysdhrhPWFMZ4Ds0xND6O5oQjAQQCDQgNYnQhg5Gc+xLhGEAp0InynCxTsSQiDYhXDUW/Y0wlsCCEW8n/N9fp6kftSPHqAH6AF6gB4oVw+YOdAFlgsov3TpEr7//e9j6dKlaoJTmZRUALu8NBj/9Kc/7YLsOoL91KlTaG1txZe+9CVcd911qgyZ7FRSxQiwF8guUewC1wW033TTTSpyXuqhYb0G6t6lbLNQOpb6nkGQ+GIAACAASURBVCHf4y+UTjwOr230AD1AD9AD9IC/BwjZCdkJ2YvsgWJffCafbUd7/ziiF6yTPH5mDH0tQfRN5Aq3/S8OqfXOBNnjiPS3oaGtDyMnY/bNUBzTEyG0B1sxcCyXYxQZsgcCCG4PI+p6SEDIntrPufQVt6Fu9AA9QA/QA/RApXpAR7ML4NYviUZ/5pln8NWvflWleJHIc0kTI9HsshToLqlfpqenFZSX7QWyv/TSS1i3bh1uvPFGBdhlG4Hysr+A9o985CMKtAtkl5eknZGJUWdnZ51je8G6+X6hotilL/OF3KXev1L9yHrzWkoP0AP0AD1QLR4gZC8yYC31YIvHzz+ner4aluJiMfV8K4L9k76RP5E9AXSGp43vBG6HEHHBZ7+LfHrIHo+E0Nzch4gN+s02x89r6J5A4sIUwrvb0RQMIBBsQvvuMKacfTyQPYdth0aG0PVw0IpEPzGE1mA3xmI+dZdI9i1DCO9pReuzpi6pkD12bBjdmxqsXwVs6kHYFYkfQ2Rvl1P/rr0RjDyVjIRX2j4/gqGtTQjuiVgaZ2yHT12z9gP3Mf3FdfqBHqAH6AF6gB6Yuwd+//vfuyC3wPaJiQk8+OCDuPrqqxUYl/zpEsn+3ve+V6WMkaj0qakpyL7xeBzPPvssHnroIQXmr7/+elx77bUKrAtkl+h1Ae4C2QWsC2CXz//lX/5FgXqB9Brwm1DdXJfjLGTf5jvmL/X+C6kVjzX3c46aUTN6gB6gB6rfA4TshOwVH7VR6gFttuMv/IU0hpEnAugeNeC2AW6LAdkn+4No25ctRc00RrY3oP3ZCGKzCSRmY4g8246G7SN2ChoTsueybRBtT41hWsqS9sWjGAunyRmvILukupnEQEsrQhEd5e+B7McH0NrSh7Fpq0z1q4C2LozYKWyi+9sR3D6MKRvkxyIDaA+6IXuwLbl/IpGtHdX/T2bh/U9NqTk9QA/QA/QAPZCLB0zQLcB7ZmYGnZ2datJSiUKX1C4C2HXKmPe///14/vnn8d///d8q//rtt9+OL3zhCyqCXaC6QHSZ4PTKK69ULwHs8l4gu0TC33HHHZicnFSQXgN2Wfr9SZR8Lm0o5DbZxvTl/n0htWBZvIbQA/QAPUAP0ANz9wAhOyE7IXuRPbDQF6ZouAvBlgFMGmDdrEPhIbsFqt3R8T4Xo9PDaNs4hClXvaYwtLENw6dlewOyz2VbV3k+x5XvHcieQCIaRleLjro3IXsc471B9BzRAN4qK36kB80q+j2KYaeuyeOInjqne4q2WduRLMfsI65TF3qAHqAH6AF6gB4otgd+97vfOdHkArtffvllfO9731PR5wLZBY4LWBfQLiljBKL/3d/9HW677TYF1j/5yU86EF1Hqwts1/tKyhiJYJfl1772NYyMjODNN99UTD0dXNfAXepW7PZ7yy93iJ6tft728D2vIfQAPUAP0AP0wMJ6gJC9yIA122CI35c+nUux+2AhL2rR8A40tHRjLGWCz+SFJQUEK7idX7qYnCLZTdDtgHETchuQfS7bOmUl25iiuae82Gi3HUFvHt9al8ljU14q9YtRP+OYGSG757hWvcxjZqizcYyU9vC7Bb/xZh/Qq/QAPUAP0APV6IHLly8r0C450nft2oXPf/7zKs2LAHQB5BLNLoBdg3ZJGSOR6gLO5TuB8PLSE5wKbJcJTiXVjESvyzY333yzioCX9C8SoZ7tT0B8KbQu9j1BscsvhWaFPObx48fBFzWgB+gBeiB3DxTyGsyyCjPOJWQnZGcke5E9sCAXq9koRn4kE4+GEPHLSW5A2WJA9pxysktUd7M3wn4SA81pItlz3dZoW1qtU2B3HJE9begKRxDeoiPR4xjfHUiJZE+WOc9I9oztKMyFPFlHlkct6AF6gB6gB+gBemBuHhCoLROaPvLII/jMZz6DO++8E9/+9rdV2hiB6+9617vwJ3/yJ7jiiisUQBeQLmlgBMILUBeYrmG7RLsLlJeXbCeR70NDQ3jrrbcUzM8G2UsF2MUzxYbgxS6fvp+b76kX9aIH6AF6gB4otAcI2YsMWIs9mGL55R8JX+iTNqW86TH0tTWg7UcjiOr85BnAc3RfG5qfGnfyok/u60JQT3waj6CvsRVDJ/wutuknPk0k4oj0C+TvQfi4zgUfx/RECO3BVgwck/JiGNvpk5N95xhiqr5mpPhctrXremEKI1lzspvtkvzsQQSNnOoJlZO9GyOn7ZQx8WmMDw47E7p6c7JPTwygs1FD+gRSH2Bka4dZH66neDuDj7kt/UIP0AP0AD1ADxTOAxcvXsT27dtx4403qtf999+Pm266SeVjF8D+jne8A29/+9sVbH/3u9+tIteXLFmiItYlZ7sG67Iu4F0mQv2nf/onjI6Oquh1Ddf10i+avZSAXbxU6fdVPB8Kdz5QS2pJD9AD9AA9MB8PELITslf8gLLcB8TzOTHnso9EYqekN5GUJyrFic+F8UIEA5sa1D7Bh7sQOhJGX96Q3TrO9MQQujuaEFQpVxrQ+kQIIyeNHOcXphDe3Y6mYACBYBPad4cxdUHX0YTsCSTmsq3A2BNDaA12Y8wvkj8lkt0+puRnNyG73GAdG0a3o087esJTiDuwN4bI3i6r/o3Wd2OZcrLLfhnbodvO5Vw8z23pF3qAHqAH6AF6oPAeeP3119He3g6Z0FQg+dVXX62i1SX1i0S0C1wX4P62t71NRbfraHaJaJdJTpcuXYovfelLeOCBB7B7926cP39eAXZzktN0udhLDdjFT+V+T5GtfjwnCn9OUFNqSg/QA/QAPTAXDxCyE7JX/IAy24Cz1N/P5YQs923jFwxg7oDnWr7oSn71IEIqUr+WdWDby/3cZf3oUXqAHqAH6IFcPSAToG7evBl33HEHbrjhBpV/XSLZJW2MRKzLUtLDXHPNNSodzEMPPYR//ud/RldXl5rcdGZmxgXX/aLW9WcS2V6KSU79tCj1PUO+x/drEz/jeU8P0AP0AD1ADyycBwjZCdkJ2YvsAV7QFu6CVmyt40dC6Ds8bUe2xzF9uA+tzSFE4tXTxmJryPLpFXqAHqAH6AF6oPw9IOD7zJkz+PGPf4x77rlHAXUduS5pYr74xS+isbERR48ehUxoakarCzjX7zOlh5H9yskL+ULuUu9fTlqyLuV/jrOP2Ef0AD1ADxTeA4TsRQaspR5s8filz9nOC1fhL1wl09RO/dJgpMMZi1ZR+/jrhLK62S+Zz+kD+oAeoAfoAXogkcAbb7wBncZlbGwMW7duxb/+679iw4YNOHjwIC5cuODkWzfBugnY/dLDyCSoUna5/Z+r9PumctOT9eE9Aj1AD9AD9ECteYCQnZCdkexF9kCtXVTYXv4jpQfoAXqAHqAH6AF6oHo8IED88uXLEDiuYbpeaqDuXZrfS2oYeS/AvhzhuvYqIXv1eFb3KZfsU3qAHqAH6IGF9AAhe5EBa6UP1lj//CPhF/KE5rH4D4QeoAfoAXqAHqAH6AF6oFge0NHtAtz/8Ic/qLQwOr+6Xgpwl+9km3IH66ZOlX7fY7aF67wG0AP0AD1AD9ADC+8BQnZCdkayF9kDvLAt/IWNmlNzeoAeoAfoAXqAHqAH6IG5eICQnX6Zi1+4Lf1CD9AD9AA94PUAIXuRAWulD9ZYf0ayey8afM9/JPQAPUAP0AP0AD1AD9AD1eaBSr/vqbb+YHt4jaEH6AF6gB6oNA8QshOyM5K9yB6otIsC68t/ZPQAPUAP0AP0AD1AD9ADteYBQnZ6vtY8z/bS8/QAPUAPFNYDhOxFBqyVPlhj/RnJzotuYS+61JN60gP0AD1AD9AD9AA9UH4eqPT7Hnqq/DzFPmGf0AP0AD1QWx4gZCdkZyR7kT3Ai2ptXVTZ3+xveoAeoAfoAXqAHqAHKs8DhOyV12c8z9hn9AA9QA/QA+XkAUL2IgPWSh+ssf6MZC+nCxbrwn+g9AA9QA/QA/QAPUAP0APF8ECl3/cUQxOWyXONHqAH6AF6gB7I3QMFgezPPfccdu7cmfF16tQpLGTHVPogifXPH26Xi4YL6XseK/eLH7WiVvQAPUAP0AP0AD1AD9AD2gPlcu8w33rodnBJT9MD9AA9QA/QA6XxQEEguwD2xx57LC1kl+82btyIhQTt8x2ccL/qgdvl0pe8uJXm4kbdqTs9QA/QA/QAPUAP0AP0QK4eKJd7h/nWI9d2cjueE/QAPUAP0AP0QHE8UDDILqA9XScJXF9o0D7fwQn3I2QvtAfSnRf8vDgXNepKXekBeoAeoAfoAXqAHqAH5uqBQt8DLHR5c20vt+c5Qg/QA/QAPUAPFNYDBYHsAtGzRakvNGhf6EENj0c4n84Dly5dSvsAihe0wl7QqCf1pAfoAXqAHqAH6AF6gB6YqwdkvJ5uLF8pn8+1zdye5wk9QA/QA/QAPVBYD+QF2WdmZjA5OZnykhztLS0t2LdvnwsuLiRor5TBEOtZ/XD+4sWLrvOAF7HCXsSoJ/WkB+gBeoAeoAfoAXqAHsjHAzJer/T7snzaz315/tAD9EDNemA2jlic/V+z/Z8obN/nBdkFsAtMz/TydtRCgfZKHySx/tUD3y9cuEDIXuALl/e6wveF/cdAPaknPUAP0AP0AD1AD9SSB2S8Xun3X7XUX1Xf1jOTmDyf/RoUOzGFKO+zeK9ND+TngUgIneHp/MpgH1A/2wN5QXYdyb5t2zbIS0e1p4tk1/8MFwK0V/ogifWvHsgufclo9uyDRH194JJa0QP0AD1AD9AD9AA9QA8slAeqIYpd7jcWSq+iHScSQiAQcL0aNvUgfDJe0LZF9gQQiuR/fk0OtmHoWP7lpOoZw9jONgwct8qOvTSE7o4mBEWbxlbs2DOG6Kz93cgOtO+LFlSf1PoUo40skzqXgQemxzGw1T63AkE0dXRj6KUM19JYBKGWgAvIx14KoTXQifAZ//ZED4fQ9XBQXdcaWnZgwFN+/GQYPfr8Djah7YkBRFwP2OKYCvegvVGujUE0bfV+739c+qt0uuQF2XXHyaSnmSY+1duZy2KDdkLq6oLU1dCfs7OzHADxCS89QA/QA/QAPUAP0AP0AD1QJh6Q8Xk13GdUDWTfEsa04Y3pw31oDfZhvICpHAoF2QtVjslI1PrpYbRvGlYR6vHjA2jvCGE8aj9oiE9jrLcVwd5xxEWn+Dj6GgurT0p9jP7gd6UDd9S+wNrLuRNsRd/haSRUJHsUseNhdG8JYdLveiOAva0NbQZkF8De1taWFrLHj/Qg2NKHsTPW+Rs/M4a+llaEjtnn8/kxdNt1UOfzbAyT+7oQbBnApH3eTb/QhYbtw5iKWe2PTYTQ2hJC5EKB9eB5XrBxWcEg+8aNG7NOfuq9MBQTtFfLYIntqK6HBYxo5z8D73WQ7+kJeoAeoAfoAXqAHqAHFt4D1RLBru8XK95DEsnugeyJRAShQAMGJGL8TBidgT6ERyWqU0eO2lGeKlJUIlG9ke8xRPZ2oSkoUeDt6AlPYcyIZJ8OdyKwJ2LAlWmEt+iyE0jMRjGyu93aP9iE9t1jiCZkGyPi3tk/c11UxOqmBieideiYf8Ts5LPNrkjZlH49OYTWYMiGcHGM7w6g50hho/1TjkkAZ3hk4a9V7I8iaK5+ORNCRLydQ7qYyb2dCEXikIdrKrXM7CQGtgjslmuUcc1wzhX5RUoAO0bc53n8cDcCO8cQk+2OD6C5w3qg5vTx7Dj6At0YU1B9EgPNbRg6abY/jvHeINr38xcsjmaO5qZOpVsvCGTPB5bns28mUfVgg8vqgtTV0J+S81EG9ZcuXeI/6zK7IGa6pvC70v2jovbUnh6gB+gBeoAeoAcK4QEZf8s4vBpysHvviwqhT0nL8IHsrkh2BdkbsGP/lAWoEgmoKM+OZPqEWGQA7Y1dGLFTN0T3tyNoRIFOTwygszGZLiYzZBdI1oD2ZyOIqfQsMUztH0D4tHUueiPZM9dFYFknhk/rCNZJDA/aoM11PxRF+PFmJ1WMX3/ERnYkIZ2tQbB/kveVLh15vfTzDj8zfGFHsneHJyHR4bnmZHcgu+O3dJB9GiPbfR6AReVhoQ33E1GM7eqEqoNEz5+fwlh/JzoHJ61fqri2TdY9NmqAeqceye/Zz6XVoiCQXToxH1iez77pDOQddPA9YTs9QA/QA/QAPUAP0AP0AD1AD9AD9EA1eiDdfXHFfJ6Sk90Tma4gu4ZTAlGiGN7ojfJMYOr5NrSpPOXW98M2FNc6mHA8I2Q/PYy2jUOYSgOxzHKy18WC7EPHYxY8S1OmFbnvFxVrQ6NoGF3BVjeE93k4odvKZWlhG/Uvc/3PTyK8ZwdaJd+5/FJl5xDGpzPXOXfIbj0EVOli7DLjZ8YR2tKAoAPZE0jEpjCyu9Wei6IJXc9POg8RJcI+4I10l2sHz/myfqhYMMguF5B8YHk++/pdvKpx4MQ28YaAHqAH6AF6gB6gB+gBeoAeoAfoAXrA6wG/e+KK+iwbOEqB7P4RpElw7v+9CceT22qwZqSLyVIfs5x0cNwsP35yBCE1yWIDWp8IYeSEO42E1Vf+dVbfRcPY0diK7lFPmogs9awoD6R9+KD7h0v2ZxE8IOliDkYxPRFy/RLGT+u5QPZEIo7J/d32pKUNaN8dxtTJMDp1uidJNdPSakWyy69l4tMY729Hw/awmpMhwUj2sobpfv6QzwoK2aXAfGB5Pvt6G+gddPA9B6L0AD1AD9AD9AA9QA/QA/QAPUAP0APV6AHv/XDFvc8Gi1Mgu0Sqp6ZWmdzbXKJI9kx1McFgHLHjw+gK6rzL5nf+kD060oO2xjaEXvIB89l0I7iuSFBXcedvxfksjriePNTJyR7DyJOpedTNvpgbZDfPbWs9PtGH4G5r4mKV9mXXmOfXLXINaMXQCdmeOdlN7StlveCQXRo+X1gu+8kEqo899pgqIx8Rq3HgxDbxhoAeoAfoAXqAHqAH6AF6gB6gB+gBesDrgXzuncti32ywOAWyJyCQqiElJ3s3xs5bQMubk92C28mc7PEjPQhsGUZU8iEn4lA54J1JDLPnZO8+HEdC5WvPUpd4BAM/GkLkjM7JPo6+Zj/I7klxMzuNsafa0NDWg5Go1SZvXylQ95Q5eav/dt79+J461bIH4od71HkVlhROL0lO9ihiJ+ThVzu8KaZMnTJD9jgiTzWgdXDKerBzIYKB/jFMq+tLArHjYXS3GOWfHkZ7sAvDx+2HZ7NxRA/3oTXYh3F7HzXXgzGvhOSPb22RCVfpX7Nfymm9KJBdGjhX0F5IwC7H9w46+J4DUXqAHqAH6AF6gB6gB+gBeoAeoAfogWr0QDlBhnnVZR6QXcD4VLgH7Q8HEQh4criryNoYInu70BS0cy7vHkP4qSRkl1zqI082IRgIINDYju79IxjaYuREn41iZHe7a/+oHbEbm+hDWzCA4KZhO2975rrEXhrAjpYGlXs5+HA7erxpX+xyI3uC6B61oJtKNyN1S3klc9Ob289L94qLQCZcZD8XxgMyEfKONvv8V9ePbgz5/VrEOEfmBNkTMSNdjN/1KYHYiTB6OnQdJJXUgCcvvH1dkbzxUsetyYme6YPC+KDQOhYNsktFcwXthQbscuxqHDixTbwhoAfoAXqAHqAH6AF6gB6gB+gBeoAe8Hqg0KCA5ZUI4BwfQPPOseTkhwbgS+0TSSexAyN25H7q9yVqQ8Y6s07spzLzgJMupszqxfOoIlM9FRWyy8UjG2gvBmCX43oHHXzPgSg9QA/QA/QAPUAP0AP0AD1AD9AD9EA1eoDgrloAWRTDm4xo+gygTfI7t+6JeHI6V4sObAfP6QXywGwcMTs9CzVfIM0zXNcqvQ+KDtlFoHSgvViAXY5ZjQMntok3BNoDr7/+OviiBvQAPUAP0AP0AD1AD9ADtegBPSbmMnl/VOlggvU34NbxMIaP2/nbM8Co6EiYuZkz6ENPGZ6iThUZFU0PV56HFwSyizG8oL2YgF2OxwFXcsBFLcpbi1q8MWKbCQToAXqAHqAH6AF6gB6gBxbSA9V+T0QYU3kwhn3GPqMH6AF6oLo8sGCQXYxjgvaNGzfiscceU58Vw1TVPohi+8obnKfrn4W8keCxeONKD9AD9AA9QA/QA/QAPUAPpPdAujF7JX5ejHtqllld8If9yf6kB+gBeqC4HlhQyC6dqUF7MQG7HKcSB0asc2WC82z9xhub9Dc21Iba0AP0AD1AD9AD9AA9QA+UgweyjenL/XuCk+KCE+pLfekBeoAeoAeyeWDBIbtUSEC7vLJVLp/vy30QxPpVJ1A3+7UQNwuvvfYa+KIG9AA9QA/QA/QAPUAP0AP0QHYPFGL8bY7nK2k9n3tn7ktwRA/QA/QAPUAP5O+BkkD2hei4ShoQsa7VB9xzHeDzZin7zRI1okb0AD1AD9AD9AA9QA/QA4XwQK5j9Eq8P1uIe2weI38AQw2pIT1AD9AD1esBQvZY9QHeShwUVkudsw3cC3FzwDJ4k0kP0AP0AD1AD9AD9AA9QA/k74FsY/dKukchtKleaMO+Zd/SA/QAPVAZHiBkJ2Rn/voCeCDbAD3bTdD58+fBFzWgB+gBeoAeoAfoAXqAHqAHCu+BbGPxbGP5SoDtBDCVAWDYT+wneoAeoAeq1wOE7AUArJUw6GIdi/eLhUyD8nQD+lxvns6dOwe+qAE9QA/QA/QAPUAP0AP0AD2Q3QO5jrHTjdEzjevL/X6K0KZ6oQ37ln1LD9AD9EBleICQnZCdkex5eCDTQNxv8H7p0iW89dZb4B8VoAJUgApQASpABagAFaACpVFAxuMyLvcbr2ca35czaCeAqQwAw35iP9ED9AA9UL0eIGTPA7CW8yCLdSte5LrWNt0A3G+wLvsQrpfmJopHpQJUgApQASpABagAFaACfgrI+FzG6X7j93RjfX0vUG5LQpvqhTbsW/YtPUAP0AOV4QFCdkJ2RrLP0wN+A2/vAF3/ZJWA3e+2hp9RASpABagAFaACVIAKUIHSKiDjdD1m947l/cb75QbXdX0IYCoDwLCf2E/0AD1AD1SvBwjZ5wlY9WCGy+JHjJejxn4Dbu+gXA/W5aeo/KMCVIAKUAEqQAWoABWgAlSgPBWQ8boeu3vH9H7j/nK8PyG0qV5ow75l39ID9AA9UBkeIGQnZGck+zw84B1sewfjepAuE1Qxir08b6ZYKypABagAFaACVIAKUAEqIArIeF3G7XoM7x3be8f+hOyVATsIpdhP9AA9QA/QAwvpAUL2eQDWchxUsU4LF1HvHWTLe3MgrgfnMlCX1//8z//w7oUKUAEqQAWoABWgAlSAClCBMlVAxut67K7H8ub43m/8X273XwsJEXgsQit6gB6gB+gBeiDVA4TshOyMZJ+jB7yDbHMArgflepA+PT1dprcSrBYVoAJUgApQASpABagAFaACWgEZt+sxvB7Tm+N87z0AIXsqXCBwoSb0AD1AD9ADtewBQvY5AtZyG0yxPgsXwS5aewfX5sBbD8b14FwG6oTs+raFSypABagAFaACVIAKUAEqUL4K6LG7Hsvrsb053vfeC5TTvVgtQw22nVCPHqAH6AF6oBw8QMhOyM5I9jl4wDuwNgfdeiAuA3M9SD979mz53kmwZlSAClABKkAFqAAVoAJUgAooBWTcrsfwMp7XY3tzvO+9FyBkJ9QpB6jDOtCH9ED+HojH4qCO+etY6xoSss8BsJbTIIp1WdgIdtHbO6g2B9x6EK4jX2SALgN1QnbetVEBKkAFqAAVoAJUgApQgfJXQI/dZRyvx/R6jG+O+733BOVyX1brYCNr+6Nj6OsdxtQFQqSsWiWoETWqNQ9MI7wlhAi9zwcNeXqAkJ2QnZHsOXrAO6A2B9syANeDcR0BIwP1M2fOlP8dBWtIBagAFaACVIAKUAEqQAVqXAEZt8v4XY/l9dhexvnmuN97T0DIXiAYFwkhEAikvvZE8oc+0TGE9owhmic8IXgtUF+zH/L3NDUskIYxTIV70N5oX3saW7Fjz0iGh3ExRPbuQKu9fUNLJ3rCU4j79UdsCuHd7WgKWmX7bRs/GUbPpgZ13Qs+3IWBl2KedsWN+gXRtHUAkfM8D8v5WkzIniNgLZfBE+ux8BHsorl3MG0OtHWEix6I6yh2GagTstf43RqbTwWoABWgAlSAClABKlARCuixuwbtemyvx/rm+N97b1AO92jlDB1yqptA9i1hTPvBqjw/i59nGoic+iBPnXkMws9K80B0fzuC24cxFYtakezxaYz3d2LHC9Me2G317eSzrWr7SRt0x8+Moa8liO5RLxyPYWRnO/pGphCbtfaVbXuagwgds31yZgRdjV0YPmHve34coZZWhCLJ69X0C11oUPWz9olNhNDaEkKEv8jx7Z9y8B8hOyE7I9lz8IB3IG0OsvXAWwbiOvJFR7G/+uqrFXFTwUpSASpABagAFaACVIAKUIFaVkDG7X7R7Hqsb47/vfcGhOw2NMoH0maB7NPhTgR2DSUjQ4NN2PFCVIGW2MgOBHvH3dGkp4fR3jyAyUQEoUAnwmd0He3I0IeDCASCaOroQfhkEmqVA6RhHXRfcUkvFNMDkiImgM6wAPVc0sXEMLYzgL4Jd50E1Dc/O5kV+irI3tKFEftaNPlsM9qen3LtF5/oQ3DTsP2rm0kMNLdh6KR5vDjGe4No329d++gPU5vyWCdkzwGwlsOgiXUoTQS71t07kNaDbD3o1pEuZhS7DNQJ2Wv5Vo1tpwJUgApQASpABagAFagUBfTY3QTteoyvx/z6HsB7b6DvGUq5rHjYkiVdjILsLd0IH7ejPqPD6Ax0YyyWQCI+jr7gDowYaRQm9zbbIMoN2VVkaEcy5UIsMoD2xiT4qngd83nQwX1dwJNeKA9oWcx+UJHsHSGMn7Ej2bOcA/HjA+jcEsJ4VB7MxTEdGUb3lm6MOQ/xvJpZIF9SYTXJcab191GEHw8gadS43QAAIABJREFUFNHv7WVsDN36uhYNozOQmic+NtqNwM4xxLLUtZi6sWxPvxl9QchOyM5I9hw84B1I6wG2HnCni2KPRqOVcl/BelIBKkAFqAAVoAJUgApQgZpVQMbtuUaze+8NSgnX9bErHnrkEsnuys8ukCoZoZ6E6gI/Igg50N2E7FEMb/RGhiYw9Xwb2vYxMrTiPWSALrYlPQSkNqY2cUQPD6G7ownBQAANLTsQkhQvGbw0PTGAriY7h3tLTwbAbh4ngdjxYXS16VQvcl1qx3DUvY26dulf3sg1sUNHtRvbZblWsn8NrTL0Y7F0ImTPAbDqgQuXpY0mL6X+5kBaA3ZZeiG7pIkxU8UQstfsfRobTgWoABWgAlSAClABKlBBCnghu5mbXY/5zfsA8/6glPcp+tjFAgYLVm4WcKQi2V2QXSJEk5A94aSHSUBSLjQ46WNMyG6uJ0FMatnJ7xas/SWAQWwb+5ke0B6w0sWMn59EeFcrWvsn3emn7PMzGu5Cg4p8t1JMxY6H0e3Jo55J08hTAXSpfO+MZM+kUyV/R8hOyM5I9iweMAfQsm4OrmXArX9G6k0VIwP1V155pYJuLVhVKkAFqAAVoAJUgApQASpQmwrIuN0L2mV8r8f6Mu437wO89wgadpdqWclQQtU9X8ieiGHkiSD6JqL2UudZN8G6RLI3Y+C4BmvWUqLgGcnu1qTi/cSHFkx9k4MH4hf0dcLIyX58AE2NMp+D95yQHOmtnhzpCVjzRYz5QnnveZSE7AkwJ7tX3+p4T8ieBbCWapDE45ZP1Lx3AK0H1zqiRQ+8Cdlr84aMraYCVIAKUAEqQAWoABWofAVygewmaPfeI5T6/s0Lcyrufd6Q3YpgD7a0olVNeKqBjQnZE5B8xg0pOdm7MWbkc6847VJgoG47l+xLeiC9B6Yw1NaAzr3jiF6wc7LPTmOstzV1ImV1jlmTjrb2jmE6bukaPz+J4e16ItI4Ik81oHVwCon4FIY62tAnqWdmrW3V/A9BY/6HMyPoauzC8Al7nonz4wh5ouLVHBLbhzElc08kEohNhNDaolPOsG/T923ptCFkJ2RnJHsWD3gH0H6QXQA7IXvl31yxBVSAClABKkAFqAAVoAK1qUA6yK6j2XWAjb4X8N4jELLnCTUEsgfsPMfm0k4Rk5rSxZMuRiCYmgA1YE94quvjhuwyWeFUuAftDwcRCATR1NGD8Ekdzar34bIc4RXrRF8W3AOxKYR3d6K10b72NLZix54RTF1Io/XsNMb37nC2Dz7cjp6wzuFuQHa5Hqmy29EUlLL9rzXxk2H0bGpQ177gw10YeMkG7s6DM/t6peoXRNPW5KTNBdfCOWaatvP7nH4dQsieBbCWerDE45c+ot07gNYDaz3QzjTp6enTp2vzLoWtpgJUgApQASpABagAFaACFaSAjNv90sUQshO4EGbRA/RAtXvASBdDmJwTTOY54X9OELITsjOSPYsHcoXs3glPJRqGkL2C7qxYVSpABagAFaACVIAKUIGaVUDG7emi2SWoRgfY6IAb7z1CqYOjCDz8gQd1oS70AD2QiwfiMf6iJReduE3m84mQPQtgLfVgicevnEh2QvaavSdjw6kAFaACVIAKUAEqQAUqXAFC9szggGCF+tAD9AA9QA/QA5k9QMhOyM5I9gwe8EaoyHsdvaKjWXS6GEL2Cr+zYvWpABWgAlSAClABKkAFalaBfCG73CeUMkCK4CMz+KA+1IceoAfoAXqg2B4gZM8AWEs5SOKxSx/BLn2QDbILYCdkr9l7MTacClABKkAFqAAVoAJUoEoUyAbZdcoYHXDjd59Qynu4YoMDlk84RQ/QA/QAPUAPZPYAITshe0kjLko5EM3l2H6DZz2wlkh2QvYquatiM6gAFaACVIAKUAEqQAVqWgFC9szggGCF+tAD9AA9QA/QA5k9QMhOyE7InsEDXsiuAbssc4Hsp06dqumbFTaeClABKkAFqAAVoAJUgApUggIybs808ak3kl3uB7z3CrkE8RRrG4KPzOCD+lAfeoAeoAfogWJ7gJA9A2At1gCI5ZZHKphc+sE7cCZkr4RbJNaRClABKkAFqAAVoAJUgArMTQFCdsKXYsMXlk+P0QP0AD1Q3R4oOGTft28fdu7cOaeX7FNoo+UCULlN5cDuUvUVIfvcbk64NRWgApWnwB0/b8P/2vnVjK//PjdReQ1jjakAFaACVIAKzEEBQvbqBh+F5g0sj36hB+gBeoAe8HqgoJD9xRdfREtLC7Zt25YzZJdtZR/Z11u5fN6XCsryuNUF7gnZ53Bnwk2pABWoOAUuvHkJ/2f3bRkB+6cHgxXXLlaYClABKkAFqMBcFSBkJyzJhz9wX/qHHqAH6AF6oGCQXQYlGzduVHB9rsaSyHfZV8qY677ptifsri7YXar+JGSf6+0Jt6cCVKCSFNj28lBGwC4R7oxir6QeZV2pABWgAlRgvgoQshOOpGML/JzeoAfoAXqAHsjFAwWB7DMzM3j88cfx2GOPQdZzObC5jewj+0oZ89nfLEuvlwrK8rjVBffzgeynT59WD47mO9DPfb9RbFi8GIsXL8aG0Ux7nUPvvblsl6mMBfxudINq0+J7e3FuAQ9b0kNNDaJjUwc6nlvACXNLrfNbp9D7QL3V14/6GDg2gd5HV+GWa+1t6pfilgc3oD8SL35XvRXHxDMdWHPvciyxz7H6a1dizaZ+HEt3+PgoNiy3zrO7+jI7d/TR3LYrZkO/sv/hjJBdUsnwjwpQASpABahALSggkF3G79FoFK+++irOnDmDs2fPYnp6GjLpKSc+JWDRrIFLeoEeoAfoAXrAzwMFgex79uxRKV/yiUSXfSVtjJTlV9G5fkbYXV2wu1T9SchewluqUsPfUjRdt9kPNherPvqYpXiYcekYdmrALhDb0+7LoxtwS70FouUhkvu1BBt+cblYqgCnB7HGhuXu49r1+Pgq9J/2HD52AM3GPuUO2SVVTLZc7FOXMj8o8Cig3kp0/GcG12Z9mWX/3QuPOdv/x9Gn/YrFV/f/m7ONHMP8M4/X98oL5lcp62b95CED/6gAFaACVIAKiAKE7AQmc2UO3J6eoQfoAXqAHjA9UBDIric6NQuez3qhypFjlwrK8rjVBfcJ2Ut401VK+FuqZus2e2BzUaujj7nQkN0L2L2Q/Uw/7lOAvR4rHzuAU5dsFd66jFMHN2DlA70oZry/AP7lixej/vYNGJyMQ+P8y2cGkyD9wX44Ae0ewC5gvtwhe7ZUMd8b756X9XKZSPV/9/yNq2wT9vtBdu8DAROkH5454XpYkC29jRm9z3zzrm7gGypABahATStAyE5QMh+GwX3oG3qAHqAH6AHtgaJC9ueeew7y0gfTy3SfE7JXF6CuhgcONQPZ3zqHA5uSKTlUSoytB3DurdR7rXikF423L0W9QFGVuqMDozGdsmYD3Ak/4jj2zAasWr7EjkJeguW5pvow4O+p+DH0P7oKyz8uUcT1WHp7I3onNfZM1vHy6UF0PHgLltrRz0uWr8KGZ44lQShOYedtVhnNB332P9hsteu2nVkBrtLBSSOSpl1nenGXisDegAPnDqDrOytddev4hUa0Wj9PtLaG7YYWxyb7seFBSV9iah3Hsb5G3KV1/vhyrHo0Q0qTpGSAUbYrZlk8sXUNVhppWlZ+pwsHXBtJQXGMmtvlcuzLE+i63Ur/Uv9AL3rX2+3W7QUwsekG5Zkb1o86gNusdrb1U7tWqv3rHz6Quv/lA2hWHlmJnVPpS4pHjvn74BfNtp/tPjiTjHpf/mgvuuy0TLlD9lOIR3S/WufVynW9OKYfLNhVvOz0vT4P1qDrYEqHpG+Q5xsTNpuQW9YFggvYns/fFT+51wW9vWXLexNuCxQ3txFo7v0TqG5uY0bBex8WePf1vjfrN98HCd4y+Z4KUAEqQAUqXwFCdkISzSu4pBfoAXqAHqAH5uOBgkH27du3p8B0ybEuL2/FMn0uoN27/XzeVwPgZRtK/9ChJiD7pWQOaW9ajPrbuzBhsGgd3evdbnF9vQWnTfB7eQIdN9t5tFNSfSzHhl8aBfvdl2n4e/0tuEXBdQ+Arm/GAaOIU8+tUZHHKXWTaGQj6jn+zCoLkJpRyOr4l3FgnXWMbHD0VN99dns9dVq8HGuGDOjpQPZ61PumPbkLvWfk4DlCdkdnOa6G7EZOc6/Oy9dgUJXvJ7D9mdbZjGQ/049VfpqrByv3od8p8zJGH11uA2ePFvV3odebTsWohmi4xO4XnZs8mS5mAh3XS3k3oONXgPfBjj/sNwqX1Vg/Vik9VqE/5v7u8nCjVWezze5NMr5z9nf6wNJh+aPyQCA590E2H+l233DzLU7Od9O/rgcEp3vtyH6PzosXwzpuxiqnfOmNDDcBtqzPFz57y5WodIHo3pcJyeVY5vFTKguo+uhtvFHw337x+87+Jrz3K8dbv2xR735l8DMqQAWoABWoTgUI2QlU5sMduA99Qw/QA/QAPaA9UBDI/vOf/1zlU3/xxRcdQC7rkmNdXnP53NxWV3I+SwLq0gPqauiD6ofscQx+R0C4lZLjnIbWl8/hwGMrFUhe/viEfSc1gQ4733T9AzsxYYPLyzIxZVCDVg1+ZRcpeylWbR1NpvqITSRzcH9n0Igw97lZ0/DXU7f4r7rs6PB6bPilvV9sEGvs1CL3PTmBuB2BH/9Vr5NX22lHuijmDFDWVbtfdVgwf/ka9P5KR6IDzrHq12BQQ10Hsi/G8mBvUrMz/XZ9F+O+pw0or9tsRHSrY+vPbS2c1CkS8f24pb1ZPmTCzj7roUN9rjq7gLM8ILkFzfIrANsTZpqUG7QnzvXjPgHZ1zdiUDfjrTiODW3Ayjuz/xpA66phswPZdbmL70Lzo2keaNTfgo6MD2ou48DD1kOelbvMxDJx9D9ogepVzyT7T9cl+/KUM4FwfdDPw3OH7IvrV2LDwXNWxL303fa7rIcA9RvgnH2PWW25a3vylxmXz4xiZ/AWNA7rEzd77fUW3uhvDbD10sxx7l33izTX5XojznOJhjcj6tNBcvlc182bR/1De//B+U6Ae6a/+dQvU3n8jgpQASpABapHAUJ2QpL5cAfuQ9/QA/QAPUAPaA8UBLJLYdu2bVNAXUepC1yXz+b6ua5YvstqALxsQ+kfFFQ9ZJ/aiZUCSb/SgdF4HHHXaxQdX5HUFTY4/1UHblCRwWswmJJFYhTN6jsTsgPwSTeDqZ24RbZ1QV2fGzQNlu/05t5OQswNdm4anRpkcUp0OiDR96reuh1GKhITvuoyXNHDKdVKgts1T5/z6BXHuafXKDjqRDA7kL3Zk0YH0GDZ2VaOpducDrJ7tXAeGKxB/xlv/51D/3cEJuto+ZTGWB/oY3r7w6fvnAhuXT8Nw+vXoHdyPsDarsKjdnS2LtfRTfx3Cxr7/B+cLM6W1kd71txOe97zS4g06ng+jicj9+vvSxOpn/Snq289JclbxwM95kMAAE77k+fThA3ZVz56AM7DMJ8yc/1IwLmG1nNZZoPY3qj0hold8L68OdevMNLLpIug/z+7b3Pq693GrL88PMj0Z9bvT35yT6ZN+R0VoAJUgArUmAKE7IQk+TII7k8P0QP0AD1Q2x4oGGSfnJxUkF2guqR8MSPSZV3nW/f7XIN4KaNQhiSgLj2groY+qHrIrgGrAuSpaSis1BU2pNXbemGsugHT6U6SUFA+PvVMI1Y6aUckb3kHRn9p5yn3Lce4m0t7vCTE1JDdgZV9OpzaKAf6AYABmzV8vb7DjhQ+hZ23Svut9CTm3u715LHNtB4p6ymw2K2LlOlbZ91mvb8+uP7cq5kDY9P1nfW51kkX51r6lh3HxNb7nPzxkntf5Qgf2mBFWDv1O4f+B4yUQCpHfyO6+kZ98/m7jmu80Vo4kexOu25A8y98orR1/y2+D/1+Xe6U7U47Ix+fevIW1YYbNukYcWfjzCtvnUK/84uN5dgw6lMvVULSIzlDdq9vnfYnfXP5l9ZErNprS5bfhTXrd2Jwau4PNyRViwmmc133RpD7CWZGnKcr14xW99bFnNBUl59pYlNvPnczDY3e31ya9ZMJWvlHBagAFaACVEArQMhe22CkUByC5dBH9AA9QA/UrgcKDtnnA8o1oJ/PvunMWw2Al20o/YOCmoHsAkdvvSXtq0vSsvjCWH1bkgrZL+tJRL0AX+cV9wJjXZRepj1eEmJqeKwhrT/U9IHs3glQNbS9NVuKk+SxlyxPr9ct3xuEYr8+sNRpnh297aqzbrMDse2t9edezZzyl2B5hv5rfC4DifYpW0f1a6Crl/X1NlA36+edIFX398dXoT9DTnatgyx1/zmQHRPYYOewb/6FuaW97rTbeHDis5l8pNti/UJBQ/dbMk54mlLUuUE0O/MLLEfzcCawnfSIq29TCk22O2U7p31JyC67uyZH1Tovrsctj81tcliJJE8HwNN9Xv/MgzlNhGpGnKcry4xE96Zv8YPk3tQ2ppRmZLo3V7u5nV436+eNqNfbcEkFqAAVoAK1qQAhe+1CkXRMgZ/TE/QAPUAP0ANz8UDRIbuOYPcuzUoSspceJhPo+/dB1UN2nTrj+g1IG5ir77M0iF6cW7oYDU5XPj7hyr0eH2620rd4gbE+jl76wF/rqyTE1JBdg9Rc08VIOXoC1PqHBzHom7tbV8RcJtPFpIBRczO9ngaWytdaH1c5us0mxFYb2xHkXs2cdDHZYbOuUspSH9MpW+tbD0mJk/y7jFO77FzhRv0uxw3gfCmOU78axE474tvJ3Z4sxHdNa5GE7Emd69cdsHKVG3smH+CswaBxeGOT5KrOtV/fjMHnmq0Ja830McktfdfODTXjFj1p7cdXYedkugh2vbvWbzFcfau/Npa63Snb+fnmctyZawC4jPi5Yxh9ZgNWqrrloINxXDOHeToQbn4u8DpTHnZdtDfiXCLFBYJ7XyZINyG5HNPvT8rR9RHYb/7lks9db++tHyc91cpwSQWoABWgAqIAIXtpQcrx48fBFzWgB+gBeiB3D5hcleul/R+m9S86ZJfc7JKnXUN2WZfPdAVkeenSJczOzuK3v/2t63Nzm7muExr7Q2PqMjddqh6yq8lJrejkJQ92YfSMBoiXcW50Jxq/uQGjTv51HQW8GLlMfKpzSN+wbjCZQ/pyHMeebiw4ZMdcJj7V95EOoNapVlahX09YqrfxW+qJT+vtiUF17vLYMQxuug+r+oz82n6w1C7TF7Bq4G1D4LiedVR/7oDwZMX0xKf1Nzej38iLHp8cRMc3V6XJG57cP/UXCpICxtLkru3JXOi4dAqjj3sg+6UDaKxfgrs2DeJYLOkdDePrH8stJYvWIgnZAWidF9cj3WS2fgDeaJm9mgT2OiI/pwlPJT3M926xoPzixVhybxcmsgF9dcTiQPZTT65E/c2N2Dl6Cpcdzx1A8/XSV8m0Ocd23YUli5dg1TPmAxK3KgKX071MaK3Btl8KF3eJ1rtMEed+28tnXshuAnj5Xt6b0efenPBX5JDPXR97PvXT+3JJBagAFaAC1a8AIXt5AIq53vdze/YbPUAP0AP0QLl4YEEg+759+xx4LuudnZ3O+2IJQZg8N5hMvfz1qjTIriGie6mjnJPwT0eAq9ul04NYs1yDZu9yOTYYObFlEtHlTpqK5Lb1D9yHu9TnRnoLB5Imt3PVywcYu27f0oJl/3acem6Nb93kmPUPeCdPlSO54WvmCU/Nml3GxOMrHfjqapMc617jWHOF7M6vBWzNtEZptQBwaQIdtxt50V39U4+7vJNqmk2RdZ+y48+tSds+1V4dyX66H6ucnPvefl6Ojl95D+b/3heyS0RZ333p67HcfADkX67+NBn5LhOpNuOAfh6gN/BZnuuzHyi49PS2UZ9bZgFJf6ZEqJubpfs1g2yT4pvLGH0sCfxTPPedQfvXIhPo0P2hveM5Zra3VxjQWiD7XFKqmBHnZt71TMf0gm+Jsn/qlV+oyHlZeutjQnhZ1w8CZLnh6B7sO/cr18vc3qyfHMe7rbznHxWgAlSACtSuAoTshDTFYhMsl96iB+gBeqA2PFASyH7y5EkF2cdOJPDtnZfwyX+zXrIunxXCfITG/tCYusxNl5qA7HIv5c2r/fHluOs7XTjgEwwbj/Si8falFvz8+HKs2nQA595Kzckuxbq2VZNibsDgwZ0WkM8GAX3gr3Xbl4SYrocFgs1PD6LjwVucCTuXLF+FDc8cc6Wrcd06OlA724Snrr3UG3d+7HosvdnnWCmwNFmOBstuEHvZmHB0CVbKrwBkl7Ra6PLiOPbMBqxavsSamNTWuj+SQ+h1mrLPHexIlqf8sBMTzzV7Jj6VTj6Fwa1rsPJaG/TrY2dNq6Lrnkyd44pkt7+2dE72af21K7Fmq3guuX/2teSvMHKd8LS8ILvVwnOjvdjw4HIsscG/mvx066jL36eeXpU1kj2dXt50KgKl5/JnpqHxRpynK+fCm5cg6WhMWJ5uXaLezT9vPne//cwofLN+ftt6U9GYx+I6FaACVIAKVL8ChOyFuQ8vxL08y2Bf0AP0AD1AD1SiBxYcsh89etQB7ALXr1znfslnhQDthMlzg8nUy1+vyoDsZXDTo2Fy/QbkliCkDOosVdCQ/fqOyqp3mchXOdXQkH3uD1Mqp43519ScEDXXiU7No5rg2oTb5jZ+6wL3/+Qn92QE7X7QXj4zj+m3LhBf//l9b37mdwy9L5dUgApQASpQ/QoQshPoVCLQYZ3pW3qAHqAHyscDCw7Zz58/ryC7RK17Abt+L9/laxJCY39oTF3mpgshu/uG6vJwI5be24EDp5P5Ni6fPoANdrqS3FOuuMstybu3TqH3ASv6euUuI496SSrDgxZTgVM9dtqZOUx4Wsz6lGvZOtJbIstNOJ1LfQWUS4oY/TLTtOSyvxxPUsdITnhdhiwFfKeboFS+M7f1rktZ+s9bP++28n4uDwZ0uVxSASpABahA9ShAyF4+kCJfFsD92Zf0AD1AD9ADpfBAwSH79u3bnUlOZbJTmeTUzMkuk5xKQ/2i2DVkl+/yFYMweW4wmXr560XIbt44ncPg95Zb6UL88lR/fBX6T5vbl+t6Mt2Mym1d34gDyWDXcq006zUPBdwpX+rROJx8ODSP4qp6FzO/uQBp/lEBKkAFqAAVqDUFCNkJZPJlENyfHqIH6AF6oLY9UDDILoMSgep+rxdffNGB5oTs/jCXkLs8dSFkT729OnewC2t0TvbFi2HlhR7EqYoB1RPYUC8TWC7B8gc3YLAiHgyk9gM/ya7AxGPWLxVUbv4h/lohk2J6AlJZ8o8KUAEqQAWoQC0qQMhe22CEYIz9Tw/QA/QAPZCvBwoG2edaEaaLKU+oTNjv7hdC9lq8xWKbqUDtKSCpVZiTvPb6nS2mAlSAClCBpAKE7IQrc2Ua3J6eoQfoAXqAHjA9UDLILpOb+qWM4cSnbshL6F1aPQjZkzceXKMCVKA6FZB86JKTnH9UgApQASpABWpZAUJ2ghITlHCdfqAH6AF6gB6YqwdKBtmlogLaJaJdwLq8ZF0+m2sj/LYnnC4tnK4W/QnZa/lWi22nArWhgORjn+tEp7WhDFtJBagAFaACtaQAIXth7sP97s35GbWlB+gBeoAeqAUPlBSyF1PgaoG8bEdpHxYQstfSrRXbSgWoABWgAlSAClABKlCrChCyEwAVk0+wbPqLHqAH6IHq9wAhe6y0EJcQvbz1J2Sv1dsstpsKUAEqQAWoABWgAlSglhQgZK9++EHAxT6mB+gBeoAeKKYHCNkJ2UHQnx70E7LX0q0V20oFqAAVoAJUgApQASpQqwoQshO8FBO8sGz6ix6gB+iB6vcAITshOyF7Bg8QstfqbRbbTQWoABWgAlSAClABKlBLChCyVz/8IOBiH9MD9AA9QA8U0wOE7BkAKyO800d414o2hOy1dGvFtlIBKkAFqAAVoAJUgArUqgKE7AQvxQQvLJv+ogfoAXqg+j1AyE7Izkj2DB4gZK/V2yy2mwpQASpABagAFaACVKCWFCBkr374QcDFPqYH6AF6gB4opgcI2TMA1lqJ1mY700fsE7LX0q0V20oFqAAVoAJUgApQASpQqwoQshO8FBO8sGz6ix6gB+iB6vcAITshOyPZM3iAkL1Wb7PYbipABagAFaACVIAKUIFaUoCQvfrhBwEX+5geoAfoAXqgmB4gZM8AWBnhnT7Cu1a0IWSvpVsrtpUKUAEqQAWoABWgAlSgVhUgZCd4KSZ4Ydn0Fz1QIg/MxhGLxUH9S6R/oraOS8hOyM5I9gweIGSv1dsstpsKUAEqQAWoABWgAlSglhQgZK8tEELgxv6mB2rEA5EQAlvCmK4x2Et/l8bfhOwZAGutRGuznekj9gnZa+nWim2lAlSAClABKkAFqAAVqFUFCNlLAyQUCDoTRmcggIDvqxPhM5nrNj3ag7aNQ5jMCaJFEAoE0BmeZmRrTnpl1p4gj/qUrQfORzC0sx0N+rrS2IrOnUMYi/pHtU9Hwgg90YamoHUtamjZgYGXYu7rxPkIBrY2IShlNrZix94IYmnOo+zlxTC5vxudLQ3WtU/VbxiTMdNTMUT2dtl1akDrEwOInDe/53q5+Y+QnZCdkewZPEDIXqu3WWw3FaACVIAKUAEqQAWoQC0pQMheJrBGok4DAYQiuddnOtyJQCCESBrY5YYwhOxuPXLXmftRq8rxwCQGWgIIbBlGdMKKZI+en0T4Rz0IR/36MYbInnbsGIxgOm59H5sIoTUQRN+EDeXPj6E7GEDn81MWWI9FEGoJoHVPBPGUa0/28qYGWxEItCI0YYP88+OqvEDLEKZUeTGM7QwisGUIUwq8S5mtCLSEELng1wZ+Vg7+JGTPAFgZ4Z0+wrtWtCFkr6VbK7aVClABKkAFqAAVoAJUoFYVIGQvE0DjB9kvTCG8u92K5gw2oX0mr4AFAAAgAElEQVR32IZOCViAPRkFryLUp8dVBKsVkRpEU0cPxhywRsheDiCKdSiT8y0FDldJvexfx6jrwbzTxVjXisCeiIpmn3y2GYFgH8ZtCC8ejh/pQSDQjuHTuehmlicAPYBAxzCiRh9E97cjEOjGmED14wNoNiG/bBcfR08ggPb9UXeEvVEGz61c+qJ42xCyE7Izkj2DBwjZa/U2i+2mAlSAClABKkAFqAAVqCUFCNmLBx3mBH1SIHsUw5sCCG4PIzqbQGI2ipGdzQi0DDjpYVIi2U+PYCA8iZi9fXh7EIFNGmYRss+pPwjvCDMr0gNWJHtw+zCmRvvml5P99DDaAwEE+yeRSEwjvEUi4z253W2Y3/VCDumnXOUlEI+E0BZsRbd9rYodD6O7JYi2fisy3rquedNl2fXYPsIc82XqS0L2DIC1VqK12c70EfuE7LV0a8W2UgEqQAWoABWgAlSACtSqAoTsZQrZIyEEA23uSFEFtoJOSpkUyC7wJW7f48V1tLtOJ0PITsheJl4vU0hYNf6ITWFkzw60NiZzrIdG7FQv2bSfjUI9nAu0YuC4+GUSA1KOHdXuaGRGzGcqM6U8y4PTEyEF8vV8FO17xjEtDwcTCUzulVzt+rqlPZsG9mc6Nr9b0AdlhOyE7Ixkz+ABQvZavc1iu6kAFaACVIAKUAEqQAVqSQFCdg1xSrz0RLL7AvSEG5R7t4m+sAMNgSCa2trQ1taG9rZmA1a593VgGUHUgoIo6l7i86yW/G6ni5k6MYyuYACt/ZM+OdSN/rgwhWH59UsgiK6wTsuSBm7nEsnuW14C0XAXgoFW9B2eVvWJnxlDX4v9q52EfjjISPZKu1YQsmcArIzwTh/hXSvaVCpkv/DmJRyfPYvxCyfVS9blM/5RASpABagAFaACVIAKUAEqkKoAIbsBmUoJ4DyQPTHnSPZJDDQH0LxXUjxYbYoeNCdGJWTXunBZJp4v5flWC8e2Ift0upQvpgbREXTLhKmBBuxwALt9HdnXNvec7GnLs6H9rjEX8I8f7kYgYIP108NoY0525zpeKdcrQnZCdkayZ/BApUF2gen9r47iqVd+gZ+9FsEvZ6bwywtTal0+k+9kG/5RASpABagAFaACVIAKUAEqkFSAkL1MgKMXsidSc7KrNA5GTvbES30IBHZg5Ly0wYJXwZ0jVtqF2Rgie9sYyW6CRK5XHLirFMBYNvWMhtHV2I7QRBTxiZDKpR49HbYi2Z9NPoAz6xt7KYT2YACBYDsGjsVSPXJhHD0SCb8ngpicQ7EIQi3W+7i8Pz6kcqyHjsXVvpnLi2O8N4hAsAvDJ+xjxewI+uYQImpy1TjGdwcRaAkhIhOhJmKI7Gm13l8ok+s1ryUpPiFkzwBYayVam+1MH7FfKZD98v/3e/z3uQk8d/aXePWNmeTdgmdNvpNtZFvZh39UgApQASpABagAFaACVIAKAITsZQJtUiB7AokLUwjvbkeTAmBNaN8dxpSCTnad45MY2CT5i4No3zeFRHQMPep9AMGHu9Czk5DdhIlcLxOvE1CmAMqCeXN2GuP7e7CjrQnBgJWTPdDYih17bUCeor31CxedG921NCc7PR/BwFa7TG95LsieS3kxRAa70f6wpKYRuN+E9p1DiKiHhdqj8pCwy7r2BRrQ+sSA53u9HZcF806KN+amLSE7ITsj2TN4oBIgu8ByiVCXiHXvX/SN1yEv759sK/sQtHuVqdz3v4tfwoXfVW79WXMqQAWoABWgAlSACpRSAUL2uYGEcgEarAf7jR6gBzJ6wEkXQ50y6pQnXGbZlr8I2TMAVkZ4p4/wrhVtKgGyS1S6CdijidfxjRc24o9+tAL/749uVS9Zl8/kO/0n+8i+Bf976XH8r51f9X89N17ww9VCgSd+tgrv2jOMC2kae2K0GX8z8HNc+EOaDfgxFaACVIAKUAEqQAWoQEYFCNkJoAiJ6AF6oAo9MBtHLGalcGH/VmH/ltnDAUJ2QnZGsmfwQLlDdsmvLulf9N/g9BEF1/+f7ptSILd8JrBdttF/sm/Bc7QryP44wvogXOatQCbIfuKFdfjWwZfBIPa8ZWYBVIAKUAEqQAWoQA0rQMhO+EIARw/QA/QAPUAP5OMBQvYMgLVWorXZzvQR++UO2SXly5n/n723+43jOvN1Bzh35y/IbS7ncgO+cW5mZmMwA2Qw+wQTeM6Z+CIJApzgIIYHMBFkACfYHMiMHVuSY9qWbEWWCFuSLTmmZUk2FckKRVuURFmk5ZZM0SJN0xRFtT5IiqL50dWi3oO3qlb3qurq6g92kd3FR0C7u6urVq161q/prqffXuXPwa5V6irRy1aR+9Xluo6paNc52rWNhv5DsjcUZ2xjK9/J3Dxz68cy4kUIQAACEIAABCBQBQEkO2JlLWKFbckPGSADZIAMINmR7FSyx2SgmSX7XO47OTw1UDhl0OlgoirYw9Jd19F1zb/D1wdE22rYv2oku67TfViGLu+TX/35MfeLge8d/I288lVMP/xtzn7+ivzkoLfN9w/9TrZetidRycgzB34j+8cy8soHP5Pvd38kN/0Dm7u8V35xqLivZwavW4eclf3dP5JnBkdk97En5PvuFxKPyw97PpLh+9ZqD76T4bPb5Yf+/r938AlpO2tXkZfZ/72vZX/PE/K3bruPyd++t132fx061uxF2ap99tdx933P2/fNs7+Rv7Gn2gn1w+WQyVodNcfztbx34jeF/f6wp0/GmVLG4sRDCEAAAhCAAAQg4BFAsiNHEGRkgAyQATJABtaSASR7jGClwrt8hfdmYdPMkl2neem/c7VwXlRNFbsR7rqu+adtNHTKGFeyV5iT3V3nMfm3kxflps5z8sCR8f7fyPcO7pUh07HwfXgbEbk5uF0ePfAzeWbEVHOr5H5Mvt/9upyaNstE5i5uke8d2i4fmmUzI7L78GPyk/NGTHtS+nt/fk72X/Ol/b2v3XW+d7go6uWrvfKT431en0VkeeKw/OTAY/L0JbOvqP07MvTX38jTg1lZVsFtjvXAdjm16B/kzY/kJwd+VlwnNydDn2yRX5z1vggISnZHhk7+TL53+F0ZmvG2X544Kb86VOF4Zi7KM4d+JL+6GJL7Yc48hwAEIAABCEAAApuQAJIdsbIWscK25IcMkAEyQAaQ7Eh2KtljMtDMkj0zN1G44OnU0l33AqdGole61wui6jb679LsN6JtNeyfK8MrzMmu63QflnF7p7N98iutQjel5/Zr+jhqGxEZOvW4/E3hoqAquZ+S/VPWxg9GZOvBx2XrV9YyfThzUn5x4HU561Z2e5L96fB1YN11Hpet10LbWk/PnviR/NtZI+sj9m+tW3yo6xWP9eyJx+R/nBopvhx6FJDsNz+SfzvwO3nPF+xm1eVL270vKWKOZ+ivjwcr4s3G3EMAAhCAAAQgAIFNTgDJjhxBkJEBMkAGyAAZWEsGGibZZ2dnZXR0dE03bWMtB2Nvu1kqrTnOZKvtN4Vkn9soyW5ViLsndUHxXHKe50r28Da+fC9UwEe04UvpVzIX5VTgdljaDhoh70+v8mV4r97yQvV37rp8eOJ38j8P/Uwe/fNT7lQxHx4PS/aiPC+0dr1Pnvngl/LooZ/J/+zeLvvH+uTpgmQvI/gLG4sEJHuZLxtk8Zy0hdp8JnQ8gXas9nkIAQhAAAIQgAAENjsBJDtixfYJPCYPZIAMkAEyUGsGGibZVbBv3bp1TTdto9YDKLc+8jlZ+bxZ+DazZG/u6WKqqWQPC/MIQW6f7dUr2acOy78deEJ+dep12Rpx+/Bb3Uk1kt2Rsyce96ZpyTqyvPyd3Lz2kfzqUAXJvpiRZw4+Jj/5ZERufufI8nxWhs4+J4+GhHhJFb117AE5fvmV0l8B6LpIdosYDyEAAQhAAAIQgEBtBJDsyJRyboHlZIMMkIHoDMzL1LVvJLsAn2g+m49LwyX7uXPnaq5m121U0CPZEePNJu+bWbK3/oVP65HsoSlmIqeLCVWSP1B5HzFdTOC8q0w1eWC6mGgRXzpdTGj/biV9+EuH4BcKSU0XQyV7YJB5AgEIQAACEIAABMoSQLJvPhmCFGLMN28GsnL2T0/Kk0+W3o5dTS4X2c/flZeeflKe+UvjCmxrG8N5uXp0mxz7cr4BBb4zcvXjY3Jhqjpe2bO7Aryf/v0eOTVm+jEv35x9V3b8tzce7a++LX3XZrw+Tp+VXSXjdEyuLla339r40OZaeTVcstcjyk0VfD3blgPQbLKW/rTmFwjNLNn1DOHDGxdlemnWPVmYWrwr1Vz8VNfRdfXfjaVZtw33SaP+oxXnOtd5XHuRVelB8VyyuW5z8Jfyi1P+xVLLXvg0JLl1vfO/ke8dsi5qqhcWPfuctBXmUvcE+qPdr8Rc+NSRUz2Pyf84+pGM68Va9cKn0xflmfcqVbKfk6cPPC6/On+9cOHTm5nX5YeFSnbtoHfh018N+Ou4Fz79nfyif20XPkWyl6SIBRCAAAQgAAEIQCCSAJIduVLOLbCcbKQ6Aypxj15tgHSulBMV+2/L0Eyl9Vrk9elvZKqGY1HJvutstsB55tpx2fHccRlVWX71mDz9pz6ZmveOfX4qI8e6z8qUVsjr+PzprGSR6gV2zfx+RLLHXPQSMd6aYryR49bskl2njDlx81LhROHj7BeuaP8/3v43CV/8VJepYNd1zD/dVtto6D9Xsv+oZP9uf05kvF19tU/+54cnJbjnKiR790cy/PVH0vbnx9z2v3/od7L18pzV/fJtzF3eJ7/yt/ubt38mvzhxUobvmU39KvXLc3L21G/kbw9o/x+XH/Z8JMP3zToicv9r2d/zhHzfev2VDytIdpXxVp+/d/AJaTu7r/Qir3cuytYPfua3/Zi3b79/gelitDsPvpPhs9vlhwfLcZiTDz/8pbwSuthrSTvWofEQAhCAAAQgAAEIbGYCSPYWEVuIppYQTc0swehb6L0ekuxXjz4pb/eckj2/3yNnpxdlcW5UTr3xjDz95JMSqL6+ekyefOd48bWX3pUhXX9xUebHdPun5ckn22XHn4dkatGunN/ltbs4I1d79sgzTz8pT/73Dnn37Dcy776/dd1d8v5ftLLbr9ie+0bO/nmHtPt9OP6lVeX9+vty3H/tyf/eZVWHh9q/OOX2TY+vUK0/NSTvvtruVpi3v/quDIWr0seOy7bujN8vPbYp6Xv1Lblwe1FqamdxUcKS3W1rp8di5uLb8tzhjMxE/X1DsrfU37zEJPvg4KAcOHAg9qbr6BuQSnZkdiPFeCPbanbJridCvbcuy6W5bwrnRFql/vPzL7tC/f889H+L3lSu6zJTwa4r6za6bcv8i6x+b1Tvo6eCaVTrtAMBCEAAAhCAAAQg0NwEkOwh8RYle1jWUrIHmUymq8pAhGTf1j1UmGc8+/kpuTDpTWsyP9knu14/K1P6t0Al+9b3ZSjrcf7mrzv8Su1ROf5csWI9+/lZydzWdVSeF6c5mfpkl+w5M+UJ7IUZyRzdIceu6n50vadlz+lvfOk8L5nul+TYZV+sz0/J2S7/CwDt+9N7pG/ce23m83flab8qf/Qv22RHz1WZ0WrwhawMfTLkVoPbcnz0TJ9cdfu2KDNfvC/PHQ5X9Belustysk92+NK9tnZKJXugkn1xSi7se0baf/+SvPXnPrkwli2KfT1Gpotpmb+9SHYq2aWRUjptbbWCZF9ZddwpX2zRbk5hppbuit7C/3RdnWpGt22Zf0j2lhkqOgoBCEAAAhCAAARajQCSHSFZlZDki4aWkV2MZ5Xv6QjJXqj01rzPfCMXPj4ux3tOyYXxIXn/SV+Uq2S3p5m5esyX7DMydOAZ2aWy+Oo3MuNPgRKU7FPS9/IOebtH2/Vv3Xtk24c6V7tXye5W0ev+5zPy7nN75H2znt4f2CF7zmdLp1IpHIu2/65kCvsusrDl+GI2I31uu32SudoXOS3LzIW3ZMcnXhX8aM82ef+y94VDre2Uzsn+lvRNmDnZ/f7NTcno52fl2BvPSHuX/2WGHhPTxbTM353EJHstf9CoZKeSvVnlfCtIdj2BUVmuVek6/YvOs17un76m6+i6LSXY9YCQ7OWGleUQgAAEIAABCEAAAmskgGQvSqhazuVZF25koMUzUBDT3nEE5PGiCvNt8vYnQ5K5nJGhT96WbRUlu7YzI1OXz8qpP78l237/kpwa02V2JbtK8Lfk1OWM26627d4mtCI9QrJvf1/OmnX8+9Hp+TVK9lE5vnWHHLvg7fvChzvk6SiZPZ+R97cel9E5/97/oq3Iqbp2SqeLicvNvAy987Qcu8ac7K329yUxyc50MYjzZhXntfSrVSS7OafQ+dW1Qv3w9QHpv3NVhma/dm/6WJfpaw2fg93snHsIQAACEIAABCAAAQi0KAEke5zw4bVWEz30l8xWnYFYya4yfJf0mbnKb1+QtytK9ilvaha/inzm/Nte1XlAsi/K6F9ekh1/8adzWZyX7OcX5OqcjltIsrui/yV5+0JxapmrFzLelDXhKm/rWHS6mG1HM+Wni3Er5N+XjH/xUp1H/qUoya5TXPdskz1duwoV7cq2INmrbCdOsutUOzs+zEjWVN5nh+Td5/y568PHyK9pmrqqHcnOdDFMFxOTgVaT7OacZi73nSvT/69Pfi96U7Guy/gHAQhAAAIQgAAEIAABCJQSQLIjJauWkkiuppZcjGON72VLTAfksZ/z4EVM35ZdFSX7okxdfFd2uBc+fVqeeeOUjBbkeXFOdq12L1z49OlnZM/Ho/4c7GHJrhdfLV741L1I6gVv+pbFsIAOHIvVvl5YNeLCp24///tJeVL3f+jtspJ9cbJPXnrSu+CpyVdBsi/6x1uhnTjJ7rL4+G3ZoW08+aS0b31LAhd3ZU72lvmbk5hkN8Gr5p7pYqh6r6W6fD3XbVXJbk4b/ubAj0Rv/IMABCAAAQhAAAIQgAAEyhNAstco5hDNLSN9qnEyrEP+a87AwrzMuPJ8I9nNy8xMaF5z/jbxt2kDM5CYZI+aLqbcmxbJjmRfT3Fey76Q7OVPRHgFAhCAAAQgAAEIQAACaSGAZN9IUca+y7kSlpMNMkAGyEDrZADJHjNVSC0ylnXT+UUBkj0tp00cBwQgAAEIQAACEIAABMoTQLK3jsRAODFWZIAMkAEy0IwZSEyy13KwVLKnU1Cn4YsHJHv5ExFegQAEIAABCEAAAhCAQFoIINkRNrU4DNYlL2SADJABMhDOAJKdSnYufBqTASR7Wk6bOA4IQAACEIAABCAAAQiUJ4BkR5aEZQnPyQQZIANkgAzUkgEke4xgTUMlNsewtl8JINnLn4jwCgQgAAEIQAACEIAABNJCAMmOSKlFpLAueSEDZIAMkIFwBpDsSHYq2WMygGRPy2kTxwEBCEAAAhCAAAQgAIHyBJDsyJKwLOE5mSADZIAMkIFaMoBkjxGsVIGvrQo8DfyQ7OVPRHhlfQksTQzLxNL67pO9QQACEChPIC8Tfd1yZjJffhVegQAEINBCBJDsiJRaRArrkhcyQAbIABkIZwDJjmSnkj0mA0j2es6MlmTi027Z/UK7tLW1SUfnQTl5dcZqaEmyQ0cKr7c92yldR4cku2KtsmEP817fnm2TtrZ2eX7faZn4LtSZmWE5ue95aW9rE+37wd4JKeu+V7KSOXFQOk17b3TLwGTU2ksy/J7H6+REaH/+0/tDJ2XoXulr94e6XM7K2ruV6XfppvFL8hNy8tmuwj4nTrRJ19D9MtvkZeJEh3RdLPd6mc0auvi+DH9wRIY3sgsNPZ7mbyw+Ewn1//6wHPlgWJId5gk52XZSyrwVaz4wfY+a9879i13ScWJCKmrpyTOy89Op8vsKvD+1v8X3avmN6njl3pB0PXtSJko6vCQTvUdk4FbJC3XspLiJZqrc38DiWlGPlEGbtL2Tifh7vCSZd/TvY+PGNKoH1S+rJV/3ZejNMkwCGRDZkPdj9QfNmhBoCQJIdmRJWJbwnEyQATJABshALRlIVLLPzs7KsWPHRO9Np6KWjY6OytatW0XvzXprvU9DFTXHsPGV9Ej22s+Jpvp2y+5TozLjS/P8vWHp6WyXnlFPxixd7pbdxzOSNfI6f1+Gj26X9lMxQqn2btS1xf1L+6TjwIBkfQ++NHpSOjtPyoT5AmBlVI60d0rP1fueJNO+f9gpnaemIqTZkmQO7ZTuoSlZ8j3U0o0B2de+WwbuBLuX/+qItHfuk32vl5EpIhIr2U/YOnBJsuf3SfufBsT+aiO4x9qfNb/AURmVkGisHdem2GJDMqHS982hlpXsVQdj4qS0Bd7XcVsmKNnL7XZlqfB3rdwq9Sxfm2TfLtu3lf59lTsDsnvbdtmeNskeArwh78dQH3gKgVYngGRHpKzVQbA9GSIDZIAMbO4MNEyy64cSFeVdXV2uVFeZro8rLctms+56nZ2dom00KpAI6o0X1GkYAyR7Y06Xsv2d5SW6K9k7Zd+l6NpUVxz0Dslpv3q8409aXT4jmaO7paOtTdp3HpHhQoW3VldaleN2JbrKubYeGfryiOy2KrSLRzglp7ftlDO3iktE8jL6YbvsvuDp6qUvu0srJVeGpbutW4ZVzC8NS3d7p5y5abdhP87L8PttwWNdmZCebV0yNDNTvmKxJskuIu6xHpSM/0XGzNWTss/9ZUFElfuqx/L59jZpa39edh8d9uV8UNy549A/LEOG+wv75PR4sSrfFjxudf37Z6x1D0pmZkmmPt0n7n6e7ZIzN6wK2O8m5PQ7ne54lv46QMfU387tX0ZmVm2m+tivYvWr+b2q4WD/3S0qiMuZy+YXFu3y/BtHZLjwLYX/CwfD8I0jMmRV8NaS0TCbtmd3y5GhbOFLGvf140MyrJyNTF7Juixddm0dsrvCLz/Kj7fH5PTF03Kws8P7pYm+n8yXSGGsGunJAen+k1k34rjL/bqhbK5EZHVGhk8Ux3Sf/WsQN7vdcqbwa5d2ef5Qxsukjl/hFxv+FyqR7+v48So5TM1f4e+LHuNwsJI9rr8ljVm/hml/XvTYpi5alez6y5OCPI/OtpuBwnF61dfe+y8jZ7Sf7vZ2vr3HZ64OyRF3rMLvc3tdv8Ph98LSlJyx34Of+l8cunytCnA7i+770f4VUq35so7ffx8MhyrZy2c5DN7b98CFHunsDX5hO9XbKT0XBqTLluyxY+rzvHzG/btpKuuXJs8U3zedB62/YTH/39FuVspXLNOYSnb3717xi8Wq/kb32xmq8F4MI+Y5BDYBAST75hYjjfIQtEOOyAAZIAObNwMNk+waIq1EV1mucv311193H587d66w7OWXXy67rJGCXfuSBsHLMWz8FwVI9kacUXk/1e/+sihktdWCSPrDbjn5VbRg1/VUHLS/YaZtWXIldfvOHn9akCUZPb5dui76NnTyjPRo5bgrYZck298l7R+OegLTlUUdcvBCNmI6ARGZUQlvyST/0F2x/t6wu41Wurcd9dsroJmRob2mAn1JJoYyMVPfqMjfLqdvmI3zMnVqp+wb0v7HyZT6K9m1/4HqfK2m33lSplzHrdPUdMjuvokiswunZcittA+KOW8cTsroPU+O5+8Myb72zsKxuILHF67u2HZ2S+aOt272053S/uxBGbjpZWDmQpe0Hfer7/NTcrKzU7ovz/i/DpiRzPvFXwdo/7cfH/X7l5f7V0/LQIGf4aj34Ur2YP/dNcNi0drc5VTImcjSzQE57efK/YWD/drEadn97D7J+F/u1JJRw2bohv9+uO/90sO8P9zXLVbukV0+KSdH/V9PrHq//DBf/FiH4D6MH29l0u7+0uS+P/76/tneF5SShTZvnJbOTvNeE3F/lbIzeNxmGpTCNl4vYnLlZW7fef99uLokU+f3yU7zaxD3fdrp/QJE38erMzLwZpsYPu4XSObLB91XxPu60ngF+zojA39ql2J/7stob5d0FP4WVOhvsDHJj/ZIu8Vs6eaQHNnZXpwuxpLssdkOZdXNWOHvnu7Uznd4XPMyc3GftHeeFm9k7XX9Dgfan5LT9ntQM9Z72rsGRECy35fMAevvxeqSTPTtlo4DGf+XBeF+eH+fy+Vr5sJuabd+OXR/9LR0PWv+lorEZzkE3vCY0WPpEf+HUyL5UelRDoG/75XG1DuOnceH5b75Qs99LxT/psn9YTmtfze1G3H/35FK+arENO7/C8FxreZvdPH/ndrxShzCjHkOgfQTQLJvXimCEGPsyQAZIANkoBEZaKhk1w7phxMV7XZlerXLGnFApg0E9cYL6jSMAZJ97SdUM0O27Ilo77spGTiwU06WTvrrrmzLW12gEtIWe66ULFSGikh+SZaWlmRJq3NVEBkhF5BFEf1Q6fRGxBQrurzQRsYVyzpdjPsvf19GT3VJR3tRDEW07C/Secs7pd0X9u7CG6dlZ+F5nEypINkLVa/ePPFd753x55JXwbOzZHqamfM7PWl5Z0B2vn5GspGdLhU4NnfdRNsxAs0ep5IxCQg99YNFpjpVTtv7w4VKbrcr7q8DjriizBWRWl0fU23tdX8tkn1GBl4P/4rBQIl+Ldu/U3ae977csY9dt4rLaAkbjawy8EVl1OseEz/XKsfDPE1XXaEXM95GRBZ++SEi4z1WZXWhIe2V+yuOI195X5SYV7SvUWNuXnfv43KlU3e8Hn6fKWP/1yAR79MZqxI88J7WnZWsX3m8Svsa7o9m3//CrVJ/A43lZfRom4SZ2Xmwxzc226ExDmesVLIXK5q9LikH84Ve8L3svm61H/keNMdl840c16yced1kLmI/ZfPljVN46iw9Tq9yvMLfLtO/wn1x3/p36eBl70uspcsHvV8ihY4jNoMl7xNvXLuvBt8LhV3rg3L/33GZxeer9G+wzTTu/wvFY9YulGak/N9ot+81ZTtwtDyBQGoJINkRLMYlcE8WyAAZIANkoJ4MNFyyayf0A0p/owEAACAASURBVIre7A7pc50aptIy+/W1PE6D4OUYNv6LAiT72s6jZoYOSkdntzXtRpn2VMQUqiGD64TFgS2sdE1bWuUnTsrO9g7pfH2n7Hx9p+x+Z5/sLAjy6Er1wt4ClY6FpW41ZVtBhIvkb4Snz8jK0JvtcnKyuE3poyWZOLVTOt44LVMFWTwjA+9Y8703opJdqy0Dc7GrhDEXRA3eu8Lckt2lfa4scGzZa4+TPSZuu5bQKzz3x6VkXW8F60KO/oV0n22T9hd2S/eno8Xq0kCn1yLZg8caaLZEuHmv2v22j11f1dfsLyTsde3Hhf2oAIzhMXPpoHS0P+9meufOnXLwHXvKkUIrfnVzcJzN9CpefyKOMzw2heY8uWe2D9z7X2qFj7uwaVyu9LXITNrTvwR/URLgabFy92fLU3dBxDGG/k4U+qkPIvuqbfh9qNTfQGPRQtTuf3D8Y7Kt+7W+PCxlbR+n/bjYId3GE9YRr1vtB/tU3N59ZPONZGUfc/x+gi1HrOuL4mKf47IcbC3wpYPKY/cCqCrq/WmzwscRl8GS97x9jOH9isT+fyeSmR67lS/z/6hC0/b+7MeFFfwHQYalGfHzXe79qn2L5RDeH88hkH4CSHaEylr8A9uSHzJABsgAGUhEsjdDsBDUGy+o0zAGSPY6T6h0PuYPdkrHzpPelAOVmmmIZNef3bdJoNrw1pnqJbtUnpM98jB0OoJ2r+o68nWd6/jNDul4Zyg4l7grfaIlki3XTJvVXfhUq+Wt6XO0srlQZWpasu4jK1PN65UFTsMq2V0hZvarcxhn5GBbBNOVGfdCs6aS2tpCNWrowqfB/rvrWmIxuG109bO3jl0RXNxqqnd7YyvZzZRE1nQi3t6m5GR7sMo+f7U7IGCLvaow3iXyMCjhiu3oo+iqbHudSKmnK8TlKrKy12rVlqH+YltSV1fJbiq4i+3a41VcavpaqdI4/HqgBetJNDO7/2WFdjjboayWsrbzbT823bFzG/G61X5NlezbzBQ0Zj/e302vIj1+P2YL7z46q8UvBqJfD7ZhP7P3rVOU7ZaBodOy3XxBaueqUgZL3idxlewV/r8TuS/ta/GXEjtjma5Nspf7G+2Si+ybzZTHENh8BJDsyJFm8Bj0gRySATJABlo3A0j2GWR0GmR4UseAZK/jBEvnmN7ZITs/iLpAZV6yn+6WncczkvUvyuleFE7nRI678Kl1cUVbWGnvitLKm96iq9/M9ZyXmS+PyHZTJWhLljKH5c7lbM0RvDR6Ujo77WrzvEz0nZRhf15y+W5Kht7vlN3+tCE6x609J7vO633w2Q7p+nQqeh74QD/iZIoe50kZsqf58LctHr+/YGVUjrTrhVS95+68xtZ84m6fPzUXN/Xm5E1kTnarCteueHd7pYLPjIt+uWHPB53352T35wm/f+mI9FzOFuZk1/ncy0t2X0a78yh7krHnK3/uc3daovYyctqf/9niZM/JHma45M7J3i3DfobDArR8Rv28dnZL7JzsNjt3CpjtcuRLM0XRkkz1l6tkLz2O4HjbItLPiyVb/SXFu/A81Do90qcDhQulho+7uGFcrsKviSzdGJIzX/qBjXifBnjq62aKIx3niPUrjVexn/ooPGe2N0d8u5Gg/rzVxfdIqL/BxkrmZHfnse9sK/yywX6/xmZbx8WaRqmUtT2W+tieaz88J3ul90LoPVh2TvbQ2Jk52Y3ILpHTcV/iiITnZF/S60VYU2+FxzGY5RD40L7dufHb2qXHTM4eyEnoOHR2cjuDobbcPYXfC4U52Sv8f6fWfJUwjfv/gp0Bc/2S6q6b4dGrwOHOkHQ960/jFMbNcwiklACSvXWlBkKKsSMDZIAMkIFmyACSHcnORWJjMoBkr/0saujNStXZS5IdOiK7X2h3f6quU4AcGcoG5+S2dhuWSwHhFpDsIrIyJWf2PS/tbTq1yD45eb6nMA1HlIyzduM/zHt9e1aPoV2e32cuuFpcc2myOF1MSd+XhqW7vVPO3NT1VYBEs7CnEim2HCdTapDsyuTSPml/c0h8bSkzV0/KPp93R+dBOT3ui2fduf7q4Ohueb69Tdran5fdOv+526lSgdPVOySnLb52O/Y42SLRayo49UXJFB3fTcjpdzqlQ3k92ykHe/0LCurGK1kZMv1r65DOd85YU+64rRf+k72gF6xskw7/4rR5V4absTwpoxfLzT/uNTFz2eSyXZ5/44g1zZGfC5eh99rQreL8zPaxa0txGXXZHM/IRO8+j/mzwfyXsNMGZ4blyJ863PdLx5+6ZaC3XCW7fxxlxzs4pu7acZJd5WNM3sPH7e3d/2/ZXHmZGz7hH787ptb7LCBDvbaCPLMy8Kay6PDmPo9YX6vwi39jSscr0E99ovkr5Hq3HPlySHoKkr1Cf0sas/+GeHnN9BenDwqMb1y2vxuVnp3t0ta+WwZuRc23bY+l9/j0xdP++7z0b1fF94L+4sZ+D3465f1NDvO1++z+vRiyLvRs98kHE5uvpeL7wP/bM3TcTHHjbR/7tyvAPrzvKTn9J6vqPnwcqzNSNoNRkt19L5yRg53++7DzoJy54f8NiPv/jvaxUr5imXr/XyiZ1sX9Ii54zO77scq/0QV0cRyQ7AVMPNg8BJDsCJpmEDT0gRySATJABlo3A0j2GMGaVHU07bbOrwdaXbLfuHFD9Ma/FBDI58t+EZGCo9s0hxCQrJvmqDlQCEAAAhCAQPMTQLK3rtRASDF2ZIAMkAEy0AwZQLIj2alkj8kAkr35T4joIQRaiQCSvZVGi75CAAIQgMBmIoBkR9A0g6ChD+SQDJABMtC6GUCyxwhWKs5bp+I8qbFCsm+mUyuOFQLJE0CyJ8+YPUAAAhCAAATqIYBk31ipMTY2JtxgQAbIABmoPgPI+I39/1YUfyQ7kp1K9pgMINnrOUVhGwhAAAIQgAAEIAABCLQWASR788mKKIHBMsaJDJABMkAGmjUDSPYYwZpUdTTttk6FPJK9tU6O6C0EIAABCEAAAhCAAATqIYBkR9o0q7ShX2STDJABMtAaGUCyI9mpZI/JAJK9nlMUtoEABCAAAQhAAAIQgEBrEUCyt4bAQDQxTmSADJABMtCsGUCyxwhWKs5bp+I8qbFCsrfWyRG9hQAEIAABCEAAAhCAQD0EkOxIm2aVNvSLbJIBMkAGWiMDSHYkO5XsMRlAstdzisI2EIAABCAAAQhAAAIQaC0CSPbWEBiIJsaJDJABMkAGmjUDSPYYwZpUdTTttk6FPJK9tU6O6C0EIAABCEAAAhCAAATqIYBkR9o0q7ShX2STDJABMtAaGUCyI9mpZI/JAJK9nlMUtoEABCAAAQhAAAIQgEBrEUCyt4bAQDQxTmSADJABMtCsGUCyxwhWKs5bp+I8qbFCsrfWyRG9hQAEIAABCEAAAhCAQD0EkOxIm2aVNvSLbJIBMkAGWiMDSHYkO5XsMRlAstdzisI2EIAABCAAAQhAAAIQaC0CSPbWEBiIJsaJDJABMkAGmjUDSPYYwZpUdTTttk6FPJK9tU6O6C0EIAABCEAAAhCAAATqIYBkR9o0q7ShX2STDJABMtAaGUCyI9mpZI/JAJK9nlMUtoEABCAAAQhAAAIQgEBrEUCyt4bAQDQxTmSADJABMtCsGUCyxwhWKs5bp+I8qbFCsrfWyRG9hQAEIAABCEAAAhCAQD0EkOxIm2aVNvSLbJIBMkAGWiMDSHYkO5XsMRlAstdzisI2EIAABCAAAQhAAAIQaC0CSPbWEBiIJsaJDJABMkAGmjUDSPYYwZpUdTTttk6FPJK9tU6O6C0EIAABCEAAAhCAAATqIYBkR9o0q7ShX2STDJABMtAaGUCyI9mpZI/JAJK9nlMUtoEABCAAAQhAAAIQgEBrEUCyt4bAQDQxTmSADJABMtCsGUCyxwhWKs5bp+I8qbFCsrfWyRG9hQAEIAABCEAAAhCAQD0EkOxIm2aVNvSLbJIBMkAGWiMDSHYkO5XsMRlAstdzisI2EIAABCAAAQhAAAIQaC0CSPbWEBiIJsaJDJABMkAGmjUDSPYYwZpUdTTttk6FPJK9tU6O6C0EIAABCEAAAhCAAATqIYBkR9o0q7ShX2STDJABMtAaGUCyI9mpZI/JAJK9nlMUtoEABCAAAQhAAAIQgEBrEUCyt4bAQDQxTmSADJABMtCsGUCyxwhWKs5bp+I8qbFCsrfWyRG9hQAEIAABCEAAAhCAQD0EkOxIm2aVNvSLbJIBMkAGWiMDSHYkO5XsMRlAstdzisI2EIAABCAAAQhAAAIQaC0CSPbWEBiIJsaJDJABMkAGmjUDSPYYwZpUdTTttk6FPJK9jpOj+Qnp7e2Nvk3M19HgBm6yOi/j5wdlcmED+8CuIQABCEAAAhCAAAQSJ4BkR9o0q7ShX1Vk8/aK7HvNkZc+WZa5xSrWZx0hV+SEDDQ+A0h2JDuV7DEZQLLXcT7jSvYJaTGdHn2gSPZoLiyFAAQgAAEIQAACKSOAZG+8bKhF4Fw/5sgjW4K3f9ruyJ7e2qTp9ZM5+Y+tOblQpUS98KYjj7yUk+uLi+L1ofptazm+wLrnc+6xHhrfWOaBPlXJqym3WViWQ6868tLZZcRxK48jfSe/KcjAukj20dFRsW/r8YeZavHWqRZv5rFqVcnuOI7Mzs7K9PS0e9PHumxd/qVJsq8LMHYCAQhAAAIQgAAEILDRBJDsGyt8jWQviOeFJRm7kJMnOhz58ZsrVVcn1yrKkewbO+4NcUOzy3Lr9hKCMgWCsiF5gAPvhQ3MQGKSXT+kvPfee7J169bIm76m6yT1JmpmcUvfWucLgFaU7CrTb9686cr1ubk50ZvKdl22LqK9Gsmu61zJysK9Kbn2xTl3apn+C8MytbAaf36VX5TsWEYG+nU6mn4Z+HJSZnPFTXJzkzIy6LXXe35QRibnJV94OSfZK70yftdr45xOaXM+IxNzeZHcrEx+OSD9vb1y7osJmS18HzEvE71XJLviN1Jtv7W9q4Pi7qN/QDJjWVksdqTQIx5AAAIQgAAEIAABCDQHAST7xsrWEsnuS5K58zn51y2O/NdJU6W8JNfP5uSp57yq97/fnpNDlz3BatowFfFPHFuWxXvL8um7jvz0WW/9HzzrSEehrUWJley3V+TQHkf+qcORRzoceWL/ilxf8DktLEuPeW2LI/9k9aPEcYzkpGN7sb89R0KV7HH7Cckic4yvvVvs10/35GTM9GtiRfa85r/m96tnzBLQdl+ec2TP216/Cl9uLC7J8LFcgZd7XF8Y9lZGZleko8OR/+hesZzOsuzb7sgP9kR9KVJ+3JSXOw5/zMmeN4t9/+l+rx3zxcmp2eL+5z7JyQ+2OLJvJDiGLvtvV+S1Vx35e/1lRIcjT+m43StuWzI+Ica8DquNzMAtK+fl+lHNOuW2ZXmy+U5Esp84ccIV6wcOHJArV65Yf3S9g9Fl+poKeF03iUFGZLeOyG7msWpFyW4q2HO5on3Wxyra9bXE/7mSvcKc7LpO/zm58u2s5FyvvirL2WHp/2xSyk5/vrogE4P9Mjy9IPmHehSrkpsZl+EJX6Tnbsu1kWlZMILcmZWJwV7J3Fz2D9mT7P2fj8ntJU/mu/vsPyeZ8btePx4uS3a4Xz67bnoRIdkr9Xvltgz3D8r4TE7cvTzMy/z1jPQPTkil7xASHxt2AAEIQAACEIAABCAQSQDJnqx4qHTOb+RxUfaa/qzIayrUd+bk1uKiqHT/8RZH9rjid0lunfWeH/JFshGyheliFlbkg/05uXRDRfOSjB1xCnJW+1RWsusUJC878q+7fUF7z3/eZYnfrTm5NLski1p1fyYnH3xuyWwjbmdX5IXnrHZml+XUHktsV9hPmJvh1NHri+8Rv9r/oC+7h3Py2rEVuaVS2e/zI9tzMqb9KenLinywy+qLCvZuT0wfGvF59TjulxyvlRzbklxSQf9cTi4ZwT/ofSHy2mAph0rj5o5DhyP7zLj2+hJ9eFEWr+fkqS2OPPUXI/uX5YNXHXnkVS8T9hgu3vbkv/764Zb26+aKvKbi389PmCfPzfuM+2bIwp8vLMv/81pO4iS6vqbr6LrN0Gf6EHzvNFyya4V6Z2enOz2MwlappyJdpbre9LEu09d0ChldV7dp9MA0s7ilb63zBUArSnatWNfq9fA/XaavJf7PlewV5mTXdS5nxehvt0/5u3LNrhoPdTR364r0Xr1tVaaHVoh46m5TuNiqX8l+z1pxJStXescD88cHt4mQ7BX6PT/RL5+VXCl1Waa/6JWRO5SzW/R5CAEIQAACEIAABJqGAJI9KAoafX5eqT0jj0sl+7IcesnMm+49/sGbdvX0kpza7ci/+pK5RLKrXF5Ykls3l+VWdkkWx3PyxBZHXjjvHa8taAPbnvckb6A/wzn5jy2O9NxclOs9nox+7cKyzMVVSZ/1qtb3qSw24t2ek73Cfgrb+NsG+ugv88S4NZe8Tp+ixzu7FJxnvlJfFlbkhYjqdOUfZO4fiy/VOz7xhHxBupvjLNxXHjd7HNxjDozTknyqX0yYLwt86d7R58l8e1vDx656X4xiXOibNS4sK2YUFhvG4rfvrZQV7Uaw6zrhvw08b473ckMluwp0leZmGhi9f/nll2Xv3r1y+vRp96aPdZm9jm7T6Ip2RHbriOxmHiskex3nPdVK9itZKdba635CQju06/mJXrmSDWj50Bp5Wbh5Ta58PiiDn1+SkclZmb95RXpDkr3wVLd2JXvwC4GKkj223xEi3+/l8vQlqy+hrvMUAhCAAAQgAAEIQGBDCSDZN1ZQeHLUkYDUdkWfXcm+Ii9scUSnfPmPrcXbj3U6l3IXLx3LyVMd1jbbvcrsSpLd9OfH1n7+43mvCt7ddmFZLv0lJ//1R29aEp1WJTAtiy8pjfQtVNbrckuyV9xPSHZGtWfa+OD6koz1+P153hHt70+3aqW6J+CjtrX7Ev4Cwkg7W2KbZd79iuzb6k8P408f89PDUdW1lcetZB8Byb4oi77Q1+lhxg7rFxw5+dSfVsPe1n5c6Gu4rRDTwnosR9w2SQaiRDuCfWP/H1Xt34mGSXb9UKLTv2h1utm5CvWoKnVd1tXVVVhPt9FtjXg326/lvpnFLX1rnS8AWlGyN8d0MUFxXXLGpCI+VlaXbCHz4/GS3ZXjg+Nydzkvq6urkl+elYlMvyW2PQGerGRfluzlXhm3q+X9Q0Gyl44pSyAAAQhAAAIQgECzEECyb6zAMKI4LNnnztpzsvtV7TqFi1Zq2zetUl9cDFZuLy7KpYOhKU3GcvL/1lDJvufz0H5uRlSu31uWnt2OPPJyTq6HJV2l6nG/yrqq/UQcnx5zsZLd+0LiX98uVrnq9DhGsi9W6kutleyLvvDW6Xve86ad+eB6VI4qj1uJHC8R4+bYcu70QfYx2tuaLxKoZI8aB5atxTGu97a2aEewt052GybZVZzrdDAmeEa6m6lhzHK912Vhqa7bRgl5e7taHiOyW0dkN/NYtaJkb6ULn9ZSye5K9JjpYtxK91vBFoNV6esh2UWYLqZZTpXpBwQgAAEIQAACEKieAJJ9YyVGiWT35zn/aYcjP96z4s7Hrj5grs+bxkWnaXH9gM5xfti68KcvkrWqe3HBl+4djnww4U1pcuu8N+VLpUr2xYUV9yKe/7ozJ8M67/riktz6PCeHznsy/9bJnPxvM/f5wrJ82lVGspfMgx6ekz1+P2EHYjhFz8nuT8vyWs670Kde9HW/Jdn9avPCPPOzVczJ7s9hXzonu58XX4a7F5v150gP97macbNFubt9iWQvCn3dl1a0m/0Eto2Yk/0F/QUCc7IXeBlu3Bcz1KwsjGjXOdiZIqb5x0tz1DDJrtLcvsipqU4vF9Zw1btuq8vKrV/r8mYWt/Stdb4AaEXJrqcSKtpNRbu54KkuW5d/CU0XI/6FTzPX5wMXPr0y7l34dPlmRnq/mJR5c5jOgmS/+mydK9l1ChoufLouOWMnEIAABCAAAQhAoIEEkOwbKzCMPHZl7RavKvqftjuy50x4+pEluX42J0/pxVB1vQ5HnnozJ5du+v2f9S50qa/9tHtFFheWpWePN4WKrvvELsedV72iZNeK9NsrcmiPI/+k09FsccTtzyfLMqfC/YucvPCq366+9nJOPv3WE/Al7mIkJx3bvTb+/jlH9ugFQ7dYU+OU3U/pmJhK7UMnc6JfQOgx/XSP9SXDWHFfOq3O/96p+yrO1z53ufi62+ceb8744i8IlmT4WE5++qw55pwcci9GWtoX7zj9i5BuccSbm73cevHjNnYqJy8dLn6ZEjl1jT8Xe2Fudv9XAwHJrsu+XZHXzNhoPvb7F68N/8qA5w3zbyWZh23D2KpcR7CX+7vSfMsbItmjhHqtlez6pgyL97W8URHZrSOym3msWlWym/ONGzduiN7W9Z8r2XultzfiZuZquT8ll0bv1jQnu3sMDxYlO5aRgX5tu18GvpyU2ULxel7mJ4f9187J4NVJyU42eE72avudm5XJq4NyThn0D0hmLCuLD9Z1FNgZBCAAAQhAAAIQgEANBJDszScr1uID0rqtkeyBOd7XIDT1lwEq/D/4tv7xd/v0XE4uLdTfRlrHi+MiE2Rgc2UgMcmuQYqbk11fC4cNyY4YbzbhjmSv4cyEVSEAAQhAAAIQgAAEINCiBJDsm0uEhF1Eqzxfm2RfkguHc/LpmF9xf2NF1jSVyoJOyeNNUfPjg8V54FuFJf3kPU8GyECjM5CoZNcPKp2dne5FTvv6+kRvesFTXaavhQ8GyY5kR7I39qxkQyrZG3sItAYBCEAAAhCAAAQgAIHECSDZkS1hP9GMz9ck2XXu+HedwlQwZqqd4dv1jf2tk/6UMjpvfZ1tNCNj+lRfHuAGNzLQoDnZo6aLMXB1XugTJ064F0XVi5vq46iLoer6SHYkO5K9secPSPbG8qQ1CEAAAhCAAAQgAIF0EkCyI4iMw+CeLJABMkAGyEA9GWhIJbvuWAW5feHTWjvDhU8R7M0m2LU/TBeTzpMojgoCEIAABCAAAQhAAAI2ASQ7QqVWh8H6ZIYMkAEyQAbsDDRMsr/33nuiN21chblWrVdzM2Le3t7uYL2Pm1HY0qfW+yIByW6fevAYAhCAAAQgAAEIQAAC6SSAZEeU1Ose2I7skAEyQAbIgGagYZJdP5RoNbtOB2PuT58+LXE3e13dJpvNlszTXm9QEdqtJ7SbccyQ7Ok8ieKoIAABCEAAAhCAAAQgYBNAsiNI6nUPbEd2yAAZIANkQDPQMMmujdnSvNqA1bNNNW03o7ClT60n/pHs9qkHjyEAAQhAAAIQgAAEIJBOAkh2BEk1noF1yAkZIANkgAyUy0BDJbvuRKd9efnll0Uvhlpup2a5rqPrHj16tOK6Zptq7xHarSe0m3HMkOzpPIniqCAAAQhAAAIQgAAEIGATQLIjTap1DaxHVsgAGSADZCAqAw2X7LoTU52uc7KbOdftnZs52820MvZrjXrcjMKWPrWe+Eey26cePIYABCAAAQhAAAIQgEA6CSDZESaNchG0Q5bIABkgA5szA4lIdg2TfkjRqnYV6VE3fa2Rc7CHA4zQbj2h3YxjhmRP50kURwUBCEAAAhCAAAQgAAGbAJJ9cwqRsEfgOTkgA2SADJCBejOQmGS3O6TTwtg3+7WkHjejsKVPrSf+kez2qQePIQABCEAAAhCAAAQgkE4CSHakSlJugnbJFhkgA2Rgc2RgXST7RoQJod16QrsZxwzJns6TKI4KAhCAAAQgAAEIQAACNgEk++YQIBvhJtgn2SIDZIAMbI4MINlnkNHNKLebpU9IdvvUg8cQgAAEIAABCEAAAhBIJwEk++YQIIguxpkMkAEyQAaSygCSHckuzSK0m7EfSPZ0nkRxVBCAAAQgAAEIQAACELAJINmRLklJF9olW2SADJCBzZEBJDuSHckekwEku33qwWMIQAACEIAABCAAAQikkwCSfXMIEEQX40wGyAAZIANJZQDJHiNYm7Gymj6t7/Q+SPZ0nkRxVBCAAAQgAAEIQAACELAJINmRLklJF9olW2SADJCBzZEBJDuSnUr2mAwg2e1TDx5DAAIQgAAEIAABCEAgnQSQ7JtDgCC6GGcyQAbIABlIKgNI9hjBStX4+laNNyNvJHs6T6I4KghAAAIQgAAEIAABCNgEkOxIl6SkC+2SLTJABsjA5sgAkh3JTiV7TAaQ7PapB48hAAEIQAACEIAABCCQTgJI9s0hQBBdjDMZIANkgAwklQEke4xgbcbKavq0vtX1SPZ0nkRxVBCAAAQgAAEIQAACELAJINmRLklJF9olW2SADJCBzZEBJDuSnUr2mAwg2e1TDx5DAAIQgAAEIAABCEAgnQSQ7JtDgCC6GGcyQAbIABlIKgNI9hjBStX4+laNNyNvJHs6T6I4KghAAAIQgAAEIAABCNgEkOxIl6SkC+2SLTJABsjA5sgAkh3JTiV7TAaQ7PapB48hAAEIQAACEIAABCCQTgJI9s0hQBBdjDMZIANkgAwklQEke4xgbcbKavq0vtX1SPZ0nkRxVBCAAAQgAAEIQAACELAJINmRLklJF9olW2SADJCBzZEBJDuSnUr2mAwg2e1TDx5DAAIQgAAEIAABCEAgnQSQ7JtDgCC6GGcyQAbIABlIKgNI9hjBStX4+laNNyNvJHsdJ1HzE9LbOyHzZTedl4neK5JdKbvCOr2Qk+yVXpko39F16scadvMgL/nVNWxfdtN1YPNgXiY+75fe8ADkFyU7lpGB/l7p7e2Xgcw1mbqXL9vTel7IzU3JtSuDcq5X93FOBq9OymyutKXl2yNyLi6rmvUrWYnYtLQxlkAAAhCAAAQg0NQEkOxIl6SkC+2SLTJABsjA5sgAkh3JTiV7TAaQ7HWcCyHZ64BW3ybzE71y5VYSijdhyf5wWbLD/dKrktuWSv3TuQAAIABJREFU7CreB/slc31e8g89JvmFaRkZycpyfYhKtsplr0j/52OSXciL9/3EquRmxmWwf1huW1/85O9NyKAr4WO+EEKyl/BlAQQgAAEIQKBVCSDZN4cAQXQxzmSADJABMpBUBpDsMYK1GSur6dP6Vte3qmR3HEdmZ2dlenraveljXbYu/5Ds64JZd9Kakt0T7IMT83J3IijZF64PSv9Xd6Wxdevh4ViV1QfhZXm5+1WvXJr2VP7q/IQr3bP3snKFSvYwLJ5DAAIQgAAEUkkAyY50SUq60C7ZIgNkgAxsjgwg2ZHsVLLHZKAVJbvK9Js3b7pyfW5uTvSmsl2XrYtor0eyO/MyedWfvqN/QIYn7sqyX8lszuLy96dkZPCcW/3cf2FYJu8tlEz3kpubLKzTe35QRibnY4StX619Ly/zU9ckc96bOiQzdluWA1Ow5GXx1phkLniV1+cGR2RyzlSP5+X21V7J3AzXWa/K7Nf98tnkgul+yX3+XrGvejwTM3Ybft9mFuX2xLA/dco5yYzd9Su6dcod7a+5+dPz+JXViz6rYpX7avAYvrgm0/fjVHZpJXsltvb49J7PyLWp8uyX7827x6FfEhQr2Rdk8rNeGZsNwC/hFliwMCmf9Y9LySZL05LpHZHbVX+v5En2/m/98XqwILMLqyIr1Un2xcXbMvHlgPT39oqbzXmLbX5Bpky2e89J5qspma+6X4Gj5QkEIAABCEAAAgkSQLJvDgGC6GKcyQAZIANkIKkMINljBCtV4+tbNd6MvFtRspsK9lzOiGARfayiXV9L/F+tkt25K9f6B2V8JudN3/EwLwvTw3Ju+HZxruuFSRns9dZx+7+ak9lvr8i5fmtO9dxtuTYyLQtGYDqzMjEYJcANAU8kn/vCmzrEXZrX6UrsKVhWZeHbQekfLra7unRbrg32y/Btj+/q3Lj0fzYpAZ3u3JaR3oxML5l9Be/zd69J/+C43F3xhbKzINPD5wptinh9M9OauFv7x3PtblHgllSyK/v+c3Ll21nJWa7arRC3j2HlrowPDsrEfWulQBdDkr0S27yO4RWZXvLbc8dnrOzxm10FJHvutgxr1fhyXhZumi89dE72Mckuluvnskx/0Ssjd4pMtO2Fyc+k/+tZfzoYs7eYe3e8esVm665djWTXL4Umi7yXs8PS32+uSZCXu9f65crN5eLUNHMTMlbypUxM33gJAhCAAAQgAIF1IYBkR7okJV1ol2yRATJABjZHBpDsSHYq2WMy0IqSXSvWtXo9/E+X6WuJ/6tRsqsQLa341grxfv+ipOWqwpcle9mS7BEHlrt1xaqUDq/gieTxe8Hly9OXitu4krW0Ijoo1rUCu1/G54oiePlmRnqv3i5TRa/rfyYlRe4qegtyNrpvC9c/K/YtaroYZX85NH+5K5BLj0G0CrzsRTtDkj2IyH0WYLs0LZc+m5CF0K8PIjYLLApIdpf1JRm+OiITc8EvXPpD86XbjeTvjEjvF9PFOdtXZ2W8P4KvvVHgsT8//GDoixJdpxrJHua9OitjhSlmlmX60mcycT+wQ55AAAIQgAAEINCEBJDsm0OAILoYZzJABsgAGUgqA0j2GMHajJXV9Gl9q+uR7HWcAdUk2T2ZO3JjVmbngrfp0QG5ktUpVKKFs1levG6mVwF95fNBGfz8koxMzsr8zcqSvbi9d6wBeRwlrXW1gEgVCUr1UukeoOiL+6nQ8c7OTcvYgFZy69rRkjvQt3KSPSzO9Rgujcvt8P5mJuVK77jMBzpnnoT3X4ltTu6OXpJ+nSZmfFpuzy8WLlxqWoy6L5Xsn8n4veKXFd42Xl/MfOkl7YSkeol0L9nAXrAq8xOD0ts/7HO3X6tSsod5i07lU7xYam5mTC716zQx4zJ9Z14WzS8tQrviKQQgAAEIQAACG0sAyY50SUq60C7ZIgNkgAxsjgwg2ZHsVLLHZKAVJXtrTRfjVaNnvpqUycmI2101zt464YrzsIh2BbROwbKcl9XVVckvz8pEpj9Q+R08dQuLZO/VgMi+N15aGa6rhSS72NPDzE+UTh9j73hZ5/nOyLWo452clLvuFDNV9K1aya7H8NmwjEfub1rs6cOL3Qzuv2q2zqLM35mW8a8ycq6cuC7uxL1wqz0n+0R/f2TVd0DGW9ubh8XpYbx+h6ePMesF7/My+7UK9ksyMR8W+/6a1VSyV5DsbksP87I4f1umx3UanH4ZvmXPvx/sFc8gAAEIQAACENgYAkj2zSFAEF2MMxkgA2SADCSVASR7jGClanx9q8abkXcrSvZWu/Dp/ET8BUJFVmV2rDdiSpngdDEqYosX+vROzgLCvOR8LSiSzcuBbfyq8/AFNIPTxeiW3pQ2mZuL7gVPSy+EalrX+3mZqDidSRV9q1aylzkGu0elj4P7r52tyOINa9qd0h24S8Ly3J06aGI+NJe6N+96eGwDTeqFTvUCqN/592WceWGbB4syffWcW8E+XXa+98ZUshf2aR4sTsmlXjNnu1nIPQQgAAEIQAACG00AyY50SUq60C7ZIgNkgAxsjgwg2ZHsVLLHZKAVJbueoKho14p2nYNdb/pYl63Lv5qmi1GReVuG+wfl2q2FwhQj+YWsjI1ac4tbFz51/aleWHNyRC59VpyT3Z2y5YtJmTeH6SxI9qvgHObB4w+KZPNaQLJL5Qufmu3cOc4/+0w+642Y/7ywkvcgd3tY+gevSXbBv2CnXuz11piMFSqcq+mbuJXgl24sijzIe/O/K/uSymr/GDITMmsutOpemHSkfAV3aLqaimzvT0rm6pTMF9r35jmP/7LB63+xkr2YBfsiuPPXM9I/OCHzD0IQA091Dv9e+Uz5l0x2H1hRxJmV8c/7pf/zcZk1WQmtUni61kr2hwsy+cWITM37c8zLqrgXRjVzyOfvytj5czI2E7xwa2H/PIAABCAAAQhAYN0IINk3hwBBdDHOZIAMkAEykFQGkOwxgrUZK6vp0/pW17eqZF+3s5GoHbmSvVd6e8M3U70bnLPabcKZlymdYsTd5pwMXp2Q298FxWP+/pSMDJ5z2z33xZhkFxcle6Uo2UXyMj85LAP9ul9tY1Kyk2uck93tXF4Wb41J5kK/t+/BEZm8F+ybh8GruO7/ejZUiR0FSSR/b0qufeEdT+/5QRmZuC2LhWa9Oc6nQhfMDH4BILKqcvt8r/Sez8jUglvaHiHZdf+rsnhnQob9Y+i/kJFrU7OSK3uh0rDkr8Q277Zvxsc9nsn5Mhd+LfIIV7K7ryzflYmrg14W+gck89VU8YuT4qYlj9xfF/RmZNqdbqfk5cICd58l2fSzGp6gf62SXUTy390uHo+fy8IXQUj2wrjwAAIQgAAEILDRBJDsSJekpAvtki0yQAbIwObIAJIdyU4le0wGkOwbfboTt3+dduVSRaka10JjX9MLnn4mlQqpG7tPWjME3AueXr1dUeyb9bmHAAQgAAEIQAACNgEk++YQIIguxpkMkAEyQAaSygCSPUawUjW+vlXjzcgbyW6femzg46VpGfn6riybKUNWc3JXL1pppt3YwK6ZXednxqS/ifpj+rUp7h8uytQX/TI+V2ky9k1Bg4OEAAQgAAEIQKAOAkh2pEtS0oV2yRYZIANkYHNkAMmOZKeSPSYDSPY6zlAS2SQv81PXClO2FKZXMdI9kX1W2ag7pUiv6BQ2d5er3IbVGkbAnf6lf0CGpxaqmqanYTumIQhAAAIQgAAEUkUAyb45BAiii3EmA2SADJCBpDKAZI8RrM1YWU2f1re6HsmeqnMnDgYCEIAABCAAAQhAAAKRBJDsSJekpAvtki0yQAbIwObIQKKSXT+ojI6ORt70tSRDhoxeXxmdVt5I9shzEBZCAAIQgAAEIAABCEAgVQSQ7JtDgCTpIGibDJEBMkAGNncGEpXsBw4ckK1bt0be9LUkw5dW6ctxre+XB0j2VJ07cTAQgAAEIAABCEAAAhCIJIBk39xiJEk3QdtkiwyQATKwOTKQuGTfu3dvSSW7LkOyr68sRs7XxxvJHnkOwkIIQAACEIAABCAAAQikigCSfXMIEEQX40wGyAAZIANJZaBhkj2bzcqxY8dE72dnZ6Wvr09efvnlSJmugl1f03V0XXvbRh0oUrk+qQy3IDcke6rOnTgYCEAAAhCAAAQgAAEIRBJAsiNdGuUiaIcskQEyQAY2ZwYaJtnfe++9wrQwr7/+uvv46NGjbhV7OFw6T7u+plPJmHX1sbYRXrfe58jioCyGR308kOyR5yAshAAEIAABCEAAAhCAQKoIINk3pxCp1zewHXkhA2SADJCBcAYaItlVmqskP3HihCvPVZzrsvDOws91HV1Xhbtuq21Us124najnSOX6pDLcgtyQ7Kk6d+JgIAABCEAAAhCAAAQgEEkAyY4sifIKLCMXZIAMkAEyUG0GGiLZdY51leU69Uu1Ow6vp9tqG11dXXW3YbeJLA7KYnjUxwPJHnkOwkIIQAACEIAABCAAAQikigCSHYli+wQekwcyQAbIABmoNQNrluyDg4NuBfqVK1fKynH9wHLu3Dn3po/LddK0pffl1ql2OVK5PqkMtyA3JHuqzp04GAhAAAIQgAAEIAABCEQSQLIjU6p1DaxHVsgAGSADZCAqA2uS7Fp9Xu7iprozfd2eq12ngzFzr5erejcXRS33etRBRC1DFgdlMTzq44FkjzwHYSEEIAABCEAAAhCAAARSRQDJjjCJ8gosIxdkgAyQATJQbQbWJNlN5Xm5OdhVsHd2droV7CrN9aYV7bos6iKnWg2vbamIX2s1O1K5PqkMtyA3JHuqzp04GAhAAAIQgAAEIAABCEQSQLIjUaqVKKxHVsgAGSADZCAqA2uS7NqgXqhUpbmKcXsH+iFFl6lUt5frY12mr+k69mu6TNtqxMVPkcVBWQyP+ngg2SPPQVgIAQhAAAIQgAAEIACBVBFAsiNMbDfBY/JABsgAGSADtWZgzZJdd6hTvOjN3rkR6VHTvuiyKAEf1Y7dZi2Pkcr1SWW4Bbkh2VN17sTBQAACEIAABCAAAQhAIJIAkh2ZUotvYF3yQgbIABkgA+EMINlnglIVyQwPOwNI9shzEBZCAAIQgAAEIAABCEAgVQSQ7MiSsCzhOZkgA2SADJCBWjKwZsmuU7voxU/1Zu9YP6REVavrOqbKXdext9H1tR2mi0F026J7Ix8j2VN17sTBQAACEIAABCAAAQhAIJIAkh2RYrsJHpMHMkAGyAAZqDUDa5Ls1Vz4VKW5SnX7wqe6LOrCpyrXufApgn0jpXp430j2yHMQFkIAAhCAAAQgAAEIQCBVBJDsyJRaZQrrkxkyQAbIABmwM7Amya7iXC9UGp6P3exAX1eZrhXq9k2X6WtmPfte29I2y71urxv3OCxLeY68rycDSPZUnTtxMBCAAAQgAAEIQAACEIgkgGRHlMT5BV4jH2SADJABMlApA2uS7Nq4qWa/cuVKpDTXdfQDi1az600fl+uUaUvvy61T7fJ6hCrbIOLDGUCyR56DsBACEIAABCAAAQhAAAKpIoBkR55U6xpYj6yQATJABshAVAbWLNm10b1797rTvKyl+ly31alitK2ojta6LCxLeY5ArycDSPZUnTtxMBCAAAQgAAEIQAACEIgkgGRHmNTqHFifzJABMkAGyICdgYZIdp1LXaeDOXHihBw7dky6urpiK9ZNB/SDjK6r2+i22kYjLnqq7dcjVNkGER/OAJI98hyEhRCAAAQgAAEIQAACEEgVASQ7osR4Cu7JAhkgA2SADNSTgYZIdt3x0aNHXUmu86nrTS9uqvI8m82WVKbrMn1N1zHrq2DXNuo5iKhtwrKU5wj0ejKAZE/VuRMHAwEIQAACEIAABCAAgUgCSHaESpRXYBm5IANkgAyQgWoz0DDJruJcJbne69QvRrpHXRRVlxmpruva21bb8Urr1SNU2QYRH84Akj3yHISFEIAABCAAAQhAAAIQSBUBJDsSpZJj4HUyQgbIABkgA3EZaJhkj9qJynSdDkangLFvuixKvke1Ue+ysCzlOQK9ngwg2VN17sTBQAACEIAABCAAAQhAIJIAkh1xUq97YDuyQwbIABkgA5qBxCW7VqxH3ZDsSO96pPd6b4NkjzwHYSEEIAABCEAAAhCAAARSRQDJjiBBkpEBMkAGyAAZWEsGEpXs+kHFrmC3H+tra+l4pW3XW8ayv3R+aYBkT9W5EwcDAQhAAAIQgAAEIACBSAJIdsRKJcfA62SEDJABMkAG4jKQqGSP23HSryG90ym913tckeyR5yAshAAEIAABCEAAAhCAQKoIINkRJ0k7CtonY2SADJCBdGcAyT6DjF5vcd1K+2uEZL9x44ZwgwEZIANkgAyQATJABsgAGWjeDCDZ0y0+EFuMLxkgA2SADCSdASQ7kl1aSXqvd18bIdlTVeLDwUAAAhCAAAQgAAEIQCCFBJDsyJek5QvtkzEyQAbIQLozgGRHsiPZYzKAZE/hGRSHBAEIQAACEIAABCAAgRABJHu6xQdii/ElA2SADJCBpDOAZI8RrOtdNc3+mm/qHiR76OyDpxCAAAQgAAEIQAACEEghASQ78iVp+UL7ZIwMkAEykO4MINmR7FSyx2QAyZ7CMygOCQIQgAAEIAABCEAAAiECSPZ0iw/EFuNLBsgAGSADSWcAyR4jWKksb77K8vUeEyR76OyDpxCAAAQgAAEIQAACEEghASQ78iVp+UL7ZIwMkAEykO4MINmR7FSyx2QAyZ7CMygOCQIQgAAEIAABCEAAAiECSPZ0iw/EFuNLBsgAGSADSWcAyR4jWNe7apr9NV/lPJI9dPbBUwhAAAIQgAAEIAABCKSQAJId+ZK0fKF9MkYGyAAZSHcGkOxIdirZYzKAZE/hGRSHBAEIQAACEIAABCAAgRABJHu6xQdii/ElA2SADJCBpDOAZI8RrFSWN19l+XqPCZI9dPbBUwhAAAIQgAAEIAABCKSQAJId+ZK0fKF9MkYGyAAZSHcGkOxIdirZYzKAZE/hGRSHBAEIQAACEIAABCAAgRABJHu6xQdii/ElA2SADJCBpDOAZI8RrOtdNc3+mq9yHskeOvvgKQQgAAEIQAACEIAABFJIAMmOfElavtA+GSMDZIAMpDsDSHYkO5XsMRlAsqfwDIpDggAEIAABCEAAAhCAQIgAkj3d4gOxxfiSATJABshA0hlAsscIVirLm6+yfL3HBMkeOvvgKQQgAAEIQAACEIAABFJIAMmOfElavtA+GSMDZIAMpDsDSHYkO5XsMRlAsqfwDIpDggAEIAABCEAAAhCAQIgAkj3d4gOxxfiSATJABshA0hlAsscI1vWummZ/zVc5j2QPnX3wFAIQgAAEIAABCEAAAikkgGRHviQtX2ifjJEBMkAG0p0BJDuSnUr2mAwg2VN4BsUhQQACEIAABCAAAQhAIEQAyZ5u8YHYYnzJABkgA2Qg6Qwg2WMEK5XlzVdZvt5jgmQPnX3wFAIQgAAEIAABCEAAAikkgGRHviQtX2ifjJEBMkAG0p0BJDuSnUr2mAwg2VN4BsUhQQACEIAABCAAAQhAIEQAyZ5u8YHYYnzJABkgA2Qg6Qwg2WME63pXTbO/5qucR7KHzj54CgEIQAACEIAABCAAgRQSQLIjX5KWL7RPxsgAGSAD6c4Akh3JTiV7TAaQ7Ck8g+KQIAABCEAAAhCAAAQgECKAZE+3+EBsMb5kgAyQATKQdAaQ7DGClcry5qssX+8xQbKHzj54CgEIQAACEIAABCAAgRQSQLIjX5KWL7RPxsgAGSAD6c4Akh3JTiV7TAaQ7Ck8g+KQIAABCEAAAhCAAAQgECKAZE+3+EBsMb5kgAyQATKQdAaQ7DGCdb2rptlf81XOI9lDZx88hQAEIAABCEAAAhCAQAoJINmRL0nLF9onY2SADJCBdGcAyY5kp5I9JgNI9hSeQXFIEIAABCAAAQhAAAIQCBFAsqdbfCC2GF8yQAbIABlIOgNI9hjBSmV581WWr/eYtJJkX8w9lNvzD2RqJi/XuaWSgY6tjrGONf8gAAEIQAACEIAABBpHAMmOfElavtA+GSMDZIAMpDsDSHYkO5XsMRloFcl+b3E1lVKZLwvKf2GiY84/CEAAAhCAAAQgAIHGEECyp1t8ILYYXzJABsgAGUg6A0j2GMG63lXT7K/5KudbQbJrVTMyuryMTjMbKtobc1JNKxCAAAQgAAEIQADJjnxJWr7QPhkjA2SADKQ7A0h2JDuV7DEZaAXJrtOHpFkkc2zlv0DQsecfBCAAAQhAAAIQgMDaCSDZ0y0+EFuMLxkgA2SADCSdASR7jGClsrz5KsvXe0xaQbIzB3t5CZ12Qa9jzz8IQAACEIAABCAAgbUTQLIjX5KWL7RPxsgAGSAD6c4Akh3JTiV7TAZaQbKnXSRzfPFfIqz9lJIWIAABCEAAAhCAAASQ7OkWH4gtxpcMkAEyQAaSzgCSPUawrnfVNPtrvsp5JHu84EWAbzwfTokhAAEIQAACEIAABNZOAMmOfElavtA+GSMDZIAMpDsDSHYkO5XsMRlAsm+8REbkx4/B2k8paQECEIAABCAAAQhAAMmebvGB2GJ8yQAZIANkIOkMINljBCuV5c1XWb7eY4Jkjxe8CPCN58MpMQQgAAEIQAACEIDA2gkg2ZEvScsX2idjZIAMkIF0ZwDJjmSnkj0mA0j2jZfIiPz4MVj7KSUtQAACEIAABCAAAQgg2dMtPhBbjC8ZIANkgAwknQEke4xgXe+qafbXfJXzSPZ4wYsA33g+nBJDAAIQgAAEIAABCKydAJId+ZK0fKF9MkYGyAAZSHcGkOxIdirZYzKAZN94iZwmkT8+6MhTnY4cvto4rms/paQFCEAAAhCAAAQgAAEke7rFB2KL8SUDZIAMkIGkM4BkjxGsVJY3X2X5eo9JGiX75cOOPLIlePvHbY68cjIv4zPVy9/LPY78+wuOfFzlNh93OfLIHx25PJMX04dqt40X7Y5s2eLILw9X13e7H/HtVtde1W0MO/LENkc+mmhsu4mdEq+uyviZvPz6BUd+4OflsZcceevCamK7rLbhzH5HHnk5L3er3YD1IAABCEAAAhCAQAUCSHbkS9LyhfbJGBkgA2Qg3RlAsiPZqWSPyUCaJfteU019Jy8X+x35ZYcjP+pyqhbttYpyW27Xum28yG4NyT7+bV7Gs40V7MolkX+rq/LX3Y480uHIoeFVyalXz63KyHFHHtviyK8/3ljRjmRPZNRpFAIQgAAEILCpCSDZ0y0+EFuMLxkgA2SADCSdASR7jGBd76pp9td8lfObQrL7lejjnzryL1sceaqnKIIv9znyxHNe1fvfbXNk76D3mpHkpiLerSLP5uWjdxx5/Pfe+o/+3pHfWW3FSvbrjuzd7cg/dnhi95dvOXL5TrEfAcmezcv+3Y78nVZXd+g+SiV7uX5rO3Y/Au36HM4dLh7DP3Y68tGo6Ye3n5/vcWRLpyOP+vt/8VPv9b1/dOSRXcEvKT5SUb3NkYszFfr4nCMvnjb7qe0+ibPh+6e96vU3hh+Gmn8o92d8wb66KiN/zcuv/+D/KqLDkV93P5Ccv8Xd497yN4458nMd1y2O/PNreblR8PMP5e7F4vY/eNaR3x57IPfd14Ov/cOLeTl8rdiXgGTPPpC3djnyz2YfL+blr1Nm3Qfyxy2O/H/v5OWNVx35wf4HoePRp8F9xfbjD468YVXyF46x25HH/Oz+9uNVuZ/Jy38+6x3zz98pMnH7/VJe3uhy5B/8/NjMzOuH39HjyUtGHsr9kbz8cYe//hZHHtuRl5GFiMNgEQQgAAEIQAACayKAZEe+JC1faJ+MkQEyQAbSnQEkO5KdSvaYDGwmyX59xpEXVai/6sjITF5Uuv9oiyOvfOZJ35E+7/neYe+5Ee2FKV/uOLL/LUf6xr3XL77viehdGe+5LbcD297Jy95OR/5llyOXtdI76z/fExTWRoi77TznyLtf5eW6VuGf9Pplpoup1G+7H6ZNc3/xsCOPmrZn8uIew3OOfHRdj8ET5Y92OtKnU77cycvhXY488oIj52byMvKhJ1X3j3nHe33MkSe2OPLEh8VtC3382GOzpc9bd+SsI4+HvuAwfap0v6azyciNV6XnVf1yIC/jka+bhQ/lQndeLrhC+6Hcv5h3q9z/cN4T3EZA/+GMb9Wv5eXnWxz5w1nv9dzZvDsNzR+NtP4mL2/91Vs3N+S19daIPi+2fdiX5wHJ/nVe3jj+QO6r3c+tymHt+4t5ueF205PsP3g1LyMzRryb/nv3sf0wfbzo9yPjHcNvT3v9NMfoHcNDGen2MvDbjx9IbvWh3P3Ye95z29uX22/9dUDouEx7hdeHvfZ1q9z5vCv23V8TzD2QP+r0PV1FcR88Gp5BAAIQgAAEIFAvASR7usUHYovxJQNkgAyQgaQzgGSPEaxUljdfZfl6j8nmkux5caux/XnT9fGjXY7Yklel8r8c8JYFRLmZl/1OXkYm8jLybV6uX3Xkl1sc2eJXettyO7Dtp55wLkxfo21dcuTftzjybnj+8jue6P73d+1+BavEK/Xb7od9bNe17Y7w3O6O7HrBVPcH96PbBo5j2pHfdTjy+Hu+OPel++HpUskeVfVu+hXok+Eac1/viWT57R7IG1qVXdWc5w8lN7cq9+dUYHtC+z+P2wJaq7HNP/v1VTn8siOP7ImSxd5rwarzh3JmjyP/689eJXpAsmvzy9qHVbm//FA88W32a+/T9MO+r9yPYB8fir3v4L5EZCgvj2wx+zbPHTk87e3T3tZb4h3XI69688uXvu73dcE7vlxOAvu3j4THEIAABCAAAQisjQCSHfmStHyhfTJGBsgAGUh3BpDsSHYq2WMysLkku13J7ldt/967uKle4FRvP1L5Wu7ipXphzw5HdJoYd/1t3vQzlSS7EdU/8vfhbvu8X+lCI4mpAAAgAElEQVTtC/qCeA6Je2+5Lb8r99vIbL0Aa6Fdfey3/XfPBY/ZncLG/bLB3o+3rem7qebv0wtyutPD5GXXNkce3W2q8e1t7cfFPpi2An0K9zHi+dpOJ6O2rrKSfeGB7NjmTdnz+DZHHn/Rm6+9OskeJ7+913TaFrddbXubPx2LL/6LMvqh3PjYm0rln19w5PEXHPm59qkguuP2o8ce93r0a7ZYtx+7JGuW7L40d6eGiRLoDyXzjjd1z2PKwT/G6r4AiRpblkEAAhCAAAQgUI4Akj3d4gOxxfiSATJABshA0hlAsscI1vWummZ/zVc5v5kk+3hfcE52U219WSvT7ZtWqYeruGfy0nfAkUeec6TPzKU+7LjTg1SS7Nf9SvZXLoT2MxFxodAqK9l1bvRy/S4r2f1K9scPOcHj1WO3posxU75EMbh+wWP44iH//ryR6EGxbtiOW9Lc9GvjJbtINXOy6zo6z3rPXf9UdTUopUsEdEBoV1dBftetkver1PXxvDflS1GyP5A3/uDI/zpUnGv9xke1SPbq+mHmmdepa4r7llDVvKlcb2Al+1xefqsXmvWn0dH9X3ir2l8ZlFMILIcABCAAAQhAIIoAkh35krR8oX0yRgbIABlIdwaQ7Eh2KtljMrApJLvOa37akcc7HPnRbm8+dhW94/684S/2+6J4Oi+H33PkopHofZ5kdecgv+NPndLhyH6dK13nKP/Um/KlomS/47hV3//yqiPn3KlV8jJywZG94Sp2X0i7MtrMmx41J3uFfhuZXVLJPpOXc+96XxTsv+Qf87gjew9HVaN7r5vqc1PJrsetFezuBWH9inZPmgclu2FbmJPdn+/evuist53fD0vGh5dHnSSuednqqvxVL9qq84cPr+pU5+585yPHvWr1X3+86k6N8oMtjryR0RcfSm4qL7/e4kh1lewiwbnQH0rOnVvdm2rGvPbGJe+5Tgdz5ljxoqlF0e1PLbMrL3f9OdkvvFOLZK+uH380c7L7886bOdRLvkioppK90pzs9jQ9+sVFhyM/P+RfEHZ5VXpeQ7KvOd80AAEIQAACEIgggGRPt/hAbDG+ZIAMkAEykHQGkOwxgpXK8uarLF/vMUmzZHdF8BZPCP/jNkdeOV0qdC/3OfKEXgxV1+tw5Iku/6KfKn2nHXnRF8qP6xzpd/Ly7m5H/s5f95evVynZta3rjuzd7Yg7NcsWR9z+/DUvdqV3QS5n87Lf2s8T7zjyX1uCc6nH9TtOsus+zh125PHfe8esU9889Y5/QdaZvLz7liO7zJcOEdX8ur25AKqZm93rd1Cy6zK7jzpFzYsR/L1tS8fFXh5xjtigRQ/lxpm8/PZFb7oSzcBjLznylrlQqXgX+vxnnUJoiyM/73LkPy3Jfv9SXna888C/AKl2KVjprmL+7sW8/PoP3vY6Pcxvj/kyOfSaZu/X+/MyMucdWlGyi8hUXv7wYrGNLSqhq54uRturvh//8AfHvQipAVyXZH85Lz3djrjc9Li6i/PSB47L30nuSl7+81nv+P7hxbxs0bnsbRFvOsM9BCAAAQhAAAJrIoBkR74kLV9on4yRATJABtKdASQ7kp1K9pgMpFGy24KWx/ECuxX4rOlsko3XlUCURF/XDrAzCEAAAhCAAATKEkCyp1t8ILYYXzJABsgAGUg6A0j2GMG63lXT7K/5KueR7K0voVtBlK+lj2XPFHmh6Qgg2ZtuSOgQBCAAAQhAoEAAyY58SVq+0D4ZIwNkgAykOwNIdiQ7lewxGUCyI9nXIsDXY9vCmSEPmp4Akr3ph4gOQgACEIDAJiaAZE+3+EBsMb5kgAyQATKQdAaQ7DGClcry5qssX+8xQbIj2ddDlK9lH5v4XJhDhwAEIAABCEAAAg0jgGRHviQtX2ifjJEBMkAG0p0BJDuSnUr2mAwg2ZHsaxHg67Ftw84saQgCEIAABCAAAQhsYgJI9nSLD8QW40sGyAAZIANJZwDJHiNY17tqmv01X+U8kh3Jvh6ifC372MTnwhw6BCAAAQhAAAIQaBgBJDvyJWn5QvtkjAyQATKQ7gwg2ZHsVLLHZKAVJPvUDCJ8LZK6lbfVsecfBCAAAQhAAAIQgMDaCSDZ0y0+EFuMLxkgA2SADCSdASR7jGClsrz5KsvXe0xaQbLfnn8grSyK6Xv9X5Lo2PMPAhCAAAQgAAEIQGDtBJDsyJek5QvtkzEyQAbIQLozgGRHslPJHpOBVpDsi7mHSPZNWs2vY88/CEAAAhCAAAQgAIG1E0Cyp1t8ILYYXzJABsgAGUg6A0j2GMG63lXT7K/5KudbQbLrKcW9xVVE+yYT7Trm/IMABCAAAQhAAAIQaAwBJDvyJWn5QvtkjAyQATKQ7gwg2ZHsVLLHZKBVJLueWmhVs04fwhzt9U+/0uxT1+jY6hhTwd6Yk2lagQAEIAABCEAAAoYAkj3d4gOxxfiSATJABshA0hlAsscIVirLm6+yfL3HpJUkuzlB4B4CEIAABCAAAQhAAAIQqI0Akh35krR8oX0yRgbIABlIdwaQ7Eh2KtljMoBkr+3khLUhAAEIQAACEIAABCDQigSQ7OkWH4gtxpcMkAEyQAaSzgCSPUawrnfVNPtrvsp5JHsrniLRZwhAAAIQgAAEIAABCNRGAMmOfElavtA+GSMDZIAMpDsDSHYkO5XsMRlAstd2csLaEIAABCAAAQhAAAIQaEUCSPZ0iw/EFuNLBsgAGSADSWcAyR4jWKksb77K8vUeEyR7K54i0WcIQAACEIAABCAAAQjURgDJjnxJWr7QPhkjA2SADKQ7A0h2JDuV7DEZQLLXdnLC2hCAAAQgAAEIQAACEGhFAkj2dIsPxBbjSwbIABkgA0lnAMkeI1jXu2qa/TVf5TySvRVPkegzBCAAAQhAAAIQgAAEaiOAZEe+JC1faJ+MkQEyQAbSnQEkO5KdSvaYDCDZazs5YW0IQAACEIAABCAAAQi0IgEke7rFB2KL8SUDZIAMkIGkM4BkjxGsVJY3X2X5eo8Jkr0VT5HoMwQgAAEIQAACEIAABGojgGRHviQtX2ifjJEBMkAG0p0BJDuSnUr2mAwg2Ws7OWFtCEAAAhCAAAQgAAEItCIBJHu6xQdii/ElA2SADJCBpDOAZI8RrOtdNc3+mq9yfi2S/fr166If1vkHAQhAAAIQgAAEIAABCDQ3Af3crp/fp6am5MaNGzI9PS03b96UbDYrt27dcm+3b9+WO3fuFG7hc4WNPJ9LWhzQPnKKDJABMkAGyEB8BpDsSHYq2WMyEP7gbH+o1g/Z5gO3fvjWD+H6YVw/lOuHcyR7c59I0TsIQAACEIAABCAAAQgYAkj2eHGAWIEPGSADZIAMkIH4DCDZYwTrRlYisO/mqGpHspvTDu4hAAEIQAACEIAABCCQXgJI9nhxgFiBDxkgA2SADJCB+Awg2ZHsVLLHZADJnt4TKY4MAhCAAAQgAAEIQAAChgCSPV4cIFbgQwbIABkgA2QgPgNI9hjBSjV5c1STb+Q4INnNaQf3EIAABCAAAQhAAAIQSC8BJHu8OECswIcMkAEyQAbIQHwGkOxIdirZYzIQluz63MzLXs2c7JOTk+k9E+HIIAABCEAAAhCAAAQgkBIC+rm9lgufRp0nbGRxEOIjXnzABz5kgAyQATKQdAaQ7DGCdSM/JLHv5qiij/rwjGRPyZkUhwEBCEAAAhCAAAQgAAGfAJId+ZK0fKF9MkYGyAAZSHcGkOxIdirZYzJQSbKbavZsNis3b96U6elpuXHjhkxNTbmVMFSyc94GAQhAAAIQgAAEIACB5idQSbLr5369mYKbqPOEjSyUQtykW9wwvowvGSADZKD5M4BkjxGsG/khiX03RyW7jkP4A7T5YG0+aN+6dUviJPvDhw+b/6yCHkIAAhCAAAQgAAEIQGCTEtDP62uV7Bt9/oZ8aX75whgxRmSADJCBdGcAyY5kp5K9QgbWKtlzudwmPV3hsCEAAQhAAAIQgAAEIND8BPTzOpI93eIDscX4kgEyQAbIQNIZQLJXEKwbXZHA/je+or1ayR5Vza4f1ufm5pr/zIIeQgACEIAABCAAAQhAYJMS0M/r+rldp3zUqR91CkidClI/3+tNf7lqfsVqftUaPkfY6PO2pMUB7SOnyAAZIANkgAzEZwDJjmSnkr1CBsIfoM0Ha/NB20wXEyXZr1+/7n5gp5p9k56xcdgQgAAEIAABCEAAAk1NoFIVO5I9XiggXOBDBsgAGSADZMDLAJK9gmDd6IoE9t8alexGtJe7+KlWxCDam/r8is5BAAIQgAAEIAABCGwyAvr5XD+nV5oqhkp2BBICiQyQATJABshApQwg2ZHsVLJXyEC5SnataNdqdv3QXUmyf/vttzIxMSGzs7OysrIiXAx1k53BcbgQgAAEIAABCEAAAk1BQD+H6+dx/Vyun8/1c3q1kt38olXvw+cIG10cVenEn9eRQ2SADJABMkAGks0Akr2CYN3oD0vsf+Mr2XUM7A/R9ofr8JQxWslerprdiPZvvvlGxsfH5euvv3ZvY2NjMjo6Wrhdu3ZNzO2rr74SbjAgA2SADJABMkAGyAAZIAOVM2A+Q+u9/flaP2+bz976OVw/j1cS7GZO9qgq9rBkb4ZzNsRJsuIEvvAlA2SADJCBShlAsiPZqWSvIgO2ZNfHRrSHJXvcvOxGsusH+ijRHpbtemJgnyjwuPjlAyxgQQbIABkgA2SADJABMhDOgC3W9bF+vi4n2CtJdv1c3yrzsavkr3Tiz+vIITJABsgAGSADyWYAyV6FYG2GygT6sLEV7dVI9qgpY3SOx6mpKTEXQDWiXSW7Ee3hqnZzMhA+SeB5sdofFrAgA2SADJABMkAGyAAZiMqA+Swdluumgj2uil0/u09PT7u/TDWCPaqSPXxu0AznaoiTZMUJfOFLBsgAGSADlTKAZEeyU8leRQbCH6RNJbveV1vNHhbtdkW7fui3Zbv+nNU+QeCxV4UEBziQATJABsgAGSADZIAMxGXATAuj9+YzthHs+vk7XMGun9G1KCYs2I1kN5/17c//4XMDJDvipZJ44XUyQgbIABlIfwaQ7FUI1mb40EQfmrOSPSzZw9XsWgkTrmbXCyuZinYj2stVttsnCTz25rCHAxzIABkgA2SADJABMkAG4jJg5Lr5jG2q123BHnWx02qq2PXzP5I9/aIEGcYYkwEyQAbIQK0ZQLIj2alkrzID4Q/TdjWLVrioYDeSXStf7Aug2qLdrmgvJ9v1RMCcHHDvVfnDAQ5kgAyQATJABsgAGSADlTJgi/WwXNfP3kau2xXs5arYzVQx9uf+8DlBsxRD1SoCWB95RAbIABkgA2SgsRlAslcpWJvlwxP92LiK9vAHavvDtvkZqS3aVbJXEu2mqt2W7eZnrOEq9/AJA8+9ee3hAAcyQAbIABkgA2SADJABzYD9Odo81s/ZRq5XEuz62d1ME2MEu37Otz/3h88JmuX8DFHSWFECT3iSATJABshArRlAsiPZqWSvIQPhD9X2B25btOuHc1PNHiXazcVQTVW7fuC3hbs5GTAnB9x782fCAQ5kgAyQATJABsgAGSAD5TJgPkObe/MZOyzXzRzsdgW7EexGspvP9vbn/fC5QLMIdu1HrSKA9ZFHZIAMkAEyQAYamwEkew2CtZk+RNGXjaloD3+wtj90mw/idjV7WLSbOdrN9DG2bA8Ld/ukwJwocO9VIsEBDmSADJABMkAGyAAZIAMmA/bnZvuxfr42N/3cHZbrZg72sGBvtSp2JHtjJQnSCZ5kgAyQATJQTwaQ7Eh2KtlrzEAjRbst280Hf3MiEHdvnzzw2PsVABzgQAbIABkgA2SADJCBzZGBuM/J5jXz2drc6+duc1O5nibBjmRHBtUjg9iG3JABMkAGGpsBJHuNgpUK8o2pIG8m7mHJrs+rqWiPqmq3K9vNh35zIsC9V20EBziQATJABsgAGSADZIAM1JoB89na3BuxHiXXzRQx1Vaw6+f/Zjo/QbI3VpIgneBJBsgAGSAD9WQAyY5kb7oPiM32gTWqP2HRbkt2fRyeOkY/sOuHd3PTn6Sam/2BP0q6mxMD7ovVR/9/e/fzGsd9P37879i/Yo/Ch6/BEN/2GJFDRA41BD6CgNHJqIcvwhBEDmYpGNGDxecQRKCgQEA+BPlQ5EtAh4AMBbfFyCUOaklhS6DbGvL68N6dWc2uVtJamdGMPI9C0Er7a+Y5z8LMc19+LxZYcIADHOAABzjAAQ5c5MDsOXZ+7l1cGqYY188L7Oncfvbcf971Qd1/u0oM8BwRiQMc4AAHOFCeAyK7yC6yX8GB2RPt9Pt5oT0F93TSnv+Xh/b0s3iyn9+evSDw+/if8+KAAwc4wAEOcIADHODAog7k59bFn8Xz8PzcvBjX03n77Dn9vPP+uoP6vPcXScqLJFhiyQEOcIADV3FAZL9CYJ13UuNv7VtGZt4J9+xJeT7RPhva08l88SS/eLt4IeD26cQ/FlhwgAMc4AAHOMABDizqQPH8uni7GNffl8CerkWvEgM8R0TiAAc4wAEOlOeAyC6ym2S/ogPzIvu8ifYU3ouxfV5wvyi6Fy8K3D5dcgcLLDjAAQ5wgAMc4AAHLnNgNqrPhvV0bj47KJN+P+9cv6nDVSJJeZEESyw5wAEOcOAqDojsVwysTT25sl3XO1F/3sn3ebF93kn+ZRcG7nfxyAEOcIADHOAABzjAgV/nwLzz8HeJ6+n8vsnXWleJAZ4jInGAAxzgAAfKc0BkF9kbfbLY5BPZfNsWCe359Pq//vWv+O9//xu//PJL+B8CCCCAAAIIIIAAAghcL4F0Hp7Ox9N5eT7Vnsf2i87r83P/pv4UScqLJFhiyQEOcIADV3FAZBfZRfYSHLjohDw/aU8n8/6HAAIIIIAAAggggAACzSCQzs/zc/WLzuebGtaL23WVGOA5IhIHOMABDnCgPAdE9hICa/Hkxu3rXa6labxnT87TSXuakBHYm3EhZSsQQAABBBBAAAEEECgSSOfp6Xw9nbfPnss37Vrjou0RScqLJFhiyQEOcIADV3FAZBfZTbJX4EB+gp6WiRkMBsXzeLcRQAABBBBAAAEEEECgQQTS+Xo6b8/P4S+K2U297yoxwHNEJA5wgAMc4EB5DojsFQTWpp542a7rnbJP0zDpC6r+85//NOgSwqYggAACCCCAAAIIIIBAkUA6X0/n7en8/aZeM4kk5UUSLLHkAAc4wIGrOCCyi+w39kSy6SfAaRLmxx9/9CWnxSsYtxFAAAEEEEAAAQQQaBiB9GWo6bw9nb83/RrjvO27SgzwHBGJAxzgAAc4UJ4DIrvIfmNPJM87wWzK39NJ+ps3bxp2CWFzEEAAAQQQQAABBBBAYJZAOm8X2csLDaINlhzgAAc40DYHRHaRXWSvyAGRffbSxe8IIIAAAggggAACCDSTgMguBrUtBtlfznOAAxwo1wGRvaLA2pRpattxveuwF3mL7M28gLJVCCCAAAIIIIAAAgjMEhDZyw0Nwg2eHOAABzjQNgdEdpHdJHtFDojss5cufkcAAQQQQAABBBBAoJkERHYxqG0xyP5yngMc4EC5DojsFQXW4kSz2/VNk9fJXmRv5gWUrUIAAQQQQAABBBBAYJaAyF5uaBBu8OQABzjAgbY5ILKL7CbZK3JAZJ+9dPE7AggggAACCCCAAALNJCCyi0Fti0H2l/Mc4AAHynVAZK8osNY5Qe29mzE5L7I38wLKViGAAAIIIIAAAgggMEtAZC83NAg3eHKAAxzgQNscENlFdpPsFTkgss9euvgdAQQQQAABBBBAAIFmEhDZxaC2xSD7y3kOcIAD5TogslcUWE2TN2OavM7jILI38wLKViGAAAIIIIAAAgggMEtAZC83NAg3eHKAAxzgQNscENlFdpPsFTkgss9euvgdAQQQQAABBBBAAIFmEhDZxaC2xSD7y3kOcIAD5TogslcUWOucoPbezZiiF9mbeQFlqxBAAAEEEEAAAQQQmCUgspcbGoQbPDnAAQ5woG0OiOwiu0n2ihwQ2WcvXfyOAAIIIIAAAggggEAzCYjsYlDbYpD95TwHOMCBch0Q2SsKrKbJmzFNXudxqCKyD59vRrfTiU5nOXZeXd8FysnX96LTuRe7b67vPct6p5u87WUx8DoIIIAAAggggAACFxMQ2csNDcINnhzgAAc40DYHRHaR3SR7RQ6UH9kHsXe/E51udxTa7z4+uvhKocR7b3KovsnbXuIh9FIIIIAAAggggAACFxAQ2cWgtsUg+8t5DnCAA+U6ILJXFFjrnKD23s2Yoi89sv+0F2udTix/eZjF9n4cXnChUOZdNzlU3+RtL/MYei0EEEAAAQQQQACB8wmI7OWGBuEGTw5wgAMcaJsDIrvIbpK9IgfKjuzHX61Ep7MyWiZm8O16dDrd2Hw+zK4UjmPn4050PtiK6fn2o9j6oBOdj3fiOE5i99NOdD7djZPC9cXho7T8TDHYD+Lw8Wrc7qap+dux+vgwjv4ws1zMyUFsP7gXvVvpuZ3o3OrF2uPDGBRe9+zNYbx82o+13tL4Od3bsfJgOw5/yh85fX/3zkqsP5l+zTyYb3+7Gxuf3B4vnXNrJTa+Pc5f5MzP/DmTpW4q2fZBHD5Zj5U73dG+LfXWov/0ZeRHJ3L2v9mOva/WY2XEbSlWHu7H8dtp3mt/OJ48L9/27W+2J9y6d1Zj67si6cPop2PwxV4cPl6L3q1sWZ8r7ecZfP6AAAIIIIAAAgi0goDILga1LQbZX85zgAMcKNcBkb2iwGqavBnT5HUeh3IjezGWR8TwIDZTBH+wPwnbg6drM+E9Il5sxd1OJ9aepii7SGQfxsHDbnS6q7Hzp3HIHb7ai40PUzwurMn+aic2fncQJ1lFPnm2Gb1OJ1a+Oj92Hz1Zjm6nF/3nWSD+6Sh2Pt+Ko5/H123j+1di6/D0fdc/6MTSb0/3cRydu7GS3vttRLwdxMEXd6e3beYyMA/Vk8he+rYPYv+3S9H5YD32Xo2BDA63YqXTjeUn+UceGftOLzafjT/iGDzbGH1I0Pt0K/ZHf8r3ZT32M0Tjbe9E7/P9Meu0v4960UkcD/OEn0X20Vr96UOP7DhdYT9n0PkVAQQQQAABBBBoDQGRvdzQINzgyQEOcIADbXNAZBfZTbJX5ECpkT2L5fe+zmfQh3HweQrfa7GXT4IPD2Kj04nu5wfZJHT2mO5mHIx67AKR/c1u3Ot0Yna99zOh+szl1nHsfHR2Sn7ysGypm9nXvez+8QcHd2PrxfiRc7fju83R9Hj/nLVz5j5n8sbpxq/c9qkPMk5f+Ohxiv/58ZnDPmN9ekwjZrd19vfxq2cfuHy2l/2LhCyy99Zj90VW5083o3Drkv0sPNJNBBBAAAEEEECgbQREdjGobTHI/nKeAxzgQLkOiOwVBdY6J6i9dzOm6MuL7HlQL0ySp6ueLO6eTo/nj8vC7mA/1lN0f5TX5zmhNyKmlos57I+C9eZ305dVZ2Lvzy9j9+G9WP5oOZY/XY/t54exM2cpmsmrnPO6l97/ehz98xB9ZjvSC2SvvXBkL3nbJ9v0erI34xtT8X8O+ytH9pPY+6y4xE8W2SfHOduOd93Pmc33KwIIIIAAAggg0CYCInu5oUG4wZMDHOAAB9rmgMgusptkr8iB0iJ7NgU+Wvt8siRIthZ6+n203np2CVQI77NT4AstF3NODJ+E5DfpfQbZF6+uxs6LkxgMBnH8bDOW0/I1M+u9Ty7MznndS+8vPbKXv+0TNo2K7FfYz8nBcAMBBBBAAAEEEGgfAZFdDGpbDLK/nOcABzhQrgMie0WB1TR5M6bJ6zwOZUX2ccQtRPUzof10OZWIfO329VhPX4RaDPCLrMm+0HIx8yan50xqF6/Nqlwu5p0m2SvY9mtfLuYw+lPr8c/bp3l/u+QYFY+X2wgggAACCCCAQMsIiOzlhgbhBk8OcIADHGibAyK7yG6SvSIHyonsx7GTYvlkbe/pq53h883Rl2eeLgkTcfzVymjJlzT5Pv7C0/w5g9h/0IlOdz32sqXdR1/QmYJtpx/jRWXmfPHpm/3Y7KXH5MvVZNvU68dBth784MVOrF40yR4R7/7Fp7uj1zz7xaf5dmT79U6RvYptn/PFp8/70Zv3xafFSf+Fl4tZ8ItPp5aLudp+5qb4iQACCCCAAAIItI2AyC4GtS0G2V/Oc4ADHCjXAZG9osBa5wS1927GFH0pkT2bku482I+5X2k5PIjNFLcnX24aEa92YiVNuxf/ll8lvd6PjY+XxhH+Vi/WHh/G3hfFyB4Rb49j/9Fq3B7F96Xo3d+Ovf+9V4jsEfHTYWz9z+1R4O/c6sW9h1ux+ZsLlosZvf8wXj7tx1ove//u7Vh5sB2H+Re3xvT93Tsrsf7kcGq/h2+O4uD5UZyMvsg126l3iuxVbfsgDp+sx8qd9GW0nVjqrUX/6cvsC2jTds6ZIl84st+Lnef70c94d++sxtZ3RRvmTa1fdT9zUfxEAAEEEEAAAQTaRUBkLzc0CDd4coADHOBA2xwQ2UV2k+wVOVBKZL/Stc1R9P9fJ+4+PrrSsz2pOQQm672P1sJvznbZEgQQQAABBBBA4H0jILKLQW2LQfaX8xzgAAfKdUBkryiwmiZvxjR5ncehrsg+eLYR3c5K7Lx63y592rc/Inv7jrk9RgABBBBAAIF6CIjs5YYG4QZPDnCAAxxomwMiu8hukr0iB649smfLj6RlVja+Pa7n6sS7lkpAZC8VpxdDAAEEEEAAAQTOJSCyi0Fti0H2l/Mc4AAHynVAZK8osNY5Qe29mzFFf+2R/dxLBncggAACCCCAAAIIIIDARQRE9nJDg3CDJwc4wAEOtM0BkV1kN8lekQMi+0WXMe5DAAEEEEAAAQQQQKA5BER2MahtMcj+cp4DHOBAuQ6I7BUFVtPkzZgmr/M4iBvfPPoAABZcSURBVOzNuWiyJQgggAACCCCAAAIIXERAZC83NAg3eHKAAxzgQNscENlFdpPsFTkgsl90GeM+BBBAAAEEEEAAAQSaQ0BkF4PaFoPsL+c5wAEOlOuAyF5RYK1zgtp7N2OKXmRvzkWTLUEAAQQQQAABBBBA4CICInu5oUG4wZMDHOAAB9rmgMgusptkr8gBkf2iyxj3IYAAAggggAACCCDQHAIiuxjUthhkfznPAQ5woFwHRPaKAqtp8mZMk9d5HET25lw02RIEEEAAAQQQQAABBC4iILKXGxqEGzw5wAEOcKBtDojsIrtJ9oocENkvuoxxHwIIIIAAAggggAACzSEgsotBbYtB9pfzHOAAB8p1QGSvKLDWOUHtvZsxRS+yN+eiyZYggAACCCCAAAIIIHARAZG93NAg3ODJAQ5wgANtc0BkF9lNslfkgMh+0WWM+xBAAAEEEEAAAQQQaA4BkV0MalsMsr+c5wAHOFCuAyJ7RYHVNHkzpsnrPA4ie3MummwJAggggAACCCCAAAIXERDZyw0Nwg2eHOAABzjQNgdEdpHdJHtFDojsF13GuA8BBBBAAAEEEEAAgeYQENnFoLbFIPvLeQ5wgAPlOiCyVxRY65yg9t7NmKIX2Ztz0WRLEEAAAQQQQAABBBC4iIDIXm5oEG7w5AAHOMCBtjkgsovsJtkrckBkv+gyxn0IIIAAAggggAACCDSHgMguBrUtBtlfznOAAxwo1wGRvaLAapq8GdPkdR4Hkb05F022BAEEEEAAAQQQQACBiwiI7OWGBuEGTw5wgAMcaJsDIrvIbpK9IgfyyP7DDz+E/zDgAAc4wAEOcIADHOBAcx0Q2cWgtsUg+8t5DnCAA+U6ILJXFFjrnKD23s2Yos8j+0UTM+5DAAEEEEAAAQQQQACB+gmI7OWGBuEGTw5wgAMcaJsDIrvIbpK9IgdE9vovlmwBAggggAACCCCAAAKLEBDZxaC2xSD7y3kOcIAD5TogslcUWE2TN2OavM7jILIvcjnjMQgggAACCCCAAAII1E9AZC83NAg3eHKAAxzgQNscENlFdpPsFTkgstd/sWQLEEAAAQQQQAABBBBYhIDILga1LQbZX85zgAMcKNcBkb2iwFrnBLX3bsYUvci+yOWMxyCAAAIIIIAAAgggUD8Bkb3c0CDc4MkBDnCAA21zQGQX2U2yV+SAyF7/xZItQAABBBBAAAEEEEBgEQIiuxjUthhkfznPAQ5woFwHRPaKAqtp8mZMk9d5HET2RS5nPAYBBBBAAAEEEEAAgfoJiOzlhgbhBk8OcIADHGibAyK7yG6SvSIHRPb6L5ZsAQIIIIAAAggggAACixAQ2cWgtsUg+8t5DnCAA+U6ILJXFFjrnKD23s2YohfZF7mc8RgEEEAAAQQQQAABBOonILKXGxqEGzw5wAEOcKBtDojsIrtJ9oocENnrv1iyBQgggAACCCCAAAIILEJAZBeD2haD7C/nOcABDpTrgMheUWA1Td6MafI6j4PIvsjljMcggAACCCCAAAIIIFA/AZG93NAg3ODJAQ5wgANtc0BkF9lNslfkgMhe/8WSLUAAAQQQQAABBBBAYBECIrsY1LYYZH85zwEOcKBcB0T2igJrnRPU3rsZU/Qi+yKXMx6DAAIIIIAAAggggED9BET2ckODcIMnBzjAAQ60zQGRXWQ3yV6RAyJ7/RdLtgABBBBAAAEEEEAAgUUIiOxiUNtikP3lPAc4wIFyHRDZKwqspsmbMU1e53EQ2Re5nPEYBBBAAAEEEEAAAQTqJyCylxsahBs8OcABDnCgbQ6I7CK7SfaKHBDZ679YsgUIIIAAAggggAACCCxCQGQXg9oWg+wv5znAAQ6U64DIXlFgrXOC2ns3Y4peZF/kcsZjEEAAAQQQQAABBBCon4DIXm5oEG7w5AAHOMCBtjkgsovsJtkrckBkr/9iyRZckcDrvdj4Yj9O3l7x+TfoacMX27Hxu4NW7OsNOiw2FQEEEEAAgWsnILKLQW2LQfaX8xzgAAfKdUBkryiwmiZvxjR5nceh3Mg+jONnW7H24e3odjrR6d6O5fv92PvzcPELkOFh9G/di903iz+l8Y98sxv3Ov04PG9D0/23+nH4DpjOe6m47L3OfeKcO9JrfbobJ+muMrdxzlvN/9MwDh8txb0/jLZg+iGvd2Pj0UEMpv/6634r7u+ve6VSnz0K7E+Oogw9St0wL4YAAggggAAC105AZC83NAg3eHKAAxzgQNscENlFdpPsFTlQXmRPQbQX3U/6cfA6z4HDOHnej5VuL/qlFORrv44p5w3LDN+XbVGZ79XQ6BwxjMFPuWOXAXmH+xu5vxXt6ztg8VAEEEAAAQQQaA4BkV0MalsMsr+c5wAHOFCuAyJ7RYG1zglq792MKfqyIvvw+WZ0e/04/HnORciLreh1N+Mg66KHjzpx7+vidPJh9CeT3ul2YZL97XHsP1qN293xZPzq48PC9PL4sdtPt2P1Tjf62aj44LutWOstRafTiaXeWmx9d/G88/HTjVi5041Opxu3P9mI/dfZPvz8MnYfrozfu7MUKw9342W2fydf34vOb7dH9y91OtG9sxZ7rwdx9CTb1lv3YvtFtsOj8L0Ze99tjbazM/Nas9Pnwz/vxsYn2b8GuLUSG1+/nEwxj973i93Yf7gSS/mUeRH5TGQvsujeWb2Qxeh9P07cunH7f7bi8PuZSfaZY3SG+/c7sT56fieWPt6I3Zl/wTD4fnvquEz4RMR59826Utyf2WNbPCa5L2vfHBfpTN2+cH/TIwdHsfNgJdLx7cwch6kXyn45ftbPjm/G76fTR4324/FubN3vTV5va/TB0yD27ndj8/n0hwbHX63E3cdH439BMOEeEUUnu7ennDx9N7cQQAABBBBA4H0lILKXGxqEGzw5wAEOcKBtDojsIrtJ9oocKCuyp4i4/OV5QfM4dn/TiY0/jkPibDiNOC+yD2L/wVKsfvlyHNbfDuLoy9VY/l2+dEZ6XjeWC+tyD7/vR6+3Hnuvxu81fLUX671e9L+fjpj5hdfg2/VY+mQrDrMgOvjTTmz9YbwfJ0/70X9+Mg7cb09i/+HdWPkquy9F9sL7vHyyHN1ba7Hzp3HQP/7qXnS+yKr/KHz3Yv3roxik9cPfDuIgTf0/2B/v11QYP4m9R/04eJNt78l+bHywEjuvxls8CsmF98n3Y/Kz+Fpvj2L78904muzbdtwrfNgxeU66MTyIzW4vNp9lH34MXsbu/1+Obh7yi687Ol7T3CN9kNLbjP3s6cM3+7H54Wrs5cv+jO4/PS5xsh9bv88+MLngvqIrlx3bEZveeuy+yD5Ueb0T9zrrsT/vM5bL9jeOYqtX4DE8if3Pl2P1m+KHQ6cERx59thMvs/cavNiJ1Q/7cZQdxrQfo3/lkR3XwfPNuPvBVhwl9OkDqvt7hQ+PjmIrP+ZT3E9i77OlWEncMo8Of78SS5/tjZf0Od0ctxBAAAEEEEDgPSUgsotBbYtB9pfzHOAAB8p1QGSvKLCaJm/GNHmdx6GcyH4Su5/OTqdPX9kUY2nx9vhR50T2Vzux8tFOTKf749j5KA+n40n20/Xbh3HwsBPrz6aD+vDZenQeHkymwU+3LL3Wcmz/+fQvZ279PIjBYBCD9JKH/eg8GofzUdDNbo+eU7hv8vvcQJ29w/AgNvIAPBVSx/cP03sOBqNtTrzyKf0z75u93OTHmdcajrd/tAPpOBX+lcDkSRHDP26cZZRea+4+zOH+eXfyIUr+suk17/5+lJHnHpfx4+Yfs/w1Tl2Z/7jisT3LJn24c7X9HYXvWWfSMcvCeL5945/HsfPx8uSDkPy+4y+XY/3bcXU/3Y/83sPYnEyoF6J6uvuwfxrdi8fz1U4sf7QdL/OXGP18GdsfnX3vqYf4BQEEEEAAAQTeGwIie7mhQbjBkwMc4AAH2uaAyC6ym2SvyIFyIntEiohnJtnfDmIwWl7lipPsKVynpTrO/JeH09nYO479eZCeXE2l18lj8eSP6cbs86fujONv1mIpfXnrR8ux/OFyrN2/V15kj0LwLobUOI69+0vRvbOcve9arH16xcj+82H0P+zGUi97rU/WYvWjnN30vp4N1NmXnebcprZxltuY+9nj1Ml4nXNcRptw0X1jr8ZLC53zuMKxPbsP6TlX29/Ra53xLrk47wtsE495np5+8DQvsp8ukRQxWR4mhnHw+dLp8jFF7oV9PT1653A5fYBbCCCAAAIIIPAeERDZxaC2xSD7y3kOcIAD5TogslcUWOucoPbezZiiLyuyz1uT/eTZRvTSOu3fXXFN9tHk7uwke/EqaTb2jqed155Orw8yeLp2dkp79DIXTbIfRb87PeU+mpquepL9+350p6aVh7H/26tF9pNvVqPz2/3CBH+aep4fnX/1JPvD0+WAikdofHv+FPrl9xUj++XH9l0i+2X7O/f+szuW/WXsUb6kz7yHXRbZ46e9WEtL+bzOfub/GKMY2dP/H85M0qcpeJPs85j7GwIIIIAAAu8jAZG93NAg3ODJAQ5wgANtc0BkF9lNslfkQFmRPWIYh2md8U/6cfA6K4SjtcdvR6dz+3QyNyLSMhp3vziYrCud1lnvTiaEi+F8vCb7ZA3q9F2UL3Zj+9t8AZniY7PLqJn1vfM12bdezL/MOn9N9rQEyN3Y+DZfZHwQR//7aybZF1yTPS2R88HG6drmPx3F9hUn2UcffHy6PVknfPg6re8+P7KfWZN9tAZ57/RfABRj77x/ATDDPYYncfBk5/SLcGfvv8Ka7ON130/XdZ89tu8S2S/d32xN9vWnx9mHFMM4eb4dO6MvKz3r0qxH8dNR7D7Znyx1dGlkH02wd6PX642/8DR/iynuM/9/eDuI0Zrs+dr++XP8RAABBBBAAIH3loDILga1LQbZX85zgAMcKNcBkb2iwGqavBnT5HUeh/Iie7qWGcbxs61Y+/B2dNPyGWmplfv92Hm8Fksfb8fL9GWN6X8/H8bWx0ujZWC6d1aj/8fdwvrUM+H87XHsP1qN2920HMdS9O6ffknpecu9DL7birXe+PWXemux9d30ZHu2FZMfx083YuVONzqdbtz+ZCP2X2d3pSidbefSx+ux83j9VywXsx7bX2/Eyq3xfqw83I2Xo6V0smVZJh8yRBx/W3jcg53YuuIkezoeR08ydt3bsfpoJzbPWaM87fHwz7un+9tbi+2n2wuuyT7mNfh+J9Ynx3UlNr5+WZiijxh8vz11XLZf5OPa5983G6cvOrbvFNkv29+0S4Oj2HmwEkuZy1PHLFOk+OP4WT9WRx51Yta72f2Y/rLf8auMPhTpnH7J7eivU5E9/X/nZew+XBn//6F7Oy7bpuL2uY0AAggggAACN5+AyF5uaBBu8OQABzjAgbY5ILKL7CbZK3Kg3Mh+wYVLHtgveIi7EEAAAQQQQAABBBBA4HwCIrsY1LYYZH85zwEOcKBcB0T2igJrnRPU3rsZU/TXFtnPv1ZwDwIIIIAAAggggAACCCxAQGQvNzQIN3hygAMc4EDbHBDZRXaT7BU5ILIvcDXjIQgggAACCCCAAAIINICAyC4GtS0G2V/Oc4ADHCjXAZG9osBqmrwZ0+R1HgeRvQFXSzYBAQQQQAABBBBAAIEFCIjs5YYG4QZPDnCAAxxomwMiu8hukr0iB0T2Ba5mPAQBBBBAAAEEEEAAgQYQENnFoLbFIPvLeQ5wgAPlOiCyVxRY65yg9t7NmKIX2RtwtWQTEEAAAQQQQAABBBBYgIDIXm5oEG7w5AAHOMCBtjkgsovsJtkrckBkX+BqxkMQQAABBBBAAAEEEGgAAZFdDGpbDLK/nOcABzhQrgMie0WB1TR5M6bJ6zwOInsDrpZsAgIIIIAAAggggAACCxAQ2csNDcINnhzgAAc40DYHRHaR3SR7RQ6I7AtczXgIAggggAACCCCAAAINICCyi0Fti0H2l/Mc4AAHynVAZK8osNY5Qe29mzFFL7I34GrJJiCAAAIIIIAAAgggsAABkb3c0CDc4MkBDnCAA21zQGQX2U2yV+SAyL7A1YyHIIAAAggggAACCCDQAAIiuxjUthhkfznPAQ5woFwHRPaKAqtp8mZMk9d5HET2Blwt2QQEEEAAAQQQQAABBBYgILKXGxqEGzw5wAEOcKBtDojsIrtJ9oocENkXuJrxEAQQQAABBBBAAAEEGkBAZBeD2haD7C/nOcABDpTrgMheUWCtc4Laezdjij6P7L/88ksDLhtsAgIIIIAAAggggAACCMwjkM7XRfZyQ4NwgycHOMABDrTNAZFdZDfJXpEDeWQfDofzzuX9DQEEEEAAAQQQQAABBBpAIJ2vi+xiUNtikP3lPAc4wIFyHRDZKwqspsmbMU1e53FIkf3HH3+Mf/7znw24dLAJCCCAAAIIIIAAAgggMI9AOl9P5+3p/L3O64df895CSbmhBE88OcABDnDgXR0Q2UX2G3si+WtOQq/juekk/eTkJF6/fh2m2eddzvgbAggggAACCCCAAAL1Ekjn6el8PZ23i+yCyrsGFY/nDAc4wAEO5A6I7CK7yF6hA//4xz9G//T0b3/7W/z73/+u9wrCuyOAAAIIIIAAAggggMCEQDo/T+fpaamYdN5+HYM4Vb1HfoHvp9jDAQ5wgAMcqMcBkb3CwFrVCZTXvTlL0aRpmL///e/xww8/xKtXr0bTMelk3pehTq5t3EAAAQQQQAABBBBA4NoIpPPwdD6eztPT+Xk6T0/n6zd5ij1dHwoq9QQV3HHnAAc4wIHcAZFdZL/RExs34QOHPLSnCZn0T1HTyfxf//rX+Mtf/uI/DDjAAQ5wgAMc4AAHOHCNDqTz8HQ+ns7L0/n5+xDYRXaBJw88fnKBAxzgQH0OiOwiu8h+DQ6k0J7+CWpa6zF9qVI6ofcfBhzgAAc4wAEOcIADHLh+B9L5eDovT+fnN32CPR86ElXqiyrYY88BDnCAA8kBkf0aAmt+4uPnzVnmpapjlU7i/YcBBzjAAQ5wgAMc4AAH6negqnP+Ol5X4BF4OMABDnCAA/U6ILKL7CbZOcABDnCAAxzgAAc4wAEOcOAGOyCs1BtW8MefAxzgAAdE9ht8IlXHhIT3NI3PAQ5wgAMc4AAHOMABDnCgWQ6IO+IOBzjAAQ5woF4HRHaR3cQKBzjAAQ5wgAMc4AAHOMABDtxgB4SVesMK/vhzgAMc4IDIfoNPpEyPNGt6xPFwPDjAAQ5wgAMc4AAHOMCBOhwQd8QdDnCAAxzgQL0OiOwiu4kVDnCAAxzgAAc4wAEOcIADHLjBDggr9YYV/PHnAAc4wAGR/QafSNUxIeE9TeZwgAMc4AAHOMABDnCAAxxolgPijrjDAQ5wgAMcqNcBkV1kN7HCAQ5wgAMc4AAHOMABDnCAAzfYAWGl3rCCP/4c4AAHOCCy3+ATKdMjzZoecTwcDw5wgAMc4AAHOMABDnCgDgfEHXGHAxzgAAc4UK8DIrvIbmKFAxzgAAc4wAEOcIADHOAAB26wA8JKvWEFf/w5wAEOcEBkv8EnUnVMSHhPkzkc4AAHOMABDnCAAxzgAAea5YC4I+5wgAMc4AAH6nVAZBfZTaxwgAMc4AAHOMABDnCAAxzgwA12QFipN6zgjz8HOMABDvwfoyQ1Y8VrX0gAAAAASUVORK5CYII=;" parent="fttnm8-4a0CAx30jMsR7-1" vertex="1">
                    <mxGeometry x="-200" y="-180" width="1497" height="708" as="geometry"/>
                </mxCell>
            </root>
        </mxGraphModel>
    </diagram>
</mxfile>